<?xml version="1.0" encoding="utf-8"?>
<!-- Generator: Adobe Illustrator 18.1.1, SVG Export Plug-In . SVG Version: 6.00 Build 0)  -->
<svg version="1.1" xmlns="http://www.w3.org/2000/svg" xmlns:xlink="http://www.w3.org/1999/xlink" x="0px" y="0px"
	 viewBox="0 0 1024 512" enable-background="new 0 0 1024 512" xml:space="preserve">
<g id="_x36_">
	<g>
		<linearGradient id="SVGID_1_" gradientUnits="userSpaceOnUse" x1="512" y1="512" x2="512" y2="-2.298657e-008">
			<stop  offset="0.3602" style="stop-color:#414042"/>
			<stop  offset="0.7176" style="stop-color:#3F3E40"/>
			<stop  offset="0.8463" style="stop-color:#393839"/>
			<stop  offset="0.9377" style="stop-color:#2F2C2E"/>
			<stop  offset="1" style="stop-color:#231F20"/>
		</linearGradient>
		<rect fill="url(#SVGID_1_)" width="1024" height="512"/>
	</g>
</g>
<g id="_x35_">
	<path fill="#161717" d="M0,191c2.1-6.3,7.5-10.6,13.5-10.9c6.2-0.3,10.4,3.8,11.1,4.5c1.2-9.1,9.2-15.8,18-15.4
		c9.4,0.4,17.1,8.7,16.7,18.6c2.5-8.9,10.8-14.9,19.5-14.3c7.5,0.5,14.2,5.7,16.8,13.2c-1-11,7.1-20.7,17.3-21.7
		c10.9-1.1,21.2,7.9,21.3,19.7c2.5-7.4,10.4-11.3,17.4-9.2c6.3,2,10.5,8.5,9.6,15.5c2.8-9.2,11.9-14.7,20.5-13.1
		c7.5,1.4,13.4,7.8,14.5,15.8c-0.5-7.3,3.5-14,9.5-16.5c7.6-3.2,17.5,0.7,21.4,9.6c-2.8-10.1,2.7-20.4,11.9-23.7
		c10-3.6,21.8,2.3,25,13.3c4.8-10.2,16.3-13.9,23.7-9.8c5.4,2.9,8.5,9.6,7.8,16.8c3.8-5.8,10.1-9.1,16.1-8.2
		c8.2,1.2,15,10.1,13.6,20.5c-5.2-4.5-7-11.3-4.9-15.9c2.9-6.2,13.3-9.3,21.8-3.4c-8.7-27.1-1.2-54.6,15.7-65.8
		c22.5-15,65.8-4,83.7,35.8c-3.2-18,8.2-35.4,25.2-39.5c18.1-4.3,37.2,7.6,41.1,26.8c3-17.8,16.2-32,33-35.7
		c19.5-4.2,40.2,6.5,48.8,26c6.4-11.1,18.8-17.5,31.5-16.3c12.6,1.2,23.4,9.7,27.6,21.7c0.9-10.2,9.8-18,20-17.7
		c10.3,0.4,18.6,8.9,18.7,19.3c6.4-11.3,19.2-17.1,31.2-14.4c13.6,3.1,23.3,16.4,21.9,31.2c10.4-17.8,32.9-23.8,49.6-14.5
		c14.9,8.4,22,27.4,15.8,44.6c4.4-6.7,13.5-8.2,19.5-3.9c5.5,4,7.2,11.9,3.5,18.2c4.4-16.6,17.5-29,32.9-31.1
		c19.7-2.7,40.4,11.8,45.1,34.5c-2.2-14.8,9-27.5,21.8-27.9c11.1-0.3,21.8,8.9,23.3,21.6c2.3-10.1,11.1-14.7,16.1-12.9
		c4.3,1.6,7.5,8.9,5.4,16.9c-0.2-8.8,4-16.8,10.8-20.1c9.5-4.7,23.6,0.1,29.5,13c1.4-1.7,3.7-2.5,5.8-2c2.3,0.5,4.1,4.3,4.4,6.7
		c0,81.8,0,161.8,0,243.5H0V191z"/>
</g>
<g id="_x34_">
	<path fill="#59595A" d="M0,219.1h26.5V294h5.2v67.3h6.6v-71.1h8.2V156l14.1,14.1h6.3l3.3-3.3V377h6.2V266h4v-74.7h41v77.3h3.5v63.2
		h2.9v67.8c0,0,20.5,1.1,21.6,0c1.1-1.1,0-98.8,0-98.8h2V96.3H186V154h4v177.9c0,0,8.3,1.2,8.3,0s0-109.5,0-109.5l53.8-53.8v65h5.6
		v165.8h14.7V294h4.7V191.5l60.7,60.7v153.1h20.8v-45.7h5.2v-50h3.7V198h57.3v-4.7h21v94.8h3v104.5h25.5V158.2h7.3v-12.8h99v8.7h16
		v107.3h7.6v123h15.7v-82.5l59.7-59.7v148.7h10.8v-88.3l25.6,25.6v70.4H728v-47.4h16v33.1h7.5V182.5l32.6,32.6v61.2h6.8v116.2h7.8
		v-63.8l15.4,15.4v17.1l2.5,2.5v41.7h17.5V226.5l21.2-21.2v135.9h5.7v64.3h26.5v-40.9h8V119.7l52.6-52.6v205.5h5.8v131.6h29.6V109
		l32.3,32.3v150.7h5.1V221l3-1.9v211.2H0L0,219.1z"/>
</g>
<g id="_x33_">
	<polygon fill="#2C2D2E" points="0,272.3 11.3,272.3 11.3,269 15,269 15,373.3 18.5,373.3 18.5,367 21.9,367 21.9,370.8 29.8,370.8 
		29.8,312.9 35.6,312.9 35.6,317 56,317 61.6,322.6 61.6,339.3 64.3,339.3 64.3,365.5 66.8,365.5 66.8,218.8 71.8,218.8 71.8,214.8 
		112.8,214.8 112.8,340.3 115.8,340.3 115.8,329 136.6,349.9 136.6,393.7 144,393.7 144,273 164.1,252.9 164.1,347.8 166.3,347.8 
		166.3,271.5 184,289.3 184,383 190,383 190,372 194,372 194,263.8 207.5,263.8 207.5,260.3 245.3,260.3 245.3,280.9 254.8,290.4 
		254.8,396.1 260.8,396.1 260.8,222.5 312.5,222.5 314.2,220.8 327.7,220.8 327.7,246.5 333.4,252.2 333.4,399.7 341.7,399.7 
		341.7,378.7 348.5,378.7 348.5,269.7 377.2,298.3 377.2,334 382,334 382,396.1 393.3,396.1 393.3,209.3 429.3,209.3 429.3,207.3 
		444.3,207.3 444.3,230.5 454.9,241.1 454.9,399.3 467.3,399.3 467.3,282.3 488.8,260.8 488.8,355.4 492.1,355.4 492.1,186.7 
		518.9,213.5 518.9,387 527.7,387 527.7,316.3 534,316.3 534,312.9 590.7,312.9 601.5,323.7 601.5,374.7 609.7,374.7 609.7,244.1 
		658.1,195.7 658.1,211.7 666.3,211.7 666.3,266.6 671.8,266.6 671.8,287 678,293.3 678,364.6 704.4,364.6 704.4,232.3 756.3,232.3 
		756.3,228.3 780.7,228.3 780.7,292.1 786,297.4 786,376.3 796,376.3 796,312.3 801.5,312.3 801.5,262.2 872.7,262.2 872.7,388.5 
		878.7,388.5 878.7,364.6 890.8,364.6 890.8,341.8 895.6,341.8 910,341.8 910,325.6 950,325.6 950,380.5 963.3,380.5 963.3,189.5 
		1006.3,189.5 1006.3,355 1015.1,355 1015.1,257.7 1024,272.3 1024,424.4 0,424.4 	"/>
</g>
<g id="_x32_">
	<polygon fill="#515151" points="398,262 390.2,272.7 377.5,276.3 371.7,291 349.7,317.3 344.5,330 323.9,341.5 319,360 
		308.3,369.3 311.1,382 268,441.4 218.7,432 312,168 320.7,177.5 317,184 325.3,196.5 325.3,203.5 335.3,206.5 352.3,225 
		367.3,235.5 377.8,244.5 385.5,256 391.7,255.1 	"/>
	<path fill="#2C2D2E" d="M274.5,351.4l-8.7-3.6h-6.8l-2.2,10c0,0-3.9,7.7-4.1,7.9c-0.2,0.3-3.1,8.6-3.1,8.6l5.6,3.5l17,1.3l8.4,1.9
		l4-4.3c0,0,1.1-9.5,1.3-9.7s5.1-6.3,5.1-6.3l-2.8-5.8l-9.1-1.3L274.5,351.4z"/>
	<polygon fill="#262626" points="312,168 218.7,432 164.7,435.5 179.2,376.9 184,374.5 184,367 189.3,357.8 195,322.3 207.5,293.5 
		207.5,276.5 218.7,245 218.7,231.8 216,228.9 218.7,218 228.1,213 225,217.5 233.5,220.3 240.3,211 249.5,211 258.3,201 270,194.3 
		281.5,191.5 289,185.3 294,185.3 298.8,175 	"/>
	<path fill="#2C2D2E" d="M225.4,372c0,0,7.5-3.4,7.6-3.9s1.1-7.3,0.9-7.6c-0.2-0.4,5-7.3,5-7.3l-0.5-14.2l8.8-10l5.7-19.4l-7.6-3
		l-4.3-5.8h-15.6l-9,12.2l-2.4,12.7l-8.3,9l-3,16.7V362l10.3,3l4.3,6.1L225.4,372z"/>
	<polygon fill="#262626" points="650.7,421.1 638.3,425 610.3,261.6 613.3,260.3 613.3,248.8 607,229.4 607,208 601,190.3 
		601,179.5 597.8,168.8 597.8,156.3 591.8,137.5 589.8,124 586.3,122.2 586.3,122.2 585.1,115 587,110.6 590,113 593,110.3 601,97 
		608.5,75 615.3,63.5 619.8,45.3 625.3,36.3 623.7,26.9 628,17 	"/>
	<path fill="#2C2D2E" d="M315.3,219l-8.9-1.9l-4.6,12.8l-7.1,10.6l-1.3,14.4l-5.9,8.3l7.9,7.4l27.1,9.3l16.1,10.3l7.9,1
		c0,0,9.6-20.4,9.9-21.3s2.1-18,2.1-18l-19.6-12l-7.9-13.5L315.3,219z"/>
	<polygon fill="#515151" points="724.7,111 723.1,122.3 718.8,124.8 717.3,135 711,153.5 712.3,183 705.5,205.8 701.8,243.5 
		694,272.8 696.3,283.3 695.3,300.5 696.7,302.8 676.4,441.8 650.7,421.1 628,17 637.3,26 637.3,30.8 640.8,41.5 652.5,48 675.3,70 
		683.8,85 695.3,90.3 709.3,104.8 715.3,110 718.3,108.8 720.1,106.5 	"/>
	<polygon fill="#141414" points="308.3,220.3 291.7,264.5 342.2,286.8 354.8,257.8 	"/>
	<polygon fill="#141414" points="288.3,274 275,311.3 295.5,316.3 307.2,284.7 	"/>
	<polygon fill="#141414" points="302.8,319 313.3,287.5 336.8,299 327.5,325.7 	"/>
	<polygon fill="#141414" points="273.3,317 264.2,341.7 312,352.3 319,334 	"/>
	<polygon fill="#2C2D2E" points="267.3,212 250,214.9 245.6,225.8 236.5,244.4 240.1,252.8 257.9,258.6 269.5,263.8 277.5,253 
		279,241.1 289,224.9 287.5,214.4 289,206.9 275.9,206.1 	"/>
	<polygon fill="#141414" points="261.8,349.7 252.8,373.5 280.7,377 287.3,358.5 	"/>
	<polygon fill="#141414" points="270.7,256 285.2,211.2 252.8,219.1 242.3,243 	"/>
	<polygon fill="#141414" points="250.7,303.2 264.2,266 236.7,266.8 228.5,285.7 	"/>
	<polygon fill="#141414" points="247.2,311.7 237.6,334 220.7,318.2 226,306.6 	"/>
	<polygon fill="#141414" points="236.7,343.8 227.8,367 205.7,352.3 211.3,336.8 	"/>
	<polygon fill="#434343" points="242.3,243 252.8,219.1 285.2,211.2 283.6,216.1 253.8,222.5 245.3,244.4 	"/>
	<polygon fill="#434343" points="228.5,285.7 236.7,266.8 264.2,266 263.1,268.9 237.6,269.4 230,286.8 	"/>
	<polygon fill="#434343" points="220.7,318.2 226,306.6 247.2,311.7 246.1,314.2 226.7,308.7 221.9,319.3 	"/>
	<polygon fill="#434343" points="205.7,352.3 211.3,336.8 236.7,343.8 235.7,346.3 212.2,339.1 206.9,353.2 	"/>
	<polygon fill="#434343" points="261.8,349.7 287.3,358.5 280.7,377 277.9,376.7 283.8,359.8 260.8,352.3 	"/>
	<polygon fill="#434343" points="312,352.3 319,334 273.3,317 272.3,319.7 315.4,335.6 309.5,351.8 	"/>
	<polygon fill="#434343" points="313.3,287.5 336.8,299 327.5,325.7 325.1,325 334.2,300.3 312.5,289.9 	"/>
	<polygon fill="#434343" points="295.5,316.3 307.2,284.7 288.3,274 287.5,276.4 304.7,285.7 293.2,315.8 	"/>
	<polygon fill="#434343" points="342.2,286.8 354.8,257.8 308.3,220.3 307.2,223.5 352,258.5 340.4,286 	"/>
	<polygon fill="#2C2D2E" points="300.8,355.4 299.8,358.6 307.6,359.6 307.9,357.9 	"/>
	<polygon fill="#2C2D2E" points="315,280.9 313.8,283.8 324.7,288.1 325.4,286.8 	"/>
	<polygon fill="#2C2D2E" points="312,206.1 310,210.1 324.8,219.1 325.5,217.1 	"/>
	<polygon fill="#2C2D2E" points="290,195.6 289,200.1 274.1,203.3 274.1,200.3 	"/>
	<polygon fill="#2C2D2E" points="233.9,255.3 233,260.3 222.1,259.4 222.1,257.8 	"/>
	<polygon fill="#2C2D2E" points="230.9,261.3 230.4,263.8 223.6,263.1 224.4,261.3 	"/>
	<polygon fill="#2C2D2E" points="223.6,294 222.1,299.1 213.3,295.2 213.9,294 	"/>
	<polygon fill="#2C2D2E" points="220.1,300.8 213.9,299.1 213.3,299.9 218.7,302.6 	"/>
	<polygon fill="#2C2D2E" points="319,326.5 317.9,329.8 325.4,331.9 326,330 	"/>
	<polygon fill="#2C2D2E" points="322.3,332.3 321.9,333.6 326.8,334.7 326.8,334 	"/>
	<g>
		<path fill="#2C2D2E" d="M639.7,285.5c-1.7,0.5-10,4.6-10,4.6l-8.3,0.6c0,0-3.2-2.1-3.5-2.3c-0.3-0.3-2.3-8.9-2.3-8.9l0.3-7.6
			l-0.4-5.1l6.2-12.6c0,0,6.8-4.7,7.1-4.7s7.7,1.8,7.9,2.2c0.3,0.3,3.1,5.1,3.1,5.1s-0.4,10.1-0.4,11.5s1.1,9.1,1.2,10.4
			C640.5,280,639.7,285.5,639.7,285.5z"/>
		<path fill="#2C2D2E" d="M673.5,259.4c0,0-9.6-1.1-10-1c-0.4,0.1-3,7-2.9,8.6c0.1,1.6,2.1,8.8,2.1,8.8l12.7,9.6l7.8,1.6l3.9-6.8
			l-1.9-14.7l-6.9-7.3L673.5,259.4z"/>
		<polygon fill="#2C2D2E" points="661.9,215.9 657.9,226.8 651.9,228.9 641.8,226.4 641.8,214.4 643.5,209.4 654.4,209.5 		"/>
		<path fill="#2C2D2E" d="M630.3,165.5c0.3,0,3.3,3.2,3.7,5.6c0.3,2.4,0.3,6.3,0.4,9.1s-0.2,3.9,0,6.8s0,8.2,0,8.2s0.8,4.4-1.1,5.7
			c-1.9,1.3-6.1,2.5-6.1,2.5s-5.1,1.6-8,2.4c-2.9,0.8-4.6,1.4-5.4,1.4s-2.2-0.3-2.2-0.3s-1,0-1.8-1s-1.1-0.2-1.7-3.1
			c-0.6-2.9-1.3-7.1-1.3-7.1l-1.2-9.1l-0.3-9.4c0,0-0.6-3.9,3.8-6.8c4.4-2.9,10.6-4,10.6-4l7.3-1H630.3z"/>
		<path fill="#2C2D2E" d="M690.6,148.3c-0.5-0.8-10.8-6.3-12.7-6.3c-1.9,0-5.8-2.3-6.7,0.3s-2.5,4.2-1.3,8.6
			c1.3,4.4,2.1,7.3,2.1,7.3s-4.6,1.2-3.3,2.2s3,3.5,3,3.5l-4.1,3.6c0,0-1.2,7,0,8.3c1.2,1.3,22.9,11.3,22.9,11.3s3.3,2,4.4,2.3
			c1.2,0.3,3.4-0.7,4.7-1.1c1.3-0.4,2.2-2.7,2.2-2.7s-1-6.3-0.7-9.5c0.3-3.2,0.4-3.7,1.4-5.7s2.8-0.4,1.2-6.1
			c-1.7-5.7-3.6-9.6-3.6-9.6l-7.8-6.1L690.6,148.3z"/>
		<path fill="#2C2D2E" d="M653.2,64.5l-1.4,16c0,0,2.3,7.3,2.8,10s1.1,5,3.3,8.1s3.8,5.1,5.1,6.3s5,3.6,10.5,5.3s10,3.6,11.8,3.4
			s4.4,0.3,5-5.2c0.5-5.5-0.6-11.9-0.6-11.9S686.4,94,680,90s-16.6-13.8-16.6-13.8s-1.8-5.1-3.1-6.6S653.2,64.5,653.2,64.5z"/>
	</g>
	<polygon fill="#141414" points="637.5,62.8 640.2,102 668,119.7 669.7,91.3 	"/>
	<path fill="#141414" d="M673.3,122.7c1-9.2,2-18.4,3-27.7c8.5,8.2,17,16.4,25.5,24.7l-2,17L673.3,122.7z"/>
	<polygon fill="#141414" points="640,123.5 642,157.5 665.3,172.2 666.3,143.7 	"/>
	<polygon fill="#141414" points="673.3,175 674.7,145.3 699.7,165.2 698.3,185.7 	"/>
	<polygon fill="#141414" points="641.8,170.5 641.8,200.2 690.8,221 693.5,198.7 	"/>
	<polygon fill="#141414" points="644.3,213.8 644.3,241.3 670,254.2 670,225.7 	"/>
	<polygon fill="#141414" points="676.4,228.3 675.3,256 690.8,262.2 690.8,238 	"/>
	<path fill="#2C2D2E" d="M655.8,301.8l-6-3.5l-1.4,1.7l-0.7,4.6l-0.7,10.5l0.8,7.9c0,0,0.1,6.1-0.2,6.9c-0.3,0.8,1.2,5.9,1.2,5.9
		l2.5,5c0,0,2.9,3.4,7.5,4.6s9,2.8,9,2.8l10.2,3.3l4.9,1l4.8-7c0,0,1.4-5.6,1.5-6.5s-0.6-9.6-0.6-9.6s2.5-5,2.5-5.4
		s-1.8-6.9-1.8-6.9l0.8-7.3l-13.8-5.9c0,0-7.2-0.1-8.4,0.1c-1.3,0.3-5.3-3.5-5.3-3.5L655.8,301.8z"/>
	<polygon fill="#141414" points="647.8,256 647.8,285.8 675.3,296.7 677.5,268.2 	"/>
	<polygon fill="#141414" points="648.8,301.8 650.7,337.7 684,349.3 687,315.3 	"/>
	<path fill="#141414" d="M629.1,99.1c-0.1-0.6-2.6-37.5-2.6-37.5l-22.4,32.6l1.3,18.4L629.1,99.1z"/>
	<polygon fill="#141414" points="624.4,123.5 626,154.6 601.3,162.9 599.9,139.1 	"/>
	<polygon fill="#141414" points="630.9,169.3 632.4,198.9 610.8,204.1 608.5,182.8 	"/>
	<polygon fill="#141414" points="633.1,212.9 634.4,240.4 614.9,244.1 612.5,225.4 	"/>
	<polygon fill="#141414" points="635.8,255 637.5,284 619,286.4 617.9,263 	"/>
	<polygon fill="#141414" points="639.6,301.8 641,335 626.9,337.9 623.4,309.5 	"/>
	<polygon fill="#141414" points="643,345.5 644.3,372.1 632.8,374.7 629.4,352.9 	"/>
	<polygon fill="#434343" points="626.5,61.6 604.1,94.3 605.4,112.6 608.1,111.1 606.8,94.3 626.7,65.2 	"/>
	<polygon fill="#434343" points="601.3,162.9 599.9,139.1 624.4,123.5 624.6,127.3 602,140.3 602.9,162.3 	"/>
	<polygon fill="#434343" points="610.8,204.1 608.5,182.8 630.9,169.3 631.1,173.7 610.8,184 612.5,203.7 	"/>
	<polygon fill="#434343" points="614.9,244.1 612.5,225.4 633.1,212.9 633.3,215.9 614.3,226.3 616.7,243.8 	"/>
	<path fill="#434343" d="M635.8,255l-17.8,8l1.1,23.4c0,0,1.6-0.2,1.6-0.2s-1.2-22.4-1.2-22.4l16.4-6.9L635.8,255z"/>
	<polygon fill="#434343" points="626.9,337.9 623.4,309.5 639.6,301.8 639.7,303.6 624.7,310.2 628,337.6 	"/>
	<polygon fill="#434343" points="632.8,374.7 629.4,352.9 643,345.5 643,347.1 630.6,353.5 633.8,374.4 	"/>
	<polygon fill="#434343" points="648.8,301.8 687,315.3 684,349.3 682.4,348.8 685.4,316.1 648.9,303.5 	"/>
	<polygon fill="#434343" points="647.8,256 677.5,268.2 675.3,296.7 673.4,295.9 675.8,269.1 647.8,257.8 	"/>
	<polygon fill="#434343" points="676.4,228.3 690.8,238 690.8,262.2 689.2,261.5 689.4,239 676.3,229.9 	"/>
	<polygon fill="#434343" points="644.3,213.8 670,225.7 670,254.2 668.2,253.2 668.6,226.7 644.3,215.9 	"/>
	<polygon fill="#434343" points="641.8,170.5 693.5,198.7 690.8,221 689,220.2 691.3,199.6 641.8,172.4 	"/>
	<polygon fill="#434343" points="674.7,145.3 699.7,165.2 698.3,185.7 696.7,185 697.8,166 674.6,147.8 	"/>
	<polygon fill="#434343" points="640,123.5 666.3,143.7 665.3,172.2 663.6,171.1 664.7,144.6 640.2,126.3 	"/>
	<polygon fill="#434343" points="637.5,62.8 669.7,91.3 668,119.7 665.8,118.3 667.4,92 637.8,66.7 	"/>
	<polygon fill="#434343" points="676.4,95 701.8,119.7 699.8,136.7 698.2,135.8 700.3,120.3 676.1,97.6 	"/>
	<polygon fill="#2C2D2E" points="654.6,352.5 654.6,354.4 660.1,356.2 660.1,355.3 	"/>
	<polygon fill="#2C2D2E" points="669.1,357.8 668.7,359.5 674.5,361.3 674.8,360.6 	"/>
	<polygon fill="#2C2D2E" points="660.5,361.3 660.1,362.6 666.4,364.6 666.4,364 	"/>
	<polygon fill="#2C2D2E" points="664.2,351.1 664.2,352.3 670.6,354.3 670.6,353.7 	"/>
	<polygon fill="#2C2D2E" points="652.8,368.1 652.8,369.4 659.6,370.9 659.6,370.4 	"/>
	<polygon fill="#2C2D2E" points="640.7,338.3 641,339.9 636.6,341.1 636.6,340.2 	"/>
	<polygon fill="#2C2D2E" points="639.1,341.1 639.1,341.9 636.8,342.5 636.8,342 	"/>
	<polygon fill="#2C2D2E" points="630.2,339.5 630.2,340.5 627.7,340.8 627.7,340.3 	"/>
	<polygon fill="#2C2D2E" points="630.2,341.8 630.2,342.5 628.9,342.5 628.9,342.1 	"/>
	<polygon fill="#2C2D2E" points="680.3,296.7 680.3,300.4 688.8,302.5 688.8,299.6 	"/>
	<polygon fill="#2C2D2E" points="681,293.8 681,295.4 685.6,297 685.6,295.4 	"/>
	<polygon fill="#2C2D2E" points="635.9,292.1 635.9,294.2 628.9,295.4 628.9,294.6 	"/>
	<polygon fill="#2C2D2E" points="635.1,295.8 630.6,297 630.6,298.4 635.4,298.4 	"/>
	<polygon fill="#2C2D2E" points="649.8,247.4 649.8,250.5 659.3,255 659.3,253.1 	"/>
	<polygon fill="#2C2D2E" points="650.2,251.8 650.2,254.2 657.2,256.8 657.2,255.3 	"/>
	<polygon fill="#2C2D2E" points="632.4,244.1 632.4,246.8 624,248.7 624,247.4 	"/>
	<path fill="#2C2D2E" d="M673.3,217.9v3.1l12.5,5.5c0,0,0-1.7-0.4-2.1C685.1,224,673.3,217.9,673.3,217.9z"/>
	<polygon fill="#2C2D2E" points="677.5,224.2 677.5,225.8 683.9,227.9 683.9,226.5 	"/>
	<polygon fill="#2C2D2E" points="630.8,205.1 630.8,207.2 622.9,209.1 622.9,207.8 	"/>
	<polygon fill="#2C2D2E" points="652.7,169.7 652.7,172.2 661.3,175.1 661.3,174.3 	"/>
	<polygon fill="#2C2D2E" points="625.6,158.2 626,161 617.5,162.9 617.5,161.3 	"/>
	<polygon fill="#2C2D2E" points="667.7,126.5 667.7,130.8 680.3,135.6 680.3,134.2 	"/>
	<polygon fill="#2C2D2E" points="669.3,123.5 669.3,126.1 674.9,129.4 674.9,128.3 	"/>
</g>
<g id="_x31_">
	<rect y="412.1" fill="#424344" width="1024" height="99.9"/>
	<polygon fill="#231F20" points="0,402.7 17.3,381.7 28.7,404.7 38.3,391.7 46,404.7 60.7,385 73,407 82.3,394.3 87.7,403 
		108.3,372 124.3,405 129.3,399.7 133.7,404 144,385.3 154.7,407 164.7,393.7 172.3,407 193.7,378.7 205.7,405 211.3,394.3 
		217.3,401 238,372 249.3,404.3 256.3,397 260,404.7 271.7,382.7 286.7,407 294.3,399.3 298,405.3 312,377 326,405.7 332,393.7 
		339,405.7 349.7,381 363.7,407 371.7,389.5 383,407 404.3,367 424.7,407 431.3,396.7 438.3,407 451.7,378 466.7,407 482.3,387 
		500,407 522.3,367 540.7,407 560.7,380.7 572,407 581.3,394.7 588.7,407 609.7,374.7 628,407 638.3,389.7 647.7,407 667.3,379.5 
		681.3,407 689.3,393.3 695.8,407 714.3,384.3 735,405.8 749.8,390 762.3,407 768.3,398.5 773.3,407 792.5,375 811,407 818.8,392.5 
		826.3,407 832.3,400.3 836.8,407 858.5,380.5 877.3,407 886,393.3 895.3,407 907,387 919.5,407 925.8,397.3 932,407 952,375.3 
		966.3,407 981.3,388.5 994,407 1006.3,387 1024,405.2 1024,412.7 0,412.7 	"/>
	<path fill="#58595B" d="M17.3,381.7l11.3,23l-2.6,5.3l-3.9,1.3l-4.4-5.4l2.2-4.9l-4.9-5.7c0,0,0.4-5,0.5-5.3
		C15.6,389.6,17.3,381.7,17.3,381.7z"/>
	<path fill="#58595B" d="M38.3,391.7l7.7,13l0.5,3l-1.1,2.2l-0.1,1.4l-2.6-2.4l0.1-3.1l-2.4-2.9l-0.1-3c0,0-1.7-1.2-1.7-1.6
		S38.3,391.7,38.3,391.7z"/>
	<path fill="#58595B" d="M60.7,385L73,407l-0.3,2l-1,1.9l-2.8-2l0.1-3c0,0-3.3-1.9-3.5-2.1s-0.7-5.4-0.7-5.4l-3.4-3.9l0.4-3.6
		L60.7,385z"/>
	<polygon fill="#58595B" points="82.3,394.3 87.7,403 88.8,406.3 88.1,408.8 88.8,410.9 84.2,409.4 85.1,405.9 83.1,402.9 
		83.3,400.4 	"/>
	<path fill="#58595B" d="M108.3,372l16,33l0.5,3.2l-0.8,1.8l0.4,0.9h-3.3l-0.4-3.9l-5.4-3l-0.3-6l-4.3-3.6l-0.1-6.4
		c0,0-3.9-3.4-3.9-3.8s1.4-4.1,1.4-4.1L108.3,372z"/>
	<polygon fill="#58595B" points="129.3,399.7 133.7,404 134.1,407.1 133.4,409.1 134.1,410.9 131.2,409.3 132,405.3 130.3,404.5 
		129.9,402.1 	"/>
	<polygon fill="#58595B" points="144,385.3 154.7,407 153.1,409.8 152.1,410.9 150.6,406.9 148.9,406.9 148.8,402.8 146.3,400.2 
		146.6,397.7 145.3,395.1 145.3,391.1 	"/>
	<path fill="#58595B" d="M164.7,393.7l7.7,13.3l-2.2,1.9l0.7,1.1l-2.3,0.5c0,0-2.1-1.1-2.1-1.3s1.6-3.9,1.6-3.9l-2.5-2.8l-0.1-2.8
		L164.7,393.7z"/>
	<path fill="#58595B" d="M193.7,378.7l12,26.3l-0.4,2.7l-3.3,2.5l-3.3-0.4l1.3-3l-3.6-2.4l3.3-4.6l-5.2-3.3l0.3-7.1
		c0,0-2.2-2.4-2.2-2.9S193.7,378.7,193.7,378.7z"/>
	<path fill="#58595B" d="M211.3,394.3l6,6.7l1.4,3.9l-1,3.2l0.6,2.1c0,0-2.4-1.7-2.4-1.9s0.3-3,0.3-3l-2.5-2.4l-0.1-2.4l-2.1-1.6
		L211.3,394.3z"/>
	<polygon fill="#58595B" points="238,372 249.3,404.3 248.9,408.1 249.8,409.6 246.3,409.1 245.5,405.5 240.3,402.3 241.9,397.2 
		237.6,392.4 240.1,386.3 237.6,380.4 	"/>
	<polygon fill="#58595B" points="256.3,397 260,404.7 260.8,407.4 260.4,409.1 260.8,410.8 258.9,411.3 258.6,408.3 255.9,407.3 
		256.9,402.3 255.6,401.2 	"/>
	<polygon fill="#58595B" points="271.7,382.7 286.7,407 284.8,410 282.5,410.9 281.7,406.9 276.4,404.8 277.3,400.8 273.8,396.1 
		274.6,392.7 272.8,389.3 273.3,387.5 	"/>
	<polygon fill="#58595B" points="294.3,399.3 298,405.3 298,408 298.9,409.8 297.1,411.3 295.1,408.7 295.1,406.2 293.8,404.1 
		294.9,401.6 	"/>
	<polygon fill="#58595B" points="312,377 326,405.7 326,408.8 323.9,410.5 323.2,408.5 319.9,408.3 320.8,401.6 315.6,397.9 
		315.9,393.8 312.4,389.3 313.8,384.8 	"/>
	<polygon fill="#58595B" points="332,393.7 339,405.7 339,408.7 338.4,410.5 336.3,410.9 336.6,408.9 337,406.6 334.8,404.9 
		334.3,401.8 332.7,399.9 332.6,397.9 	"/>
	<path fill="#58595B" d="M349.7,381l14,26v3.1l-3.5,1.1l-0.4-3.9l-3.7-2.7l-0.5-5.3c0,0-4.9-3.8-4.9-4.1s1.4-4.4,1.4-4.4l-1.6-1
		L349.7,381z"/>
	<path fill="#58595B" d="M371.7,389.5L383,407l0.4,3l-2.4,0.9l-1.8-4.9l-4.4-1.2l0.1-6.1c0,0-3.4-2.4-3.2-2.6
		C371.8,395.9,371.7,389.5,371.7,389.5z"/>
	<polygon fill="#58595B" points="404.3,367 424.7,407 425.3,409.5 424.4,410.5 421.7,407.6 412.6,405.2 407.9,396.9 409.1,391.8 
		405.6,384.6 407.3,379.5 404.3,374 	"/>
	<polygon fill="#58595B" points="431.3,396.7 438.3,407 439,409.1 438,410.5 438.1,411.3 436,410.1 436.9,406.4 431,403 
		431.4,399.8 	"/>
	<polygon fill="#58595B" points="451.7,378 466.7,407 467.3,409.9 466.4,410.5 461.4,411.3 461.5,408.2 457.8,404.7 457.8,396.7 
		455.8,390.8 452.6,384.9 	"/>
	<polygon fill="#58595B" points="482.3,387 500,407 500.9,409.7 499.4,410.9 490.9,410.2 489.3,406.3 490.1,399.5 486.1,395.2 
		480.8,393.7 	"/>
	<polygon fill="#58595B" points="522.3,367 540.7,407 539.9,411.2 538.4,407.4 534,407.1 534,397.1 526.4,388.8 525,380.4 
		524.8,377 523.4,375.3 	"/>
	<polygon fill="#58595B" points="560.7,380.7 572,407 570.9,411.2 569.8,407.6 566.3,405.6 566.3,400.4 564.6,394.4 561,391.1 
		561.3,387.1 560.1,384.3 	"/>
	<path fill="#58595B" d="M581.3,394.7l7.3,12.3l0.8,4.2c0,0-1.6,0.4-1.6,0s0.1-2.4,0.1-2.4l-3.4-1.8v-2.9l-3.7-3l0.9-2.8
		L581.3,394.7z"/>
	<path fill="#58595B" d="M609.7,374.7L628,407l-2.1,3.6l-0.1-2.8l-6.4-1.1l-2.8-9.2l-4.2-6.5l0.3-7.1c0,0-3.6-3.1-3.6-3.6
		S609.7,374.7,609.7,374.7z"/>
	<path fill="#58595B" d="M638.3,389.7l9.3,17.3l-0.3,2.9l-1.2,1.3l-0.3-2.4l-2.4-0.7l-1.2-6.4l-2.1-4c0,0-1.8-1.3-2-1.9
		C638.2,395.2,638.3,389.7,638.3,389.7z"/>
	<polygon fill="#58595B" points="667.3,379.5 681.3,407 682,410.3 680.8,411.2 680.2,409.3 674.6,408.2 673.1,402.9 669.4,397 
		670.3,391.4 667.3,385.1 666.6,382.1 	"/>
	<polygon fill="#58595B" points="689.3,393.3 695.8,407 695.2,411.2 694.6,409.1 692.5,408.4 690.9,401.3 688.6,400.1 689.3,396.7 	
		"/>
	<path fill="#58595B" d="M714.3,384.3l20.8,21.5l1.3,4.2l-1.8,1.6l0.1-1.9l-2.4-5.2l-9.6,0.6l-1.6-3.7l-0.3-5.3l-2.9-4.4
		c0,0-4.8-2.3-4.8-2.6S714.3,384.3,714.3,384.3z"/>
	<polygon fill="#58595B" points="749.8,390 762.3,407 762.8,409.9 761.3,411.5 761.5,409.8 757.9,403.1 751.5,401.6 753.7,400.4 
		752.6,396.5 750.4,394.5 	"/>
	<polygon fill="#58595B" points="768.3,398.5 773.3,407 774.6,409.1 774.1,411.5 773.7,409.3 772,406.6 767.7,407.3 770.8,405.8 
		769.1,402.7 766.8,403.9 768.4,401.4 	"/>
	<polygon fill="#58595B" points="792.5,375 811,407 812.1,409.8 810.6,411.5 810.5,409.8 806.9,403.1 795.4,405 805.6,402 
		800.2,392.5 794.4,395.1 790.8,399.4 794.1,393.3 798.1,390 792.6,383.2 	"/>
	<polygon fill="#58595B" points="818.8,392.5 826.3,407 827.5,409.1 825.5,411.5 824.9,409.1 822,405.4 817.4,405.4 820.6,401.4 
		822,402.7 819.9,397.2 818.3,397.1 	"/>
	<polygon fill="#58595B" points="832.3,400.3 836.8,407 837.7,409.3 836.8,411.5 836.6,409.1 834.1,407.4 832.8,405.2 830.5,405.4 
		832.7,403.6 	"/>
	<polygon fill="#58595B" points="858.5,380.5 877.3,407 877.3,409.2 874.1,411 875.2,409.3 869.9,403.2 860,400.3 859.5,393.2 
		861.4,390.8 859.1,386.8 	"/>
	<polygon fill="#58595B" points="886,393.3 895.3,407 895.6,409.3 893.1,411 893.4,409.5 891.3,405.8 887.6,404.5 888.6,402.1 
		888.3,398.6 886,397 	"/>
	<polygon fill="#58595B" points="907,387 919.5,407 919.5,410.1 916.9,411.5 917.5,409.7 913.9,402.8 907.6,402.7 910.3,398.4 
		907.8,393.3 907.8,390.7 	"/>
	<polygon fill="#58595B" points="925.8,397.3 932,407 932.9,409.8 931.4,411.1 931.4,409.9 929.1,406.5 929,404.9 924.8,403.7 
		926.2,401.3 	"/>
	<polygon fill="#58595B" points="952,375.3 966.3,407 965.5,409.3 961.1,411.1 963,408.8 960.6,399.3 953.6,397.3 955.1,392.3 
		953.1,387 954.2,384.1 	"/>
	<path fill="#58595B" d="M981.3,388.5L994,407l-1.3,2.9l-3.7,1.2l1.9-3.2l-7.4-3.4l-0.2-4.8c0,0-2.7-2.6-2.6-2.9s1.4-3.3,1.4-3.3
		L981.3,388.5z"/>
	<path fill="#58595B" d="M1006.3,387l17.8,18.2l-2,4.5l-5.2,1.1l2.4-2.3l-1.2-3.6l-0.1-2.4l-7.6-0.6l1.6-4.3c0,0-3.6-2.1-3.6-2.5
		s-0.2-2.9-0.2-2.9L1006.3,387z"/>
	<path fill="#323233" d="M6.8,499.5l82.1-8.3l80.9,4.1l98.3-8.6l-97.8,3.5c0,0-79.6-3-81.4-3.5S6.8,499.5,6.8,499.5z"/>
	<polygon fill="#323233" points="26.5,434 87.3,442.5 152.3,439.8 237.6,444.3 152.3,434 86.8,439.1 	"/>
	<polygon fill="#323233" points="276.5,467 368.8,463.3 468.8,470.8 507.8,463.3 467.3,467 368,459.5 	"/>
	<polygon fill="#323233" points="464,440.5 568.5,435.8 700.5,447.3 744,437.3 697.3,443.8 568,431.5 	"/>
	<polygon fill="#323233" points="585.1,496 741.5,488.5 916,496 1003.5,478 913.3,491.5 741.3,483.8 	"/>
	<polygon fill="#323233" points="786.5,442 924.8,436.5 1013.8,445.8 922.5,441.1 	"/>
	<polygon fill="#323233" points="324.3,428.3 392.1,424.3 423,428.3 392.1,420.3 	"/>
	<polygon fill="#323233" points="332,496.5 414.8,502.5 464,497.8 413.8,507.3 	"/>
	<g>
		<path fill="#19191A" d="M46.5,502c-0.2,0.1-2.7,2.1-2.3,3c0.9,1.9,14-1.2,13.9-3C58,500.7,51,498.6,46.5,502z"/>
		<path fill="#323233" d="M58.1,502c-1.1,0.6-3.5,1.5-6.7,1.3c-2.2-0.1-3.9-0.8-4.9-1.3c0.2-2.4,1.7-4.4,3.8-5.1
			c0.5-0.2,1.1-0.3,1.8-0.4c2.9-0.1,5.5,2,6,4.9C58.1,501.6,58.1,501.8,58.1,502z"/>
		<path fill="#848485" d="M58,501.4c-0.5,0.1-1,0.2-1.5,0.2c-3,0-5.5-2-6.3-4.7c0.5-0.2,1.1-0.3,1.8-0.4
			C55,496.4,57.5,498.5,58,501.4z"/>
	</g>
	<g>
		<path fill="#19191A" d="M239.9,497c-0.2,0.1-2.7,2.1-2.3,3c0.9,1.9,14-1.2,13.9-3C251.4,495.7,244.4,493.6,239.9,497z"/>
		<path fill="#323233" d="M251.5,497c-1.1,0.6-3.5,1.5-6.7,1.3c-2.2-0.1-3.9-0.8-4.9-1.3c0.2-2.4,1.7-4.4,3.8-5.1
			c0.5-0.2,1.1-0.3,1.8-0.4c2.9-0.1,5.5,2,6,4.9C251.4,496.6,251.5,496.8,251.5,497z"/>
		<path fill="#848485" d="M251.4,496.4c-0.5,0.1-1,0.2-1.5,0.2c-3,0-5.5-2-6.3-4.7c0.5-0.2,1.1-0.3,1.8-0.4
			C248.3,491.3,250.9,493.5,251.4,496.4z"/>
	</g>
	<g>
		<path fill="#19191A" d="M95.1,502.5c-0.2,0.1-2.7,2.1-2.3,3c0.9,1.9,14-1.2,13.9-3C106.6,501.2,99.6,499.1,95.1,502.5z"/>
		<path fill="#323233" d="M106.7,502.5c-1.1,0.6-3.5,1.5-6.7,1.3c-2.2-0.1-3.9-0.8-4.9-1.3c0.2-2.4,1.7-4.4,3.8-5.1
			c0.5-0.2,1.1-0.3,1.8-0.4c2.9-0.1,5.5,2,6,4.9C106.6,502.1,106.7,502.3,106.7,502.5z"/>
		<path fill="#848485" d="M106.6,501.9c-0.5,0.1-1,0.2-1.5,0.2c-3,0-5.5-2-6.3-4.7c0.5-0.2,1.1-0.3,1.8-0.4
			C103.5,496.9,106.1,499,106.6,501.9z"/>
	</g>
	<g>
		<path fill="#19191A" d="M337.7,504.3c-0.2,0.1-2.7,2.1-2.3,3c0.9,1.9,14-1.2,13.9-3C349.3,503,342.2,500.9,337.7,504.3z"/>
		<path fill="#323233" d="M349.4,504.3c-1.1,0.6-3.5,1.5-6.7,1.3c-2.2-0.1-3.9-0.8-4.9-1.3c0.2-2.4,1.7-4.4,3.8-5.1
			c0.5-0.2,1.1-0.3,1.8-0.4c2.9-0.1,5.5,2,6,4.9C349.3,503.9,349.3,504.1,349.4,504.3z"/>
		<path fill="#848485" d="M349.3,503.7c-0.5,0.1-1,0.2-1.5,0.2c-3,0-5.5-2-6.3-4.7c0.5-0.2,1.1-0.3,1.8-0.4
			C346.2,498.7,348.8,500.8,349.3,503.7z"/>
	</g>
	<g>
		<path fill="#19191A" d="M251,432.5c-0.2,0.1-2.7,2.1-2.3,3c0.9,1.9,14-1.2,13.9-3C262.5,431.2,255.5,429.1,251,432.5z"/>
		<path fill="#323233" d="M262.6,432.5c-1.1,0.6-3.5,1.5-6.7,1.3c-2.2-0.1-3.9-0.8-4.9-1.3c0.2-2.4,1.7-4.4,3.8-5.1
			c0.5-0.2,1.1-0.3,1.8-0.4c2.9-0.1,5.5,2,6,4.9C262.5,432.1,262.6,432.3,262.6,432.5z"/>
		<path fill="#848485" d="M262.5,431.9c-0.5,0.1-1,0.2-1.5,0.2c-3,0-5.5-2-6.3-4.7c0.5-0.2,1.1-0.3,1.8-0.4
			C259.4,426.8,262,429,262.5,431.9z"/>
	</g>
	<g>
		<path fill="#19191A" d="M451.8,413.3c-0.3,0.2-5.2,4-4.3,5.8c1.8,3.7,27-2.3,26.7-5.8C474.1,410.8,460.5,406.8,451.8,413.3z"/>
		<path fill="#323233" d="M474.2,413.3c-2.2,1.1-6.8,3-12.9,2.6c-4.2-0.3-7.5-1.6-9.5-2.6c0.3-4.6,3.4-8.4,7.4-9.9
			c1.1-0.4,2.2-0.6,3.4-0.7c5.6-0.2,10.5,3.9,11.5,9.5C474.1,412.5,474.2,412.9,474.2,413.3z"/>
		<path fill="#848485" d="M474.1,412.2c-0.9,0.2-1.9,0.3-2.8,0.3c-5.7,0-10.6-3.9-12-9.1c1.1-0.4,2.2-0.6,3.4-0.7
			C468.1,402.5,473.1,406.6,474.1,412.2z"/>
	</g>
	<g>
		<path fill="#19191A" d="M190.5,503.8c-0.2,0.1-2.7,2.1-2.3,3c0.9,1.9,14-1.2,13.9-3C202,502.5,195,500.4,190.5,503.8z"/>
		<path fill="#323233" d="M202.1,503.8c-1.1,0.6-3.5,1.5-6.7,1.3c-2.2-0.1-3.9-0.8-4.9-1.3c0.2-2.4,1.7-4.4,3.8-5.1
			c0.5-0.2,1.1-0.3,1.8-0.4c2.9-0.1,5.5,2,6,4.9C202,503.4,202.1,503.6,202.1,503.8z"/>
		<path fill="#848485" d="M202,503.2c-0.5,0.1-1,0.2-1.5,0.2c-3,0-5.5-2-6.3-4.7c0.5-0.2,1.1-0.3,1.8-0.4
			C198.9,498.2,201.5,500.3,202,503.2z"/>
	</g>
	<g>
		<path fill="#19191A" d="M526.8,503.1c-0.2,0.1-2.7,2.1-2.3,3c0.9,1.9,14-1.2,13.9-3C538.4,501.8,531.3,499.7,526.8,503.1z"/>
		<path fill="#323233" d="M538.5,503.1c-1.1,0.6-3.5,1.5-6.7,1.3c-2.2-0.1-3.9-0.8-4.9-1.3c0.2-2.4,1.7-4.4,3.8-5.1
			c0.5-0.2,1.1-0.3,1.8-0.4c2.9-0.1,5.5,2,6,4.9C538.4,502.7,538.5,502.9,538.5,503.1z"/>
		<path fill="#848485" d="M538.4,502.5c-0.5,0.1-1,0.2-1.5,0.2c-3,0-5.5-2-6.3-4.7c0.5-0.2,1.1-0.3,1.8-0.4
			C535.3,497.5,537.9,499.6,538.4,502.5z"/>
	</g>
	<g>
		<path fill="#19191A" d="M576.2,418.5c-0.2,0.1-2.7,2.1-2.3,3c0.9,1.9,14-1.2,13.9-3C587.7,417.2,580.6,415.1,576.2,418.5z"/>
		<path fill="#323233" d="M587.8,418.5c-1.1,0.6-3.5,1.5-6.7,1.3c-2.2-0.1-3.9-0.8-4.9-1.3c0.2-2.4,1.7-4.4,3.8-5.1
			c0.5-0.2,1.1-0.3,1.8-0.4c2.9-0.1,5.5,2,6,4.9C587.7,418.1,587.8,418.3,587.8,418.5z"/>
		<path fill="#848485" d="M587.7,417.9c-0.5,0.1-1,0.2-1.5,0.2c-3,0-5.5-2-6.3-4.7c0.5-0.2,1.1-0.3,1.8-0.4
			C584.6,412.9,587.2,415,587.7,417.9z"/>
	</g>
	<g>
		<path fill="#19191A" d="M758.2,502.8c-0.2,0.1-2.7,2.1-2.3,3c0.9,1.9,14-1.2,13.9-3C769.7,501.5,762.6,499.4,758.2,502.8z"/>
		<path fill="#323233" d="M769.8,502.8c-1.1,0.6-3.5,1.5-6.7,1.3c-2.2-0.1-3.9-0.8-4.9-1.3c0.2-2.4,1.7-4.4,3.8-5.1
			c0.5-0.2,1.1-0.3,1.8-0.4c2.9-0.1,5.5,2,6,4.9C769.7,502.4,769.8,502.6,769.8,502.8z"/>
		<path fill="#848485" d="M769.7,502.2c-0.5,0.1-1,0.2-1.5,0.2c-3,0-5.5-2-6.3-4.7c0.5-0.2,1.1-0.3,1.8-0.4
			C766.6,497.2,769.2,499.3,769.7,502.2z"/>
	</g>
	<g>
		<path fill="#19191A" d="M881.3,504c-0.2,0.1-2.7,2.1-2.3,3c0.9,1.9,14-1.2,13.9-3C892.9,502.7,885.8,500.6,881.3,504z"/>
		<path fill="#323233" d="M893,504c-1.1,0.6-3.5,1.5-6.7,1.3c-2.2-0.1-3.9-0.8-4.9-1.3c0.2-2.4,1.7-4.4,3.8-5.1
			c0.5-0.2,1.1-0.3,1.8-0.4c2.9-0.1,5.5,2,6,4.9C892.9,503.6,893,503.8,893,504z"/>
		<path fill="#848485" d="M892.9,503.4c-0.5,0.1-1,0.2-1.5,0.2c-3,0-5.5-2-6.3-4.7c0.5-0.2,1.1-0.3,1.8-0.4
			C889.8,498.4,892.4,500.5,892.9,503.4z"/>
	</g>
	<g>
		<path fill="#19191A" d="M643,504c-0.2,0.1-2.7,2.1-2.3,3c0.9,1.9,14-1.2,13.9-3C654.5,502.7,647.5,500.6,643,504z"/>
		<path fill="#323233" d="M654.6,504c-1.1,0.6-3.5,1.5-6.7,1.3c-2.2-0.1-3.9-0.8-4.9-1.3c0.2-2.4,1.7-4.4,3.8-5.1
			c0.5-0.2,1.1-0.3,1.8-0.4c2.9-0.1,5.5,2,6,4.9C654.6,503.6,654.6,503.8,654.6,504z"/>
		<path fill="#848485" d="M654.6,503.4c-0.5,0.1-1,0.2-1.5,0.2c-3,0-5.5-2-6.3-4.7c0.5-0.2,1.1-0.3,1.8-0.4
			C651.5,498.4,654.1,500.5,654.6,503.4z"/>
	</g>
	<g>
		<path fill="#19191A" d="M982.7,424.8c-0.2,0.1-2.7,2.1-2.3,3c0.9,1.9,14-1.2,13.9-3C994.3,423.5,987.2,421.4,982.7,424.8z"/>
		<path fill="#323233" d="M994.3,424.8c-1.1,0.6-3.5,1.5-6.7,1.3c-2.2-0.1-3.9-0.8-4.9-1.3c0.2-2.4,1.7-4.4,3.8-5.1
			c0.5-0.2,1.1-0.3,1.8-0.4c2.9-0.1,5.5,2,6,4.9C994.3,424.4,994.3,424.6,994.3,424.8z"/>
		<path fill="#848485" d="M994.3,424.2c-0.5,0.1-1,0.2-1.5,0.2c-3,0-5.5-2-6.3-4.7c0.5-0.2,1.1-0.3,1.8-0.4
			C991.2,419.2,993.8,421.3,994.3,424.2z"/>
	</g>
	<g>
		<path fill="#19191A" d="M669.7,418.5c-0.2,0.1-2.7,2.1-2.3,3c0.9,1.9,14-1.2,13.9-3C681.2,417.2,674.1,415.1,669.7,418.5z"/>
		<path fill="#323233" d="M681.3,418.5c-1.1,0.6-3.5,1.5-6.7,1.3c-2.2-0.1-3.9-0.8-4.9-1.3c0.2-2.4,1.7-4.4,3.8-5.1
			c0.5-0.2,1.1-0.3,1.8-0.4c2.9-0.1,5.5,2,6,4.9C681.2,418.1,681.3,418.3,681.3,418.5z"/>
		<path fill="#848485" d="M681.2,417.9c-0.5,0.1-1,0.2-1.5,0.2c-3,0-5.5-2-6.3-4.7c0.5-0.2,1.1-0.3,1.8-0.4
			C678.1,412.9,680.7,415,681.2,417.9z"/>
	</g>
	<g>
		<path fill="#19191A" d="M853.8,417.9c-0.2,0.1-2.7,2.1-2.3,3c0.9,1.9,14-1.2,13.9-3C865.4,416.7,858.3,414.5,853.8,417.9z"/>
		<path fill="#323233" d="M865.5,417.9c-1.1,0.6-3.5,1.5-6.7,1.3c-2.2-0.1-3.9-0.8-4.9-1.3c0.2-2.4,1.7-4.4,3.8-5.1
			c0.5-0.2,1.1-0.3,1.8-0.4c2.9-0.1,5.5,2,6,4.9C865.4,417.5,865.5,417.7,865.5,417.9z"/>
		<path fill="#848485" d="M865.4,417.4c-0.5,0.1-1,0.2-1.5,0.2c-3,0-5.5-2-6.3-4.7c0.5-0.2,1.1-0.3,1.8-0.4
			C862.3,412.3,864.9,414.5,865.4,417.4z"/>
	</g>
	<g>
		<path fill="#19191A" d="M971.9,502.6c-0.2,0.1-2.7,2.1-2.3,3c0.9,1.9,14-1.2,13.9-3C983.5,501.3,976.4,499.2,971.9,502.6z"/>
		<path fill="#323233" d="M983.6,502.6c-1.1,0.6-3.5,1.5-6.7,1.3c-2.2-0.1-3.9-0.8-4.9-1.3c0.2-2.4,1.7-4.4,3.8-5.1
			c0.5-0.2,1.1-0.3,1.8-0.4c2.9-0.1,5.5,2,6,4.9C983.5,502.2,983.5,502.4,983.6,502.6z"/>
		<path fill="#848485" d="M983.5,502c-0.5,0.1-1,0.2-1.5,0.2c-3,0-5.5-2-6.3-4.7c0.5-0.2,1.1-0.3,1.8-0.4
			C980.4,497,983,499.1,983.5,502z"/>
	</g>
	<g>
		<path fill="#19191A" d="M323.9,418.7c-0.2,0.1-2.7,2.1-2.3,3c0.9,1.9,14-1.2,13.9-3C335.4,417.5,328.4,415.3,323.9,418.7z"/>
		<path fill="#323233" d="M335.5,418.7c-1.1,0.6-3.5,1.5-6.7,1.3c-2.2-0.1-3.9-0.8-4.9-1.3c0.2-2.4,1.7-4.4,3.8-5.1
			c0.5-0.2,1.1-0.3,1.8-0.4c2.9-0.1,5.5,2,6,4.9C335.5,418.3,335.5,418.5,335.5,418.7z"/>
		<path fill="#848485" d="M335.4,418.2c-0.5,0.1-1,0.2-1.5,0.2c-3,0-5.5-2-6.3-4.7c0.5-0.2,1.1-0.3,1.8-0.4
			C332.3,413.1,334.9,415.3,335.4,418.2z"/>
	</g>
	<g>
		<path fill="#19191A" d="M475.5,415.5c-0.1,0.1-1.5,1.2-1.3,1.7c0.5,1.1,7.9-0.7,7.8-1.7C482,414.8,478,413.6,475.5,415.5z"/>
		<path fill="#323233" d="M482.1,415.5c-0.6,0.3-2,0.9-3.8,0.7c-1.2-0.1-2.2-0.5-2.8-0.7c0.1-1.3,1-2.5,2.2-2.9
			c0.3-0.1,0.6-0.2,1-0.2c1.6-0.1,3.1,1.1,3.4,2.8C482,415.3,482,415.4,482.1,415.5z"/>
		<path fill="#848485" d="M482,415.2c-0.3,0.1-0.5,0.1-0.8,0.1c-1.7,0-3.1-1.1-3.5-2.7c0.3-0.1,0.6-0.2,1-0.2
			C480.3,412.4,481.7,413.5,482,415.2z"/>
	</g>
	<g>
		<path fill="#19191A" d="M492.1,417.4c-0.1,0.1-1.5,1.2-1.3,1.7c0.5,1.1,7.9-0.7,7.8-1.7C498.6,416.7,494.6,415.5,492.1,417.4z"/>
		<path fill="#323233" d="M498.7,417.4c-0.6,0.3-2,0.9-3.8,0.7c-1.2-0.1-2.2-0.5-2.8-0.7c0.1-1.3,1-2.5,2.2-2.9
			c0.3-0.1,0.6-0.2,1-0.2c1.6-0.1,3.1,1.1,3.4,2.8C498.6,417.2,498.6,417.3,498.7,417.4z"/>
		<path fill="#848485" d="M498.6,417.1c-0.3,0.1-0.5,0.1-0.8,0.1c-1.7,0-3.1-1.1-3.5-2.7c0.3-0.1,0.6-0.2,1-0.2
			C496.9,414.3,498.3,415.5,498.6,417.1z"/>
	</g>
	<g>
		<path fill="#19191A" d="M513.3,505.7c-0.1,0.1-1.5,1.2-1.3,1.7c0.5,1.1,7.9-0.7,7.8-1.7C519.8,505,515.8,503.8,513.3,505.7z"/>
		<path fill="#323233" d="M519.8,505.7c-0.6,0.3-2,0.9-3.8,0.7c-1.2-0.1-2.2-0.5-2.8-0.7c0.1-1.3,1-2.5,2.2-2.9
			c0.3-0.1,0.6-0.2,1-0.2c1.6-0.1,3.1,1.1,3.4,2.8C519.8,505.5,519.8,505.6,519.8,505.7z"/>
		<path fill="#848485" d="M519.8,505.4c-0.3,0.1-0.5,0.1-0.8,0.1c-1.7,0-3.1-1.1-3.5-2.7c0.3-0.1,0.6-0.2,1-0.2
			C518.1,502.6,519.5,503.8,519.8,505.4z"/>
	</g>
	<g>
		<path fill="#19191A" d="M747.1,504.7c-0.1,0.1-1.5,1.2-1.3,1.7c0.5,1.1,7.9-0.7,7.8-1.7C753.6,504,749.7,502.8,747.1,504.7z"/>
		<path fill="#323233" d="M753.7,504.7c-0.6,0.3-2,0.9-3.8,0.7c-1.2-0.1-2.2-0.5-2.8-0.7c0.1-1.3,1-2.5,2.2-2.9
			c0.3-0.1,0.6-0.2,1-0.2c1.6-0.1,3.1,1.1,3.4,2.8C753.6,504.5,753.7,504.6,753.7,504.7z"/>
		<path fill="#848485" d="M753.6,504.4c-0.3,0.1-0.5,0.1-0.8,0.1c-1.7,0-3.1-1.1-3.5-2.7c0.3-0.1,0.6-0.2,1-0.2
			C751.9,501.6,753.4,502.8,753.6,504.4z"/>
	</g>
	<g>
		<path fill="#19191A" d="M167.7,420.7c-0.2,0.1-2.7,2.1-2.3,3c0.9,1.9,14-1.2,13.9-3C179.2,419.4,172.2,417.3,167.7,420.7z"/>
		<path fill="#323233" d="M179.3,420.7c-1.1,0.6-3.5,1.5-6.7,1.3c-2.2-0.1-3.9-0.8-4.9-1.3c0.2-2.4,1.7-4.4,3.8-5.1
			c0.5-0.2,1.1-0.3,1.8-0.4c2.9-0.1,5.5,2,6,4.9C179.3,420.3,179.3,420.5,179.3,420.7z"/>
		<path fill="#848485" d="M179.2,420.1c-0.5,0.1-1,0.2-1.5,0.2c-3,0-5.5-2-6.3-4.7c0.5-0.2,1.1-0.3,1.8-0.4
			C176.1,415.1,178.7,417.2,179.2,420.1z"/>
	</g>
	<g>
		<path fill="#19191A" d="M129.2,444.8c-0.1,0.1-1.7,1.3-1.4,1.9c0.6,1.2,8.6-0.7,8.6-1.9C136.3,444,131.9,442.7,129.2,444.8z"/>
		<path fill="#323233" d="M136.3,444.8c-0.7,0.3-2.2,1-4.1,0.8c-1.4-0.1-2.4-0.5-3-0.8c0.1-1.5,1.1-2.7,2.4-3.2
			c0.3-0.1,0.7-0.2,1.1-0.2c1.8-0.1,3.4,1.2,3.7,3C136.3,444.6,136.3,444.7,136.3,444.8z"/>
		<path fill="#848485" d="M136.3,444.5c-0.3,0.1-0.6,0.1-0.9,0.1c-1.8,0-3.4-1.2-3.9-2.9c0.3-0.1,0.7-0.2,1.1-0.2
			C134.4,441.4,136,442.7,136.3,444.5z"/>
	</g>
	<g>
		<path fill="#19191A" d="M390.8,508c-0.1,0.1-1.7,1.3-1.4,1.9c0.6,1.2,8.6-0.7,8.6-1.9C397.9,507.2,393.6,505.9,390.8,508z"/>
		<path fill="#323233" d="M398,508c-0.7,0.3-2.2,1-4.1,0.8c-1.4-0.1-2.4-0.5-3-0.8c0.1-1.5,1.1-2.7,2.4-3.2c0.3-0.1,0.7-0.2,1.1-0.2
			c1.8-0.1,3.4,1.2,3.7,3C398,507.8,398,507.9,398,508z"/>
		<path fill="#848485" d="M398,507.7c-0.3,0.1-0.6,0.1-0.9,0.1c-1.8,0-3.4-1.2-3.9-2.9c0.3-0.1,0.7-0.2,1.1-0.2
			C396.1,504.6,397.6,505.9,398,507.7z"/>
	</g>
	<g>
		<path fill="#19191A" d="M539.9,507.3c-0.1,0.1-1.7,1.3-1.4,1.9c0.6,1.2,8.6-0.7,8.6-1.9C547,506.5,542.7,505.2,539.9,507.3z"/>
		<path fill="#323233" d="M547.1,507.3c-0.7,0.3-2.2,1-4.1,0.8c-1.4-0.1-2.4-0.5-3-0.8c0.1-1.5,1.1-2.7,2.4-3.2
			c0.3-0.1,0.7-0.2,1.1-0.2c1.8-0.1,3.4,1.2,3.7,3C547,507,547,507.1,547.1,507.3z"/>
		<path fill="#848485" d="M547,506.9c-0.3,0.1-0.6,0.1-0.9,0.1c-1.8,0-3.4-1.2-3.9-2.9c0.3-0.1,0.7-0.2,1.1-0.2
			C545.1,503.8,546.7,505.1,547,506.9z"/>
	</g>
	<g>
		<path fill="#19191A" d="M767.8,507.3c-0.1,0.1-1.7,1.3-1.4,1.9c0.6,1.2,8.6-0.7,8.6-1.9C774.9,506.5,770.6,505.2,767.8,507.3z"/>
		<path fill="#323233" d="M775,507.3c-0.7,0.3-2.2,1-4.1,0.8c-1.4-0.1-2.4-0.5-3-0.8c0.1-1.5,1.1-2.7,2.4-3.2
			c0.3-0.1,0.7-0.2,1.1-0.2c1.8-0.1,3.4,1.2,3.7,3C775,507,775,507.1,775,507.3z"/>
		<path fill="#848485" d="M774.9,506.9c-0.3,0.1-0.6,0.1-0.9,0.1c-1.8,0-3.4-1.2-3.9-2.9c0.3-0.1,0.7-0.2,1.1-0.2
			C773,503.8,774.6,505.1,774.9,506.9z"/>
	</g>
	<g>
		<path fill="#19191A" d="M854.8,424.1c-0.1,0.1-1.7,1.3-1.4,1.9c0.6,1.2,8.6-0.7,8.6-1.9C861.9,423.3,857.6,422,854.8,424.1z"/>
		<path fill="#323233" d="M862,424.1c-0.7,0.3-2.2,1-4.1,0.8c-1.4-0.1-2.4-0.5-3-0.8c0.1-1.5,1.1-2.7,2.4-3.2
			c0.3-0.1,0.7-0.2,1.1-0.2c1.8-0.1,3.4,1.2,3.7,3C861.9,423.9,862,424,862,424.1z"/>
		<path fill="#848485" d="M861.9,423.7c-0.3,0.1-0.6,0.1-0.9,0.1c-1.8,0-3.4-1.2-3.9-2.9c0.3-0.1,0.7-0.2,1.1-0.2
			C860,420.6,861.6,422,861.9,423.7z"/>
	</g>
	<g>
		<path fill="#19191A" d="M862.5,422.7c-0.1,0.1-1.7,1.3-1.4,1.9c0.6,1.2,8.6-0.7,8.6-1.9C869.6,421.9,865.3,420.6,862.5,422.7z"/>
		<path fill="#323233" d="M869.7,422.7c-0.7,0.3-2.2,1-4.1,0.8c-1.4-0.1-2.4-0.5-3-0.8c0.1-1.5,1.1-2.7,2.4-3.2
			c0.3-0.1,0.7-0.2,1.1-0.2c1.8-0.1,3.4,1.2,3.7,3C869.7,422.4,869.7,422.6,869.7,422.7z"/>
		<path fill="#848485" d="M869.6,422.3c-0.3,0.1-0.6,0.1-0.9,0.1c-1.8,0-3.4-1.2-3.9-2.9c0.3-0.1,0.7-0.2,1.1-0.2
			C867.7,419.2,869.3,420.5,869.6,422.3z"/>
	</g>
	<g>
		<path fill="#19191A" d="M977.9,507.6c-0.1,0.1-1.7,1.3-1.4,1.9c0.6,1.2,8.6-0.7,8.6-1.9C985,506.8,980.6,505.5,977.9,507.6z"/>
		<path fill="#323233" d="M985,507.6c-0.7,0.3-2.2,1-4.1,0.8c-1.4-0.1-2.4-0.5-3-0.8c0.1-1.5,1.1-2.7,2.4-3.2
			c0.3-0.1,0.7-0.2,1.1-0.2c1.8-0.1,3.4,1.2,3.7,3C985,507.3,985,507.5,985,507.6z"/>
		<path fill="#848485" d="M985,507.2c-0.3,0.1-0.6,0.1-0.9,0.1c-1.8,0-3.4-1.2-3.9-2.9c0.3-0.1,0.7-0.2,1.1-0.2
			C983.1,504.1,984.7,505.4,985,507.2z"/>
	</g>
	<g>
		<path fill="#19191A" d="M657.3,416.4c-0.1,0.1-1.7,1.3-1.4,1.9c0.6,1.2,8.6-0.7,8.6-1.9C664.4,415.6,660.1,414.3,657.3,416.4z"/>
		<path fill="#323233" d="M664.5,416.4c-0.7,0.3-2.2,1-4.1,0.8c-1.4-0.1-2.4-0.5-3-0.8c0.1-1.5,1.1-2.7,2.4-3.2
			c0.3-0.1,0.7-0.2,1.1-0.2c1.8-0.1,3.4,1.2,3.7,3C664.4,416.1,664.4,416.2,664.5,416.4z"/>
		<path fill="#848485" d="M664.4,416c-0.3,0.1-0.6,0.1-0.9,0.1c-1.8,0-3.4-1.2-3.9-2.9c0.3-0.1,0.7-0.2,1.1-0.2
			C662.5,412.9,664.1,414.2,664.4,416z"/>
	</g>
	<g>
		<path fill="#19191A" d="M689.3,418.1c-0.1,0.1-1.7,1.3-1.4,1.9c0.6,1.2,8.6-0.7,8.6-1.9C696.4,417.3,692.1,416,689.3,418.1z"/>
		<path fill="#323233" d="M696.5,418.1c-0.7,0.3-2.2,1-4.1,0.8c-1.4-0.1-2.4-0.5-3-0.8c0.1-1.5,1.1-2.7,2.4-3.2
			c0.3-0.1,0.7-0.2,1.1-0.2c1.8-0.1,3.4,1.2,3.7,3C696.5,417.9,696.5,418,696.5,418.1z"/>
		<path fill="#848485" d="M696.4,417.8c-0.3,0.1-0.6,0.1-0.9,0.1c-1.8,0-3.4-1.2-3.9-2.9c0.3-0.1,0.7-0.2,1.1-0.2
			C694.5,414.7,696.1,416,696.4,417.8z"/>
	</g>
	<g>
		<path fill="#19191A" d="M24,418.2c-0.2,0.1-2.7,2.1-2.3,3c0.9,1.9,14-1.2,13.9-3C35.5,416.9,28.5,414.8,24,418.2z"/>
		<path fill="#323233" d="M35.6,418.2c-1.1,0.6-3.5,1.5-6.7,1.3c-2.2-0.1-3.9-0.8-4.9-1.3c0.2-2.4,1.7-4.4,3.8-5.1
			c0.5-0.2,1.1-0.3,1.8-0.4c2.9-0.1,5.5,2,6,4.9C35.6,417.8,35.6,418,35.6,418.2z"/>
		<path fill="#848485" d="M35.6,417.6c-0.5,0.1-1,0.2-1.5,0.2c-3,0-5.5-2-6.3-4.7c0.5-0.2,1.1-0.3,1.8-0.4
			C32.5,412.6,35.1,414.7,35.6,417.6z"/>
	</g>
	<g>
		<path fill="#19191A" d="M55.2,505c-0.1,0-0.9,0.7-0.7,1c0.3,0.6,4.6-0.4,4.6-1C59,504.5,56.7,503.8,55.2,505z"/>
		<path fill="#323233" d="M59,505c-0.4,0.2-1.2,0.5-2.2,0.4c-0.7,0-1.3-0.3-1.6-0.4c0.1-0.8,0.6-1.4,1.3-1.7
			c0.2-0.1,0.4-0.1,0.6-0.1c1,0,1.8,0.7,2,1.6C59,504.8,59,504.9,59,505z"/>
		<path fill="#848485" d="M59,504.8c-0.2,0-0.3,0.1-0.5,0.1c-1,0-1.8-0.7-2.1-1.6c0.2-0.1,0.4-0.1,0.6-0.1
			C58,503.1,58.8,503.8,59,504.8z"/>
	</g>
	<g>
		<path fill="#19191A" d="M36.8,419.9c-0.1,0-0.9,0.7-0.7,1c0.3,0.6,4.6-0.4,4.6-1C40.6,419.5,38.3,418.8,36.8,419.9z"/>
		<path fill="#323233" d="M40.6,419.9c-0.4,0.2-1.2,0.5-2.2,0.4c-0.7,0-1.3-0.3-1.6-0.4c0.1-0.8,0.6-1.4,1.3-1.7
			c0.2-0.1,0.4-0.1,0.6-0.1c1,0,1.8,0.7,2,1.6C40.6,419.8,40.6,419.8,40.6,419.9z"/>
		<path fill="#848485" d="M40.6,419.7c-0.2,0-0.3,0.1-0.5,0.1c-1,0-1.8-0.7-2.1-1.6c0.2-0.1,0.4-0.1,0.6-0.1
			C39.6,418,40.4,418.7,40.6,419.7z"/>
	</g>
</g>
</svg>
