<?xml version="1.0" encoding="UTF-8"?>
<!DOCTYPE svg PUBLIC "-//W3C//DTD SVG 1.1//EN" "http://www.w3.org/Graphics/SVG/1.1/DTD/svg11.dtd">
<!-- Creator: CorelDRAW -->
<svg xmlns="http://www.w3.org/2000/svg" xml:space="preserve" width="2048px" height="2048px" style="shape-rendering:geometricPrecision; text-rendering:geometricPrecision; image-rendering:optimizeQuality; fill-rule:evenodd; clip-rule:evenodd"
viewBox="0 0 2048 2048"
 xmlns:xlink="http://www.w3.org/1999/xlink">
 <defs>
  <style type="text/css">
   <![CDATA[
    .fil4 {fill:none}
    .fil1 {fill:#3E2723}
    .fil2 {fill:#4E342E}
    .fil3 {fill:#9C7A57;fill-rule:nonzero}
    .fil0 {fill:#A98561;fill-rule:nonzero}
   ]]>
  </style>
 </defs>
 <g id="Layer_x0020_1">
  <metadata id="CorelCorpID_0Corel-Layer"/>
  <path class="fil0" d="M497.709 350.24c-17.8795,0 -32.374,14.0539 -32.374,31.3878l0 1378.28c0,17.3351 14.4945,31.3878 32.374,31.3878l1052.58 0c17.8795,0 32.374,-14.0528 32.374,-31.3878l0 -1378.28c0,-17.3339 -14.4945,-31.3878 -32.374,-31.3878 -192.819,0 -859.761,0 -1052.58,0z"/>
  <path class="fil1" d="M620.442 302.915l82.5721 0c62.0835,-27.5339 182.545,-46.2059 320.986,-46.2059 138.441,0 258.903,18.6721 320.986,46.2059l82.5721 0c27.8221,0 50.5831,22.761 50.5831,50.5819l0 130.368 -908.283 0 0 -130.368c0,-27.8209 22.761,-50.5819 50.5831,-50.5819z"/>
  <path class="fil2" d="M620.532 353.497c-0.0318898,0.0259843 -0.0637796,0.0590552 -0.0897638,0.0897638l0 79.6949 807.116 0 0 -79.6949c-0.0259843,-0.0307087 -0.0578741,-0.0637796 -0.0897638,-0.0897638l-93.1961 0 -9.79253 -4.34292c-76.9394,-34.1221 -217.151,-41.8618 -300.48,-41.8618 -83.3292,0 -223.54,7.73977 -300.48,41.8618l-9.79253 4.34292 -93.1961 0z"/>
  <path class="fil3" d="M570.781 561.925l906.439 0c2.76142,0 5.00079,2.23937 5.00079,5.00079l0 1139.73c0,2.76142 -2.23937,5.00079 -5.00079,5.00079l-906.439 0c-2.76142,0 -5.00079,-2.23937 -5.00079,-5.00079l0 -1139.73c0,-2.76142 2.23937,-5.00079 5.00079,-5.00079zm901.438 10.0016l-896.437 0 0 1129.73 896.437 0 0 -1129.73z"/>
 </g>
 <rect class="fil4" width="2048" height="2048"/>
</svg>
