<?xml version="1.0" encoding="UTF-8"?>
<!DOCTYPE svg PUBLIC "-//W3C//DTD SVG 1.1//EN" "http://www.w3.org/Graphics/SVG/1.1/DTD/svg11.dtd">
<!-- Creator: CorelDRAW -->
<svg xmlns="http://www.w3.org/2000/svg" xml:space="preserve" width="2048px" height="2048px" style="shape-rendering:geometricPrecision; text-rendering:geometricPrecision; image-rendering:optimizeQuality; fill-rule:evenodd; clip-rule:evenodd"
viewBox="0 0 2048 2048"
 xmlns:xlink="http://www.w3.org/1999/xlink">
 <defs>
  <style type="text/css">
   <![CDATA[
    .fil5 {fill:none}
    .fil0 {fill:#1E88E5}
    .fil4 {fill:#607D8B}
    .fil2 {fill:#ECEFF1}
    .fil3 {fill:#1E88E5;fill-rule:nonzero}
    .fil1 {fill:#607D8B;fill-rule:nonzero}
   ]]>
  </style>
 </defs>
 <g id="Layer_x0020_1">
  <metadata id="CorelCorpID_0Corel-Layer"/>
  <g id="_317209080">
   <path id="_317176848" class="fil0" d="M1137.19 400.896l354.127 0c26.7803,0 48.5008,21.7205 48.5008,48.5008 0,26.7792 -21.7205,48.4996 -48.5008,48.4996l-354.127 0c-26.7803,0 -48.4996,-21.7205 -48.4996,-48.4996 0,-26.7803 21.7193,-48.5008 48.4996,-48.5008z"/>
   <path id="_317177280" class="fil1" d="M820.563 256.001l0.00354331 0c52.2048,0 99.6414,21.3343 134.012,55.7032 34.3689,34.3689 55.702,81.8068 55.702,134.009l0 785.816c35.6906,27.3319 65.328,62.2229 86.5312,102.293 23.0705,43.6028 36.137,93.2257 36.137,145.797 0,86.2572 -34.9666,164.353 -91.4989,220.884 -56.53,56.5311 -134.628,91.4977 -220.885,91.4977 -86.2572,0 -164.352,-34.9666 -220.884,-91.4977 -56.53,-56.5311 -91.4977,-134.627 -91.4977,-220.884 0,-52.5709 13.0677,-102.194 36.1382,-145.797 21.202,-40.0701 50.8406,-74.9611 86.5288,-102.293l0 -785.816c0,-52.2024 21.3343,-99.6402 55.7032,-134.009 34.3689,-34.3689 81.8079,-55.7032 134.01,-55.7032z"/>
   <path id="_317210112" class="fil2" d="M820.563 288.333c-41.8677,0 -81.5694,16.6547 -111.147,46.2331 -29.5784,29.5772 -46.2343,69.2788 -46.2343,111.147l0 801.781 -12.6732 9.70513c-32.126,24.6024 -58.6796,55.9689 -77.6103,91.7446 -21.3555,40.363 -32.3823,85.0135 -32.3823,130.675 0,74.556 29.3173,145.31 82.0276,198.02 52.7103,52.7115 123.463,82.0288 198.02,82.0288 74.5571,0 145.312,-29.3173 198.023,-82.0288 52.7115,-52.7103 82.0288,-123.463 82.0288,-198.02 0,-45.6615 -11.0268,-90.3119 -32.3835,-130.675 -18.9307,-35.7768 -45.4843,-67.1422 -77.6091,-91.7446l-12.6756 -9.70513 0 -801.781c0,-41.8677 -16.6536,-81.5694 -46.2319,-111.147 -29.5807,-29.5796 -69.2812,-46.2331 -111.152,-46.2331z"/>
   <path id="_317209920" class="fil3" d="M852.566 1310.4l0 -256.824c0,-17.6728 -14.328,-32.0008 -32.002,-32.0008 -17.6717,0 -31.9996,14.328 -31.9996,32.0008l0 256.824c-34.7162,6.5256 -65.7603,23.4697 -89.7544,47.465 -31.1622,31.1599 -50.4367,74.2099 -50.4367,121.754 0,47.5453 19.2744,90.5942 50.4367,121.754 31.1599,31.1622 74.2087,50.4367 121.754,50.4367 47.5453,0 90.5942,-19.2744 121.756,-50.4367 31.1622,-31.1599 50.4355,-74.2099 50.4355,-121.754 0,-47.5441 -19.2732,-90.5942 -50.4355,-121.754 -23.9953,-23.9953 -55.0382,-40.9394 -89.7544,-47.465z"/>
   <g>
    <rect id="_317210208" class="fil4" x="879.773" y="600.733" width="121.25" height="31.5751" rx="15.7878" ry="15.7878"/>
    <rect id="_317209872" class="fil4" x="879.773" y="702.801" width="121.25" height="31.5751" rx="15.7878" ry="15.7878"/>
    <rect id="_317209824" class="fil4" x="879.773" y="804.868" width="121.25" height="31.5751" rx="15.7878" ry="15.7878"/>
    <rect id="_317209224" class="fil4" x="879.773" y="906.935" width="121.25" height="31.5751" rx="15.7878" ry="15.7878"/>
    <rect id="_317209152" class="fil4" x="879.773" y="1009" width="121.25" height="31.5751" rx="15.7878" ry="15.7878"/>
    <rect id="_317209488" class="fil4" x="879.773" y="1111.07" width="121.25" height="31.5751" rx="15.7878" ry="15.7878"/>
    <rect id="_317209752" class="fil4" x="879.773" y="498.666" width="121.25" height="31.5751" rx="15.7878" ry="15.7878"/>
   </g>
  </g>
 </g>
 <rect class="fil5" width="2048" height="2048"/>
</svg>
