<?xml version="1.0" encoding="UTF-8"?>
<!DOCTYPE svg PUBLIC "-//W3C//DTD SVG 1.1//EN" "http://www.w3.org/Graphics/SVG/1.1/DTD/svg11.dtd">
<!-- Creator: CorelDRAW -->
<svg xmlns="http://www.w3.org/2000/svg" xml:space="preserve" width="6.82666in" height="6.82666in" style="shape-rendering:geometricPrecision; text-rendering:geometricPrecision; image-rendering:optimizeQuality; fill-rule:evenodd; clip-rule:evenodd"
viewBox="0 0 6.82666 6.82666"
 xmlns:xlink="http://www.w3.org/1999/xlink">
 <defs>
  <style type="text/css">
    .fil0 {fill:#424242}
    .fil1 {fill:#FFFFFE;fill-rule:nonzero}
  </style>
 </defs>
 <rect class="fil0" width="6.82666" height="6.82666"/>
 <g id="Layer_x0020_1">
  <metadata id="CorelCorpID_0Corel-Layer"/>
  <path class="fil1" d="M2.77078 0.853331l1.1811e-005 0c0.174012,0 0.332134,0.0711142 0.446701,0.185677 0.114563,0.114563 0.185677,0.272689 0.185677,0.446701l0 2.61939c0.118965,0.0911063 0.21776,0.207406 0.288433,0.340976 0.0769016,0.145343 0.120457,0.310752 0.120457,0.485988 0,0.287524 -0.116555,0.547843 -0.304992,0.73628 -0.188437,0.188437 -0.44876,0.304992 -0.736283,0.304992 -0.287524,0 -0.547843,-0.116555 -0.73628,-0.304992 -0.188437,-0.188437 -0.304992,-0.448756 -0.304992,-0.73628 0,-0.175236 0.0435551,-0.340646 0.120457,-0.485988 0.0706732,-0.133571 0.169469,-0.24987 0.288433,-0.340976l0 -2.61939c0,-0.174012 0.0711142,-0.332138 0.185677,-0.446701 0.114563,-0.114563 0.272689,-0.185677 0.446701,-0.185677zm1.1811e-005 0.213339l-1.1811e-005 0c-0.115126,0 -0.219866,0.0471732 -0.295866,0.123173 -0.076,0.076 -0.123173,0.18074 -0.123173,0.295866l0 2.67279 0 0.000744094 0 2.75591e-005c-3.14961e-005,0.0340512 -0.0163307,0.0675079 -0.0465906,0.0881378l-0.000125984 -0.000185039c-0.11148,0.076 -0.203406,0.17835 -0.266724,0.298016 -0.0609331,0.115165 -0.0954488,0.246795 -0.0954488,0.386823 0,0.228638 0.0926693,0.435626 0.242488,0.585445 0.149819,0.149819 0.356807,0.242488 0.585445,0.242488 0.228638,0 0.43563,-0.0926693 0.585449,-0.242488 0.149819,-0.149819 0.242488,-0.356807 0.242488,-0.585445 0,-0.140028 -0.0345157,-0.271657 -0.0954488,-0.386823 -0.0622717,-0.117693 -0.152228,-0.218646 -0.26124,-0.294244 -0.0312559,-0.0186024 -0.0522008,-0.0527165 -0.0522008,-0.0917244l0 -2.67356c0,-0.115126 -0.0471732,-0.219866 -0.123173,-0.295866 -0.076,-0.0759961 -0.18074,-0.123173 -0.295866,-0.123173z"/>
  <path class="fil1" d="M2.77079 4.35809c0.158484,0 0.301976,0.064248 0.40585,0.168122 0.103874,0.103866 0.168122,0.247366 0.168122,0.405846 0,0.15848 -0.064248,0.30198 -0.168122,0.405846 -0.103874,0.103874 -0.247366,0.168122 -0.40585,0.168122 -0.158484,0 -0.30198,-0.064248 -0.405846,-0.168122 -0.103874,-0.103866 -0.168122,-0.247362 -0.168122,-0.405846 0,-0.15848 0.064248,-0.30198 0.168122,-0.405846 0.103866,-0.103874 0.247362,-0.168122 0.405846,-0.168122zm0.255016 0.318957c-0.0652559,-0.0652559 -0.155417,-0.105618 -0.255016,-0.105618 -0.0995984,0 -0.18976,0.0403661 -0.255012,0.105618 -0.065252,0.065252 -0.105618,0.155417 -0.105618,0.255012 0,0.0995984 0.0403661,0.18976 0.105618,0.255012 0.065252,0.065252 0.155413,0.105618 0.255012,0.105618 0.0995984,0 0.18976,-0.0403622 0.255016,-0.105618 0.065252,-0.065252 0.105618,-0.155417 0.105618,-0.255012 0,-0.0995945 -0.0403661,-0.18976 -0.105618,-0.255012z"/>
  <path class="fil1" d="M2.66412 4.46476c0,0.0589094 0.0477598,0.106669 0.106669,0.106669 0.0589094,0 0.106669,-0.0477598 0.106669,-0.106669l0 -0.927469c0,-0.0589094 -0.0477598,-0.106669 -0.106669,-0.106669 -0.0589094,0 -0.106669,0.0477598 -0.106669,0.106669l0 0.927469z"/>
  <path class="fil1" d="M3.82222 1.43745c-0.0589094,0 -0.106669,0.0477598 -0.106669,0.106669 0,0.0589094 0.0477598,0.106669 0.106669,0.106669l1.16825 0c0.0589094,0 0.106669,-0.0477598 0.106669,-0.106669 0,-0.0589094 -0.0477598,-0.106669 -0.106669,-0.106669l-1.16825 0z"/>
 </g>
</svg>
