<?xml version="1.0" encoding="UTF-8"?>
<!DOCTYPE svg PUBLIC "-//W3C//DTD SVG 1.1//EN" "http://www.w3.org/Graphics/SVG/1.1/DTD/svg11.dtd">
<!-- Creator: CorelDRAW -->
<svg xmlns="http://www.w3.org/2000/svg" xml:space="preserve" width="2048px" height="2048px" style="shape-rendering:geometricPrecision; text-rendering:geometricPrecision; image-rendering:optimizeQuality; fill-rule:evenodd; clip-rule:evenodd"
viewBox="0 0 2048 2048"
 xmlns:xlink="http://www.w3.org/1999/xlink">
 <defs>
  <style type="text/css">
   <![CDATA[
    .fil2 {fill:none}
    .fil1 {fill:#37474F}
    .fil0 {fill:#90A4AE}
   ]]>
  </style>
 </defs>
 <g id="Layer_x0020_1">
  <metadata id="CorelCorpID_0Corel-Layer"/>
  <g id="_326721344">
   <path id="_326722160" class="fil0" d="M590.063 638.967c-43.4481,89.9363 -57.6095,180.963 -58.4233,259.427 -72.0272,-202.732 -43.4504,-346.716 -40.0087,-362.283 4.66063,-16.513 -4.57323,-33.8752 -21.0425,-39.1477 -16.8307,-5.38819 -34.8449,3.88819 -40.2331,20.7189l0.0933072 0.0295276c-81.4064,254.289 -69.3107,442.793 -13.9228,581.845 56.8796,142.795 158.78,232.617 252.619,288.064 -209.792,-38.5996 -320.098,-133.967 -333.48,-146.13 -11.9327,-12.6673 -31.8638,-13.4882 -44.7992,-1.73977 -13.0819,11.8819 -14.0551,32.1213 -2.17323,45.2032l0.0625985 -0.0153543c230.935,254.266 444.77,320.184 618.512,307.429 99.6993,-7.3193 185.725,-40.6441 254.172,-79.2579 -136.784,160.619 -272.948,209.21 -292.675,215.617 -17.2701,3.74764 -28.2319,20.7898 -24.4843,38.0599 3.74764,17.2701 20.7898,28.2319 38.0599,24.4843l-0.00590552 -0.0295276c335.731,-72.8835 499.759,-225.228 575.594,-382.186 43.4575,-89.9469 57.6225,-180.986 58.4339,-259.461 72.0319,202.736 43.4528,346.727 40.0099,362.294 -4.66063,16.513 4.57323,33.8752 21.0425,39.1477 16.8307,5.38819 34.8449,-3.88819 40.2331,-20.7189l-0.0933072 -0.0295276c104.808,-327.383 54.8162,-545.648 -43.265,-689.774 -56.1367,-82.4906 -127.877,-140.217 -195.424,-180.132 209.778,38.5985 320.079,133.955 333.468,146.124 11.9315,12.6697 31.865,13.4917 44.8016,1.74213 13.0819,-11.8819 14.0551,-32.1213 2.17323,-45.2032l-0.0625985 0.0153543c-230.927,-254.255 -444.756,-320.178 -618.494,-307.428 -99.7076,7.31693 -185.739,40.6453 -254.19,79.2615 136.791,-160.615 272.949,-209.209 292.677,-215.621 17.2701,-3.74764 28.2319,-20.7898 24.4843,-38.0599 -3.74764,-17.2701 -20.7898,-28.2319 -38.0599,-24.4843l0.00590552 0.0295276c-335.748,72.8871 -499.777,225.245 -575.606,382.21z"/>
   <path id="_326722208" class="fil1" d="M978.326 853.448c-42.9059,11.4945 -81.5009,39.0957 -105.951,80.1556 -0.461811,0.675591 -0.902363,1.37362 -1.31811,2.0941l0.0885827 0.125197c-24.3886,42.2433 -29.3658,90.3024 -17.6965,133.853 11.4945,42.9059 39.0957,81.5009 80.1556,105.951 0.675591,0.461811 1.37362,0.902363 2.0941,1.31811l0.125197 -0.0885827c42.2433,24.3886 90.3024,29.3658 133.853,17.6965 42.9059,-11.4945 81.5009,-39.0957 105.951,-80.1556 0.461811,-0.675591 0.902363,-1.37362 1.31811,-2.0941l-0.0885827 -0.125197c24.3886,-42.2433 29.3658,-90.3024 17.6965,-133.853 -11.4945,-42.9059 -39.0957,-81.5009 -80.1556,-105.951 -0.675591,-0.461811 -1.37362,-0.902363 -2.0941,-1.31811l-0.125197 0.0885827c-42.2433,-24.3886 -90.3024,-29.3658 -133.853,-17.6965z"/>
  </g>
 </g>
 <rect class="fil2" width="2048" height="2048"/>
</svg>
