<?xml version="1.0" encoding="UTF-8"?>
<!DOCTYPE svg PUBLIC "-//W3C//DTD SVG 1.1//EN" "http://www.w3.org/Graphics/SVG/1.1/DTD/svg11.dtd">
<!-- Creator: CorelDRAW -->
<svg xmlns="http://www.w3.org/2000/svg" xml:space="preserve" width="2048px" height="2048px" style="shape-rendering:geometricPrecision; text-rendering:geometricPrecision; image-rendering:optimizeQuality; fill-rule:evenodd; clip-rule:evenodd"
viewBox="0 0 2048 2048"
 xmlns:xlink="http://www.w3.org/1999/xlink">
 <defs>
  <style type="text/css">
   <![CDATA[
    .fil4 {fill:none}
    .fil3 {fill:#546E7A}
    .fil2 {fill:#B0BEC5}
    .fil0 {fill:#A2AEB5;fill-rule:nonzero}
    .fil1 {fill:#B0BEC5;fill-rule:nonzero}
   ]]>
  </style>
 </defs>
 <g id="Layer_x0020_1">
  <metadata id="CorelCorpID_0Corel-Layer"/>
  <g id="_316749376">
   <path id="_316750936" class="fil0" d="M1435.8 1347.74c9.58702,0.464174 19.4776,-0.373229 29.4177,-2.58662 10.7079,-2.38229 21.2221,-6.4063 31.1859,-12.1583l-15.8752 -27.6248 15.9992 27.7134c0.761812,-0.43937 1.49764,-0.908268 2.20866,-1.39843 25.1729,-15.3095 42.1111,-39.1843 49.213,-65.6918 7.28623,-27.1925 4.16575,-57.2245 -11.0858,-83.6434 -9.44528,-16.3606 -22.4303,-29.3906 -37.4185,-38.6776 -4.4504,-2.75788 -9.07442,-5.18504 -13.8295,-7.27442 0.569292,-5.14725 0.779528,-10.3476 0.616536,-15.5599 -0.550394,-17.7295 -5.31969,-35.5099 -14.7106,-51.789l0.0661418 -0.0377953c-0.604725,-1.04646 -1.26024,-2.04449 -1.95945,-2.99528 -15.378,-24.7666 -38.9918,-41.4213 -65.1296,-48.4241 -27.1914,-7.28623 -57.2256,-4.16575 -83.6446,11.0858l15.8752 27.6248 -15.9992 -27.7134c-0.762993,0.440552 -1.5,0.910631 -2.21339,1.40197 -9.54804,5.81811 -17.9752,12.9662 -25.1799,21.0992 -6.9189,7.81182 -12.5965,16.4162 -16.95,25.5154 -74.3493,92.6764 -179.444,178.403 -295.516,245.764 -0.870473,0.402756 -1.73268,0.848032 -2.57953,1.33701l16.0004 27.7134 -16.0004 -27.6248c-117.102,67.6099 -244.819,116.323 -362.949,134.482 -10.0287,-0.775985 -20.361,-0.15 -30.7051,1.96063 -10.2354,2.08819 -20.3551,5.69528 -30.0378,10.898 -1.05827,0.466536 -2.10236,0.993308 -3.12756,1.58504l16.0004 27.7134 -16.0004 -27.6248c-26.3918,15.2374 -44.113,39.7288 -51.4193,67.0004 -7.28623,27.1949 -4.16575,57.2268 11.0858,83.6446 9.44646,16.3618 22.4315,29.3918 37.4185,38.6776 4.4504,2.75788 9.07324,5.18741 13.8295,7.2756 -0.569292,5.14607 -0.779528,10.3465 -0.616536,15.5587 0.550394,17.7425 5.32678,35.537 14.7319,51.8256 15.2374,26.3918 39.7264,44.113 67.0016,51.4205 26.1626,7.00985 54.952,4.38662 80.6245,-9.40631 1.06417,-0.467717 2.11417,-0.998032 3.1441,-1.59213l-16.0004 -27.7122 16.0004 27.6248c9.9756,-5.75906 18.704,-12.8386 26.0918,-20.8854 6.8563,-7.4693 12.6,-15.8669 17.1461,-24.8965 74.9068,-93.6733 181.539,-180.455 299.234,-248.405 118.198,-68.2406 247.182,-117.327 366.057,-135.2z"/>
   <path id="_316750480" class="fil1" d="M612.2 1347.74c-9.58702,0.464174 -19.4776,-0.373229 -29.4177,-2.58662 -10.7079,-2.38229 -21.2221,-6.4063 -31.1859,-12.1583l15.8752 -27.6248 -15.9992 27.7134c-0.761812,-0.43937 -1.49764,-0.908268 -2.20866,-1.39843 -25.1729,-15.3095 -42.1111,-39.1843 -49.213,-65.6918 -7.28623,-27.1925 -4.16575,-57.2245 11.0858,-83.6434 9.44528,-16.3606 22.4303,-29.3906 37.4185,-38.6776 4.4504,-2.75788 9.07442,-5.18504 13.8295,-7.27442 -0.569292,-5.14725 -0.779528,-10.3476 -0.616536,-15.5599 0.550394,-17.7295 5.31969,-35.5099 14.7106,-51.789l-0.0661418 -0.0377953c0.604725,-1.04646 1.26024,-2.04449 1.95945,-2.99528 15.378,-24.7666 38.9918,-41.4213 65.1296,-48.4241 27.1914,-7.28623 57.2256,-4.16575 83.6446,11.0858l-15.8752 27.6248 15.9992 -27.7134c0.762993,0.440552 1.5,0.910631 2.21339,1.40197 9.54804,5.81811 17.9752,12.9662 25.1799,21.0992 6.9189,7.81182 12.5965,16.4162 16.95,25.5154 74.3493,92.6764 179.444,178.403 295.516,245.764 0.870473,0.402756 1.73268,0.848032 2.57953,1.33701l-16.0004 27.7134 16.0004 -27.6248c117.102,67.6099 244.819,116.323 362.949,134.482 10.0287,-0.775985 20.361,-0.15 30.7051,1.96063 10.2354,2.08819 20.3551,5.69528 30.0378,10.898 1.05827,0.466536 2.10236,0.993308 3.12756,1.58504l-16.0004 27.7134 16.0004 -27.6248c26.3918,15.2374 44.113,39.7288 51.4193,67.0004 7.28623,27.1949 4.16575,57.2268 -11.0858,83.6446 -9.44646,16.3618 -22.4315,29.3918 -37.4185,38.6776 -4.4504,2.75788 -9.07324,5.18741 -13.8295,7.2756 0.569292,5.14607 0.779528,10.3465 0.616536,15.5587 -0.550394,17.7425 -5.32678,35.537 -14.7319,51.8256 -15.2374,26.3918 -39.7264,44.113 -67.0016,51.4205 -26.1626,7.00985 -54.952,4.38662 -80.6245,-9.40631 -1.06417,-0.467717 -2.11417,-0.998032 -3.1441,-1.59213l16.0004 -27.7122 -16.0004 27.6248c-9.9756,-5.75906 -18.704,-12.8386 -26.0918,-20.8854 -6.8563,-7.4693 -12.6,-15.8669 -17.1461,-24.8965 -74.9068,-93.6733 -181.539,-180.455 -299.234,-248.405 -118.198,-68.2406 -247.182,-117.327 -366.057,-135.2z"/>
   <path id="_316750360" class="fil2" d="M731.812 321.829c-128.021,69.8304 -192.771,191.206 -99.9627,363.851 1.78228,4.19055 4.48819,8.06694 8.10709,11.3043l0.0874016 -0.0980316c0.0779528,0.0696851 27.3792,23.5406 -4.98426,81.5788 -1.08543,1.55669 -2.04685,3.23032 -2.86418,5.01733l0.0992127 0.0637796c-0.112205,0.244488 -40.4032,82.278 150.887,215.183 1.1374,67.9382 48.8552,114.308 114.757,139.588 37.9477,14.5559 82.1398,21.8339 126.063,21.8339 43.9229,0 88.1162,-7.27914 126.063,-21.8351 65.9008,-25.2792 113.617,-71.6504 114.755,-139.588 150.245,-104.388 157.639,-177.385 153.825,-204.023 -0.307087,-4.74922 -1.68071,-9.50316 -4.22008,-13.9039l-0.120473 0.0696851c-30.2292,-52.4221 -12.3969,-77.419 -7.48347,-82.8367 3.17244,-2.56063 5.90552,-5.77205 7.97953,-9.57402l-0.0921261 -0.0732284c94.956,-174.088 30.1725,-296.362 -98.517,-366.558 -80.426,-43.8674 -186.618,-65.8028 -292.19,-65.8028 -105.572,0 -211.762,21.9354 -292.188,65.8028z"/>
   <path id="_316750768" class="fil3" d="M737.11 537.182c-12.6874,30.3107 -12.9236,62.8241 2.12244,90.7701 0.8563,1.84134 1.88386,3.58701 3.06024,5.21811l0.113386 0.155906 0.196063 0.269292c16.7362,26.5276 44.817,42.3142 77.1579,46.4492 30.4973,3.9 65.1449,-2.80276 96.7135,-21.0272l0.124016 0.0885827c0.725197,-0.418111 1.42795,-0.862205 2.10709,-1.32638 30.5173,-18.2008 52.9193,-44.3575 64.5603,-72.1678 13.0512,-31.1799 12.9071,-64.7008 -3.52559,-93.1642 -16.448,-28.4906 -45.4831,-45.3981 -79.1245,-49.6985 -30.0118,-3.8374 -64.0158,2.55709 -95.1379,20.0599l-0.0141732 -0.0271654c-0.574016,0.288189 -1.1374,0.590552 -1.68662,0.908268l-0.0625985 0.0377953 -0.636615 0.376772 -0.0283465 0.0177165c-0.470079,0.288189 -0.929528,0.585827 -1.37953,0.894095 -30.5162,18.1996 -52.9182,44.354 -64.5591,72.1654z"/>
   <path id="_316750288" class="fil3" d="M1080.7 492.448c-16.4327,28.4634 -16.5768,61.9843 -3.52559,93.1642 11.641,27.8103 34.0429,53.967 64.5603,72.1678 0.679134,0.465355 1.38189,0.908268 2.10709,1.32638l0.124016 -0.0885827c31.5685,18.2244 66.2162,24.9272 96.7135,21.0272 32.341,-4.13504 60.4217,-19.9217 77.1579,-46.4492l0.196063 -0.269292 0.113386 -0.155906c1.17638,-1.6311 2.20394,-3.37677 3.06024,-5.21811 15.0461,-27.9461 14.8099,-60.4595 2.12244,-90.7701 -11.641,-27.8114 -34.0429,-53.9658 -64.5591,-72.1654 -0.45,-0.308268 -0.910631,-0.607087 -1.37953,-0.894095l-0.0283465 -0.0177165 -0.636615 -0.376772 -0.0625985 -0.0377953c-0.550394,-0.317717 -1.11142,-0.62126 -1.68662,-0.908268l-0.0141732 0.0271654c-31.1221,-17.5028 -65.126,-23.8973 -95.1379,-20.0599 -33.6414,4.3004 -62.6764,21.2079 -79.1245,49.6985z"/>
   <path id="_316750216" class="fil3" d="M973.624 707.341c-15.2563,8.76733 -20.5169,28.2437 -11.7496,43.5l34.3181 59.4402c1.22953,2.20158 2.72481,4.26851 4.4752,6.15l0.497244 0.523229 0.0472441 0.0484252 0.509056 0.509056 0.0484252 0.0472441 0.523229 0.497244c2.38465,2.22047 5.07166,4.03229 7.94764,5.40591l0.129921 0.0614174 0.540945 0.249213 0.279921 0.124016 0.298819 0.129921c4.04055,1.73032 8.28662,2.56418 12.489,2.56299l0.0425197 0c4.20118,0.0011811 8.44843,-0.831497 12.489,-2.56299l0.298819 -0.129921 0.279921 -0.124016 0.540945 -0.249213 0.129921 -0.0614174c2.87717,-1.37362 5.563,-3.18662 7.94764,-5.40591l0.523229 -0.497244 0.0484252 -0.0472441 0.509056 -0.509056 0.0472441 -0.0484252 0.497244 -0.523229c1.7504,-1.88032 3.24685,-3.94961 4.4752,-6.15l34.3181 -59.4402c8.76733,-15.2563 3.5067,-34.7327 -11.7496,-43.5 -15.2563,-8.76733 -34.7327,-3.5067 -43.5,11.7496l-6.87638 11.9102 -6.87638 -11.9102c-8.76733,-15.2563 -28.2437,-20.5169 -43.5,-11.7496z"/>
   <path id="_316750648" class="fil3" d="M870.33 915.142l0 36.2292c0,17.6728 14.328,32.0008 32.0008,32.0008 17.6728,0 32.0008,-14.328 32.0008,-32.0008l0 -36.2292c0,-17.6728 -14.328,-32.0008 -32.0008,-32.0008 -17.6728,0 -32.0008,14.328 -32.0008,32.0008z"/>
   <path id="_316750312" class="fil3" d="M951.442 915.142l0 36.2292c0,17.6728 14.328,32.0008 32.0008,32.0008 17.6728,0 32.0008,-14.328 32.0008,-32.0008l0 -36.2292c0,-17.6728 -14.328,-32.0008 -32.0008,-32.0008 -17.6728,0 -32.0008,14.328 -32.0008,32.0008z"/>
   <path id="_316750840" class="fil3" d="M1032.55 915.142l0 36.2292c0,17.6728 14.328,32.0008 32.0008,32.0008 17.6728,0 32.0008,-14.328 32.0008,-32.0008l0 -36.2292c0,-17.6728 -14.328,-32.0008 -32.0008,-32.0008 -17.6728,0 -32.0008,14.328 -32.0008,32.0008z"/>
   <path id="_316749952" class="fil3" d="M1113.67 915.142l0 36.2292c0,17.6728 14.328,32.0008 32.0008,32.0008 17.6728,0 32.0008,-14.328 32.0008,-32.0008l0 -36.2292c0,-17.6728 -14.328,-32.0008 -32.0008,-32.0008 -17.6728,0 -32.0008,14.328 -32.0008,32.0008z"/>
  </g>
 </g>
 <rect class="fil4" width="2048" height="2048"/>
</svg>
