<?xml version="1.0" encoding="UTF-8"?>
<!DOCTYPE svg PUBLIC "-//W3C//DTD SVG 1.1//EN" "http://www.w3.org/Graphics/SVG/1.1/DTD/svg11.dtd">
<!-- Creator: CorelDRAW -->
<svg xmlns="http://www.w3.org/2000/svg" xml:space="preserve" width="6.82666in" height="6.82666in" style="shape-rendering:geometricPrecision; text-rendering:geometricPrecision; image-rendering:optimizeQuality; fill-rule:evenodd; clip-rule:evenodd"
viewBox="0 0 6.82666 6.82666"
 xmlns:xlink="http://www.w3.org/1999/xlink">
 <defs>
  <style type="text/css">
    .fil0 {fill:#424242}
    .fil1 {fill:#FFFFFE;fill-rule:nonzero}
  </style>
 </defs>
 <rect class="fil0" width="6.82666" height="6.82666"/>
 <g id="Layer_x0020_1">
  <metadata id="CorelCorpID_0Corel-Layer"/>
  <path class="fil1" d="M2.05384 4.4915c0.0586811,-0.00505906 0.102146,-0.0567362 0.0970866,-0.115417 -0.00505906,-0.0586811 -0.0567362,-0.102146 -0.115417,-0.0970866 -0.0163858,0.00141732 -0.0322874,0.000559055 -0.0470669,-0.00273228 -0.014878,-0.00330709 -0.0295906,-0.00894488 -0.0436378,-0.0170079l0.000102362 -0.000181102 -0.000129921 -7.48031e-005 0.000125984 -0.000220472c-0.00163386,-0.000940945 -0.00327953,-0.00183858 -0.00494094,-0.00268504 -0.0343346,-0.0215354 -0.0574843,-0.0545787 -0.0672913,-0.0911929 -0.0103425,-0.0386063 -0.00606693,-0.0809961 0.0152835,-0.117976 0.0131457,-0.0227717 0.0312795,-0.0409409 0.0522323,-0.0539252 0.0217402,-0.0134724 0.0467323,-0.0213465 0.0725315,-0.0229764l-0.00666535 -0.106252 0.00672441 0.106457c0.0587913,-0.0037126 0.103445,-0.0543898 0.0997323,-0.113181 -0.00105512,-0.0167244 -0.00591732,-0.0322953 -0.0136772,-0.0459449 -0.00974409,-0.0217323 -0.0145079,-0.0454449 -0.0137677,-0.0692165 0.000751969,-0.0242441 0.00748425,-0.0489134 0.0207677,-0.0719173l-0.0920827 -0.0533346 0.092374 0.0533386c0.00129528,-0.00224409 0.0025,-0.00452362 0.00361417,-0.0068189 0.0213937,-0.0332205 0.0540236,-0.0557087 0.0902677,-0.0654213 0.0385,-0.0103189 0.0807598,-0.00609055 0.117665,0.0151063l-0.000102362 0.000177165 0.000129921 7.48031e-005 -0.000125984 0.000220472c0.00166142,0.00096063 0.00333858,0.00187008 0.0050315,0.00272835 0.013122,0.00819685 0.0244094,0.0177835 0.0337756,0.0283543 0.0109764,0.0123898 0.0198622,0.0266929 0.0264528,0.0422165 0.0230079,0.0540748 0.0855079,0.0792598 0.139583,0.056252 0.0540748,-0.0230079 0.0792598,-0.0855079 0.056252,-0.139583 -0.015189,-0.0357677 -0.0363701,-0.0695197 -0.063122,-0.0997205 -0.0240157,-0.0271102 -0.0521063,-0.050937 -0.0839331,-0.0703307 -0.00237795,-0.0016378 -0.00483465,-0.00320472 -0.00737795,-0.00467323l-0.0533307 0.092378 0.0529173 -0.0920827c-0.088063,-0.0508386 -0.188177,-0.0612402 -0.278815,-0.0369528 -0.087126,0.0233425 -0.165839,0.0788583 -0.217098,0.161413 -0.00233071,0.00316929 -0.00451575,0.00649606 -0.0065315,0.00998425l0.000220472 0.000125984c-0.0313031,0.0542638 -0.0472008,0.113531 -0.0490354,0.17263 -0.000543307,0.017374 0.00015748,0.0347087 0.00205512,0.0518661 -0.0158504,0.00696457 -0.0312638,0.0150551 -0.0460984,0.024248 -0.0499606,0.0309567 -0.0932441,0.0743898 -0.124728,0.128925 -0.0508386,0.088063 -0.0612402,0.188169 -0.0369528,0.278811 0.0236732,0.0883583 0.0801339,0.167941 0.164043,0.218972 0.00237008,0.00163386 0.00482283,0.00319685 0.0073622,0.00466142l0.0533307 -0.092378 -0.0529173 0.0920827c0.0332126,0.0191732 0.0682598,0.0325866 0.103953,0.0405276 0.0377047,0.00839764 0.0751969,0.0108543 0.111232,0.00773228z"/>
  <path class="fil1" d="M4.44594 5.67104c-0.0248504,-0.0531575 -0.0880945,-0.0761024 -0.141252,-0.051252 -0.0531575,0.0248504 -0.0761024,0.0880945 -0.051252,0.141252 0.0158465,0.0339173 0.0366457,0.0653701 0.0620197,0.0930118 0.024626,0.0268228 0.0537205,0.0504213 0.0869724,0.0696181l0.0533346 -0.0920827 -0.0533346 0.092374c0.00343307,0.00198031 0.00693307,0.00374803 0.0104803,0.00530709 0.0855748,0.0459764 0.181539,0.0547205 0.268748,0.0313543 0.0909173,-0.0243583 0.172547,-0.0834291 0.223339,-0.171402 0.0313504,-0.0542953 0.0472717,-0.11361 0.0491063,-0.172752 0.000543307,-0.017374 -0.00015748,-0.0347087 -0.00205512,-0.0518622 0.0158543,-0.00696063 0.0312638,-0.0150591 0.0460984,-0.024252 0.0499567,-0.0309528 0.0932402,-0.0743858 0.124728,-0.128925 0.0508386,-0.0880591 0.0612402,-0.188165 0.0369528,-0.278815 -0.0243543,-0.0909055 -0.0834252,-0.172543 -0.171398,-0.223335l-0.0533346 0.0920827 0.0533346 -0.092378c-0.00341732,-0.00197244 -0.00689764,-0.00372835 -0.0104252,-0.00528346 -0.0322756,-0.0173425 -0.0660079,-0.0293661 -0.100126,-0.0363268 -0.0398937,-0.00814173 -0.0797402,-0.00966142 -0.11802,-0.00497244 -0.0584488,0.00713386 -0.100051,0.0603031 -0.0929173,0.118752 0.00713386,0.0584488 0.0603031,0.100051 0.118752,0.0929173 0.0170276,-0.00208661 0.0338307,-0.00159843 0.0496811,0.00163386 0.0136732,0.0027874 0.027122,0.00743307 0.0399646,0.0140157 0.0020748,0.00140157 0.00421654,0.00274803 0.00642126,0.00401969l0.000125984 -0.000220472c0.0369921,0.0214016 0.0618465,0.0557913 0.0721063,0.0940945 0.0103465,0.0386102 0.00606693,0.0809961 -0.0152835,0.11798 -0.0131417,0.0227677 -0.0312795,0.0409409 -0.0522323,0.0539252 -0.0202362,0.0125394 -0.0432874,0.0202283 -0.067189,0.0225472 -0.0155197,0.000181102 -0.0312441,0.00376772 -0.0460787,0.011126 -0.0527717,0.0261772 -0.0743307,0.090185 -0.0481535,0.142957l0.00023622 -0.00011811c0.0114528,0.0231732 0.0171063,0.0488504 0.0163071,0.0746024 -0.000751969,0.0242402 -0.00748425,0.0489134 -0.0207677,0.0719173 -0.0213976,0.037063 -0.0558268,0.0619646 -0.0941732,0.0722362 -0.0362638,0.00971654 -0.0758701,0.00652756 -0.111193,-0.0115906 -0.00205906,-0.00138976 -0.0041811,-0.00272047 -0.00636614,-0.00398425l-0.000125984 0.000216535c-0.0140512,-0.00812598 -0.0263858,-0.0181496 -0.0368465,-0.0295433 -0.0109843,-0.0119646 -0.0197598,-0.0250945 -0.026185,-0.0388465z"/>
  <path class="fil1" d="M4.75732 5.0736c0.0582165,0.00851181 0.112323,-0.0317835 0.120835,-0.09 0.00851181,-0.0582165 -0.0317835,-0.112323 -0.09,-0.120835 -0.142291,-0.0211181 -0.288898,-0.0556772 -0.436594,-0.101799 -0.152606,-0.0476575 -0.306327,-0.10761 -0.457626,-0.177819 -0.0533858,-0.024622 -0.116626,-0.00130315 -0.141248,0.0520827 -0.024622,0.0533858 -0.00130315,0.116626 0.0520827,0.141248 0.159677,0.0740945 0.322067,0.137417 0.483461,0.187819 0.158398,0.0494646 0.315913,0.0865669 0.469091,0.109303zm-1.40088 -0.537961c0.0501654,0.0306024 0.11565,0.014748 0.146252,-0.0354173 0.0306024,-0.0501654 0.014748,-0.11565 -0.0354173,-0.146252 -0.180594,-0.110898 -0.351882,-0.234941 -0.506858,-0.368079 -0.14952,-0.128449 -0.283764,-0.265433 -0.396339,-0.407244 -0.0365866,-0.0460236 -0.103563,-0.0536693 -0.149587,-0.0170827 -0.0460236,0.0365866 -0.0536693,0.103563 -0.0170827,0.149587 0.120705,0.152051 0.264543,0.298843 0.424677,0.436409 0.163472,0.140433 0.344051,0.27122 0.534354,0.388079z"/>
  <path class="fil1" d="M4.26867 5.78411c0.0363583,0.046252 0.103335,0.0542756 0.149587,0.0179173 0.046252,-0.0363583 0.0542756,-0.103335 0.0179173,-0.149587 -0.120925,-0.153339 -0.265776,-0.30163 -0.427449,-0.440756 -0.164862,-0.141874 -0.347295,-0.274043 -0.539626,-0.392071 -0.0501654,-0.0306024 -0.11565,-0.014748 -0.146252,0.0354173 -0.0306024,0.0501654 -0.014748,0.11565 0.0354173,0.146252 0.182591,0.112051 0.355728,0.23748 0.51213,0.372071 0.150504,0.129516 0.285469,0.267709 0.398276,0.410756zm-1.33446 -1.01059c0.0533858,0.0248504 0.116815,0.00172047 0.141665,-0.0516654 0.0248504,-0.0533858 0.00172047,-0.116815 -0.0516654,-0.141665 -0.161394,-0.0750984 -0.326256,-0.139402 -0.490732,-0.190669 -0.160339,-0.0499803 -0.319921,-0.0872835 -0.475142,-0.109811 -0.0582165,-0.00828346 -0.112134,0.0322008 -0.120417,0.0904173 -0.00828346,0.0582165 0.0322008,0.112134 0.0904173,0.120417 0.143528,0.0208307 0.291937,0.0555906 0.441811,0.102307 0.153957,0.0479882 0.309894,0.108929 0.464063,0.180669z"/>
  <path class="fil1" d="M4.79115 4.27899c-0.0586811,-0.00505906 -0.110358,0.0384055 -0.115417,0.0970866 -0.00505906,0.0586811 0.0384055,0.110358 0.0970866,0.115417 0.0360354,0.00312205 0.0735276,0.000665354 0.111232,-0.00773228 0.0356929,-0.00794094 0.0707402,-0.0213543 0.103953,-0.0405276l-0.0529173 -0.0920827 0.0533307 0.092378c0.00253937,-0.00146457 0.00499213,-0.00302756 0.0073622,-0.00466142 0.0839094,-0.0510315 0.14037,-0.130614 0.164043,-0.218972 0.0242874,-0.0906417 0.0138858,-0.190748 -0.0369528,-0.278811 -0.0314843,-0.0545354 -0.0747677,-0.0979685 -0.124728,-0.128925 -0.0148346,-0.00919291 -0.030248,-0.0172835 -0.0460984,-0.024248 0.00189764,-0.0171575 0.00259843,-0.0344921 0.00205512,-0.0518661 -0.00183465,-0.0590984 -0.0177323,-0.118366 -0.0490354,-0.17263l0.000220472 -0.000125984c-0.00201575,-0.00348819 -0.00420079,-0.00681496 -0.0065315,-0.00998425 -0.0512598,-0.0825551 -0.129972,-0.138071 -0.217098,-0.161413 -0.0906378,-0.0242874 -0.190752,-0.0138858 -0.278815,0.0369528l0.0529173 0.0920827 -0.0533307 -0.092378c-0.00254331,0.0014685 -0.005,0.00303543 -0.00737795,0.00467323 -0.0318268,0.0193937 -0.0599173,0.0432205 -0.0839331,0.0703307 -0.026752,0.0302008 -0.0479331,0.0639528 -0.063122,0.0997205 -0.0230079,0.0540748 0.00217717,0.116575 0.056252,0.139583 0.0540748,0.0230079 0.116575,-0.00217717 0.139583,-0.056252 0.00659055,-0.0155236 0.0154764,-0.0298268 0.0264528,-0.0422165 0.00936614,-0.0105709 0.0206535,-0.0201575 0.0337756,-0.0283543 0.00169291,-0.000858268 0.00337008,-0.00176772 0.0050315,-0.00272835l-0.000125984 -0.000220472 0.000129921 -7.48031e-005 -0.000102362 -0.000177165c0.0369055,-0.0211969 0.0791654,-0.0254252 0.117665,-0.0151063 0.0362441,0.0097126 0.068874,0.0322008 0.0902677,0.0654213 0.00111417,0.00229528 0.0023189,0.0045748 0.00361417,0.0068189l0.092374 -0.0533386 -0.0920827 0.0533346c0.0132835,0.0230039 0.0200157,0.0476732 0.0207677,0.0719173 0.000740157,0.0237717 -0.00402362,0.0474843 -0.0137677,0.0692165 -0.00775984,0.0136496 -0.012622,0.0292205 -0.0136772,0.0459449 -0.0037126,0.0587913 0.0409409,0.109469 0.0997323,0.113181l0.00672441 -0.106457 -0.00666535 0.106252c0.0257992,0.00162992 0.0507913,0.00950394 0.0725315,0.0229764 0.0209528,0.0129843 0.0390866,0.0311535 0.0522323,0.0539252 0.0213504,0.0369803 0.025626,0.0793701 0.0152835,0.117976 -0.00980709,0.0366142 -0.0329567,0.0696535 -0.0672913,0.0911929 -0.00166142,0.000846457 -0.00330709,0.00174409 -0.00494094,0.00268504l0.000125984 0.000220472 -0.000129921 7.48031e-005 0.000102362 0.000181102c-0.0140472,0.00806299 -0.0287598,0.0137008 -0.0436378,0.0170079 -0.0147795,0.00329134 -0.0306811,0.00414961 -0.0470669,0.00273228z"/>
  <path class="fil1" d="M2.57323 5.76104c0.0248504,-0.0531575 0.00190551,-0.116402 -0.051252,-0.141252 -0.0531575,-0.0248504 -0.116402,-0.00190551 -0.141252,0.051252 -0.0064252,0.013752 -0.0152008,0.0268819 -0.026185,0.0388465 -0.0104606,0.0113937 -0.0227953,0.0214173 -0.0368465,0.0295433l-0.000125984 -0.000216535c-0.00218504,0.00126378 -0.00430709,0.00259449 -0.00636614,0.00398425 -0.0353228,0.0181181 -0.0749291,0.0213071 -0.111193,0.0115906 -0.0383465,-0.0102717 -0.0727756,-0.0351732 -0.0941732,-0.0722362 -0.0132835,-0.0230039 -0.0200157,-0.0476772 -0.0207677,-0.0719173 -0.000799213,-0.025752 0.00485433,-0.0514291 0.0163071,-0.0746024l0.00023622 0.00011811c0.0261772,-0.0527717 0.00461811,-0.11678 -0.0481535,-0.142957 -0.0148346,-0.00735827 -0.0305591,-0.0109449 -0.0460787,-0.011126 -0.0239016,-0.0023189 -0.0469528,-0.0100079 -0.067189,-0.0225472 -0.0209528,-0.0129843 -0.0390906,-0.0311575 -0.0522323,-0.0539252 -0.0213504,-0.0369843 -0.0256299,-0.0793701 -0.0152835,-0.11798 0.0102598,-0.0383031 0.0351142,-0.0726929 0.0721063,-0.0940945l0.000125984 0.000220472c0.00220472,-0.00127165 0.00434646,-0.00261417 0.00642126,-0.00401969 0.0128425,-0.00658268 0.0262913,-0.0112283 0.0399646,-0.0140157 0.0158504,-0.00323228 0.0326535,-0.00372047 0.0496811,-0.00163386 0.0584488,0.00713386 0.111618,-0.0344685 0.118752,-0.0929173 0.00713386,-0.0584488 -0.0344685,-0.111618 -0.0929173,-0.118752 -0.0382795,-0.00468898 -0.078126,-0.00316929 -0.11802,0.00497244 -0.0341181,0.00696063 -0.0678504,0.0189843 -0.100126,0.0363268 -0.00352756,0.00155512 -0.00700787,0.00331102 -0.0104252,0.00528346l0.0533346 0.092378 -0.0533346 -0.0920827c-0.0879724,0.0507913 -0.147043,0.132429 -0.171398,0.223335 -0.0242874,0.0906496 -0.0138858,0.190756 0.0369528,0.278815 0.0314882,0.0545394 0.0747717,0.0979724 0.124728,0.128925 0.0148346,0.00919291 0.0302441,0.0172913 0.0460984,0.024252 -0.00189764,0.0171535 -0.00259843,0.0344882 -0.00205512,0.0518622 0.00183465,0.0591417 0.0177559,0.118457 0.0491063,0.172752 0.0507913,0.0879724 0.132421,0.147043 0.223339,0.171402 0.0872087,0.0233661 0.183173,0.014622 0.268748,-0.0313543 0.00354724,-0.00155906 0.00704724,-0.00332677 0.0104803,-0.00530709l-0.0533346 -0.092374 0.0533346 0.0920827c0.033252,-0.0191969 0.0623465,-0.0427953 0.0869724,-0.0696181 0.025374,-0.0276417 0.0461732,-0.0590945 0.0620197,-0.0930118z"/>
  <path class="fil1" d="M2.03851 4.86276c-0.0582165,0.00851181 -0.0985118,0.0626181 -0.09,0.120835 0.00851181,0.0582165 0.0626181,0.0985118 0.120835,0.09 0.423839,-0.0629094 0.881051,-0.235988 1.29817,-0.476787l0.000129921 0.000220472c0.00299213,-0.00172835 0.00586614,-0.00358268 0.00862598,-0.00554724 0.41378,-0.240193 0.788768,-0.547484 1.05299,-0.880335 0.0365866,-0.0460236 0.0289409,-0.113 -0.0170827,-0.149587 -0.0460236,-0.0365866 -0.113,-0.0289409 -0.149587,0.0170827 -0.24826,0.31274 -0.601957,0.602224 -0.99302,0.829173 -0.00290157,0.00134252 -0.00577559,0.00282677 -0.00859843,0.00445669l0.0533346 0.092378 -0.0533346 -0.0920827c-0.394516,0.227776 -0.825181,0.391224 -1.22246,0.450193z"/>
  <path class="fil1" d="M2.39049 5.65244c-0.0363583,0.046252 -0.0283346,0.113228 0.0179173,0.149587 0.046252,0.0363583 0.113228,0.0283346 0.149587,-0.0179173 0.250165,-0.317228 0.610039,-0.611409 1.00781,-0.841059 0.398083,-0.229831 0.832874,-0.394496 1.23252,-0.452504 0.0582165,-0.00828346 0.0987008,-0.0622008 0.0904173,-0.120417 -0.00828346,-0.0582165 -0.0622008,-0.0987008 -0.120417,-0.0904173 -0.426039,0.0618386 -0.887484,0.236185 -1.30835,0.479173 -0.421177,0.243165 -0.803016,0.555654 -1.06948,0.893555z"/>
  <path class="fil1" d="M3.39041 2.39688c-0.0292244,-0.0508543 -0.0941457,-0.0683898 -0.145,-0.0391654 -0.0508543,0.0292244 -0.0683898,0.0941457 -0.0391654,0.145l0.115004 0.199193c0.0292244,0.0508543 0.0941457,0.0683898 0.145,0.0391654 0.0508543,-0.0292244 0.0683898,-0.0941457 0.0391654,-0.145l-0.115004 -0.199193z"/>
  <path class="fil1" d="M3.62042 2.50271c0.0292244,-0.0508543 0.011689,-0.115776 -0.0391654,-0.145 -0.0508543,-0.0292244 -0.115776,-0.011689 -0.145,0.0391654l-0.115004 0.199193c-0.0292244,0.0508543 -0.011689,0.115776 0.0391654,0.145 0.0508543,0.0292244 0.115776,0.011689 0.145,-0.0391654l0.115004 -0.199193z"/>
  <path class="fil1" d="M3.11444 3.05038c0,-0.0589094 -0.0477598,-0.106669 -0.106669,-0.106669 -0.0589094,0 -0.106669,0.0477598 -0.106669,0.106669l0 0.120764c0,0.0589094 0.0477598,0.106669 0.106669,0.106669 0.0589094,0 0.106669,-0.0477598 0.106669,-0.106669l0 -0.120764z"/>
  <path class="fil1" d="M3.38481 3.05038c0,-0.0589094 -0.0477598,-0.106669 -0.106669,-0.106669 -0.0589094,0 -0.106669,0.0477598 -0.106669,0.106669l0 0.120764c0,0.0589094 0.0477598,0.106669 0.106669,0.106669 0.0589094,0 0.106669,-0.0477598 0.106669,-0.106669l0 -0.120764z"/>
  <path class="fil1" d="M3.65519 3.05038c0,-0.0589094 -0.0477598,-0.106669 -0.106669,-0.106669 -0.0589094,0 -0.106669,0.0477598 -0.106669,0.106669l0 0.120764c0,0.0589094 0.0477598,0.106669 0.106669,0.106669 0.0589094,0 0.106669,-0.0477598 0.106669,-0.106669l0 -0.120764z"/>
  <path class="fil1" d="M3.92556 3.05038c0,-0.0589094 -0.0477598,-0.106669 -0.106669,-0.106669 -0.0589094,0 -0.106669,0.0477598 -0.106669,0.106669l0 0.120764c0,0.0589094 0.0477598,0.106669 0.106669,0.106669 0.0589094,0 0.106669,-0.0477598 0.106669,-0.106669l0 -0.120764z"/>
  <path class="fil1" d="M2.6106 3.329c-0.637634,-0.443016 -0.503331,-0.716461 -0.502957,-0.717276l0.0966654 0.0441654 -0.0969961 -0.044378c0.00272441,-0.00595669 0.00592913,-0.0115354 0.00954724,-0.0167244 0.107878,-0.193461 0.016874,-0.271697 0.0166142,-0.271929l-0.000291339 0.000326772c-0.012063,-0.0107913 -0.0210827,-0.0237126 -0.0270236,-0.0376811 -0.309362,-0.57548 -0.0935276,-0.980067 0.333209,-1.21283 0.268087,-0.146224 0.622055,-0.219343 0.973961,-0.219343 0.351906,0 0.705878,0.0731181 0.973965,0.219343 0.428965,0.233984 0.644909,0.641567 0.32839,1.22186l-0.0933346 -0.0508346 0.0936417 0.0510787c-0.00691339,0.0126732 -0.0160236,0.023378 -0.0265984,0.0319134 -0.016378,0.0180591 -0.0758189,0.101382 0.0249449,0.276122l0.000401575 -0.000232283c0.00846457,0.0146693 0.0130433,0.0305157 0.0140669,0.0463465 0.0127165,0.0887913 -0.0119331,0.332114 -0.512748,0.680075 -0.00379134,0.226457 -0.162846,0.381028 -0.382516,0.465291 -0.126488,0.0485197 -0.273799,0.0727835 -0.420209,0.0727835 -0.146409,0 -0.293717,-0.0242598 -0.420209,-0.0727795 -0.219673,-0.0842638 -0.378732,-0.238831 -0.382524,-0.465291zm-0.310366 -0.627031c-0.00541339,0.0167323 -0.0260118,0.14689 0.477256,0.482642 0.0327835,0.0212402 0.0526535,0.0597638 0.0480984,0.101236l-0.000228346 -2.3622e-005c-0.0159606,0.147051 0.0912874,0.250878 0.243598,0.309303 0.101858,0.0390669 0.222669,0.0586063 0.344374,0.0586063 0.121705,0 0.24252,-0.0195394 0.344374,-0.0586102 0.150185,-0.0576102 0.256559,-0.15937 0.244189,-0.303189 -0.00675197,-0.0401772 0.00993701,-0.0824291 0.0460315,-0.106492l0.0591693 0.088752 -0.0591654 -0.088752c0.504555,-0.33637 0.483909,-0.466724 0.478492,-0.483472 -0.161972,-0.286902 -0.0384646,-0.467213 0.00877165,-0.520693 0.23398,-0.439425 0.0721024,-0.746472 -0.249571,-0.921937 -0.235488,-0.128445 -0.552866,-0.192673 -0.872295,-0.192673 -0.319429,0 -0.636803,0.0642283 -0.872291,0.192673 -0.321677,0.175461 -0.483559,0.482512 -0.249575,0.921937 0.0470748,0.0533228 0.169988,0.232681 0.0102559,0.518051l-0.000413386 0.000940945 -9.05512e-005 -3.93701e-005 -0.000980315 0.00174016z"/>
  <path class="fil1" d="M2.78028 1.73332l3.93701e-006 3.93701e-006 -5.11811e-005 2.3622e-005c-0.0609409,0.0366378 -0.104748,0.0867953 -0.126531,0.138835 -0.0185748,0.0443819 -0.0202953,0.0887677 -0.000748031,0.122622l-0.0920827 0.0533346 0.092374 -0.0533346c0.00116535,0.00201575 0.00224803,0.00405906 0.00326378,0.00611417 0.0205236,0.0305118 0.0579055,0.0492441 0.102693,0.0549685 0.0556181,0.0071063 0.120315,-0.00537402 0.181969,-0.0389882 0.00433858,-0.00301969 0.00885039,-0.00567717 0.0134961,-0.00797638 0.0607795,-0.0366181 0.104469,-0.0866969 0.126213,-0.138646 0.0186378,-0.0445315 0.0203622,-0.0890709 0.000751969,-0.123043 -0.0195591,-0.0338819 -0.0587402,-0.0545906 -0.106252,-0.0606614 -0.0577835,-0.00738976 -0.125512,0.00650394 -0.189457,0.0434252l-0.0533346 -0.0920827 0.00320866 0.00555906 0.0501181 0.0865276 -0.00011811 7.08661e-005 0.000125984 0.000216535c-0.0018622,0.0010748 -0.00373622,0.00208268 -0.00563386,0.00302756l-7.87402e-006 3.93701e-006zm-0.108051 -0.183358c0.0015,-0.00102756 0.0030315,-0.00201969 0.00459843,-0.00298031l9.44882e-005 -5.90551e-005c0.00069685,-0.000429134 0.00140945,-0.00084252 0.00212205,-0.00125591l0.000208661 -0.000125984c0.00183071,-0.00105906 0.00370866,-0.00206693 0.00562205,-0.00302756l4.72441e-005 9.05512e-005c0.10374,-0.0583425 0.217087,-0.0796575 0.317126,-0.0668661 0.112138,0.0143346 0.208921,0.0706929 0.263748,0.165661 0.0547756,0.094878 0.0552559,0.206614 0.011752,0.310547 -0.0388031,0.0927008 -0.113476,0.17989 -0.215201,0.240559 -0.00226378,0.00154724 -0.0046063,0.00302756 -0.00702362,0.00442126l-0.0533307 -0.092378 0.0529173 0.0920827c-0.105228,0.060748 -0.22072,0.0830906 -0.322378,0.0700906 -0.107803,-0.0137835 -0.201406,-0.0664055 -0.257193,-0.154831l-0.000653543 -0.000897638 -0.000377953 -0.000519685c-0.00392126,-0.00543701 -0.00734646,-0.0112559 -0.0102008,-0.0173937 -0.0501535,-0.0931535 -0.0493661,-0.201531 -0.0070748,-0.302567 0.0388031,-0.0927047 0.113476,-0.179886 0.215197,-0.240551z"/>
  <path class="fil1" d="M4.18321 1.54261l4.72441e-005 -9.05512e-005c0.00191732,0.000956693 0.0037874,0.0019685 0.00562205,0.00302756l0.000208661 0.000125984 0.00212205 0.00125591 9.44882e-005 5.90551e-005c0.00156299,0.000956693 0.00309843,0.00195276 0.00459843,0.00298031 0.10172,0.0606654 0.176394,0.147846 0.215197,0.240551 0.0422913,0.101035 0.0430787,0.209413 -0.0070748,0.302567 -0.00285433,0.0061378 -0.00627953,0.0119567 -0.0102008,0.0173937l-0.000377953 0.000519685 -0.000653543 0.000897638c-0.0557874,0.0884252 -0.14939,0.141047 -0.257193,0.154831 -0.101657,0.013 -0.21715,-0.00934252 -0.322378,-0.0700906l0.0529173 -0.0920827 -0.0533307 0.092378c-0.00241732,-0.0013937 -0.00475984,-0.00287008 -0.00702362,-0.00442126 -0.101724,-0.0606693 -0.176398,-0.147858 -0.215201,-0.240559 -0.0435039,-0.103933 -0.0430236,-0.215669 0.011752,-0.310547 0.0548268,-0.0949685 0.15161,-0.151327 0.263748,-0.165661 0.100039,-0.0127913 0.213386,0.00852362 0.317126,0.0668661zm-0.095311 0.190744l-5.11811e-005 -2.3622e-005 3.93701e-006 -3.93701e-006 -7.87402e-006 -3.93701e-006c-0.0018937,-0.000944882 -0.00377559,-0.00195276 -0.00563386,-0.00302756l0.000125984 -0.000216535 -0.00011811 -7.08661e-005 0.0501181 -0.0865276 0.00320866 -0.00555906 -0.0533346 0.0920827c-0.0639449,-0.0369213 -0.131673,-0.050815 -0.189457,-0.0434252 -0.0475118,0.00607087 -0.0866929,0.0267795 -0.106252,0.0606614 -0.0196102,0.0339724 -0.0178858,0.0785118 0.000751969,0.123043 0.0217441,0.0519488 0.065437,0.102024 0.126213,0.138646 0.00464173,0.00229921 0.00915748,0.00495669 0.0134961,0.00797638 0.0616535,0.0336142 0.12635,0.0460945 0.181969,0.0389882 0.0447874,-0.00572441 0.0821693,-0.0244567 0.102693,-0.0549685 0.00101575,-0.00205906 0.00209843,-0.00409843 0.00326378,-0.00611417l0.092374 0.0533346 -0.0920827 -0.0533346c0.0195472,-0.0338543 0.0178268,-0.0782402 -0.000748031,-0.122622 -0.0217835,-0.0520433 -0.0655906,-0.102197 -0.126531,-0.138835z"/>
 </g>
</svg>
