<?xml version="1.0" encoding="UTF-8"?>
<!DOCTYPE svg PUBLIC "-//W3C//DTD SVG 1.1//EN" "http://www.w3.org/Graphics/SVG/1.1/DTD/svg11.dtd">
<!-- Creator: CorelDRAW -->
<svg xmlns="http://www.w3.org/2000/svg" xml:space="preserve" width="6.82666in" height="6.82666in" style="shape-rendering:geometricPrecision; text-rendering:geometricPrecision; image-rendering:optimizeQuality; fill-rule:evenodd; clip-rule:evenodd"
viewBox="0 0 6.82666 6.82666"
 xmlns:xlink="http://www.w3.org/1999/xlink">
 <defs>
  <style type="text/css">
   <![CDATA[
    .fil0 {fill:#424242}
    .fil1 {fill:#FFFFFE;fill-rule:nonzero}
   ]]>
  </style>
 </defs>
 <rect class="fil0" width="6.82666" height="6.82666"/>
 <g id="Layer_x0020_1">
  <metadata id="CorelCorpID_0Corel-Layer"/>
  <path class="fil1" d="M4.42419 1.58232c0.0115039,-0.0575276 -0.0258031,-0.113496 -0.0833307,-0.125 -0.0575276,-0.0115039 -0.113496,0.0258031 -0.125,0.0833307 -0.000366142,0.00181496 -0.124831,0.631988 -0.418713,0.923075 -0.0416496,0.0414213 -0.0418386,0.108768 -0.000417323,0.150417 0.0414213,0.0416496 0.108768,0.0418386 0.150417,0.000417323 0.339772,-0.336543 0.476642,-1.03024 0.477043,-1.03224z"/>
  <path class="fil1" d="M5.20845 1.93753c0.0517756,-0.0278425 0.0711772,-0.0923937 0.0433346,-0.144169 -0.0278425,-0.0517756 -0.0923937,-0.0711772 -0.144169,-0.0433346l-1.28589 0.695366 0.0504173 0.093752 -0.0507402 -0.0938268c-0.00661024,0.0035748 -0.012689,0.00774409 -0.0182087,0.0124134l-0.567126 0.415835c-0.0474016,0.034748 -0.0576654,0.10135 -0.0229173,0.148752 0.034748,0.0474016 0.10135,0.0576654 0.148752,0.0229173l0.567142 -0.415846 1.2794 -0.691858z"/>
  <path class="fil1" d="M3.31793 2.96964c-0.0575276,0.0117362 -0.0946496,0.0678898 -0.0829134,0.125417 0.0117362,0.0575276 0.0678898,0.0946496 0.125417,0.0829134l0.866606 -0.177091 0.159524 0.0702402 -5.51181e-005 0.000125984c0.0238622,0.0105079 0.0494961,0.011563 0.0727165,0.00481102l0.441567 -0.0902362 0.750075 -0.153276c0.0575276,-0.0117362 0.0946496,-0.0678898 0.0829134,-0.125417 -0.0117362,-0.0575276 -0.0678898,-0.0946496 -0.125417,-0.0829134l-0.750075 0.153276 -0.416559 0.085126 -0.154516 -0.0680354c-0.0206654,-0.0104134 -0.0448583,-0.0142087 -0.0692913,-0.00921654l7.08661e-005 0.000350394 -0.900063 0.183925z"/>
  <path class="fil1" d="M5.85624 3.46839c0.0584488,0.00575197 0.1105,-0.0369685 0.116252,-0.0954173 0.00575197,-0.0584488 -0.0369685,-0.1105 -0.0954173,-0.116252l-0.909587 -0.0927992 -0.211819 -0.151217 0.000177165 -0.000248031c-0.0072874,-0.00520472 -0.0150118,-0.00935433 -0.0229843,-0.0124921l-0.257949 -0.122587c-0.0531575,-0.0250827 -0.116587,-0.00232283 -0.141669,0.0508346 -0.0250827,0.0531575 -0.00232283,0.116587 0.0508346,0.141669l0.255941 0.121634 0.220157 0.157173c0.0157874,0.0132283 0.0355669,0.0220315 0.0576024,0.0242795l0.0108268 -0.106118 -0.0104173 0.105835 0.938051 0.0957047z"/>
  <path class="fil1" d="M5.59152 4.27282c0.0439488,0.0388898 0.11111,0.0347835 0.15,-0.00916535 0.0388898,-0.0439488 0.0347835,-0.11111 -0.00916535,-0.15l-0.57961 -0.51298 -0.123299 -0.367579c-0.0186378,-0.055689 -0.0788976,-0.0857205 -0.134587,-0.0670827 -0.055689,0.0186378 -0.0857205,0.0788976 -0.0670827,0.134587l0.12965 0.386508c0.00502362,0.0202402 0.0160118,0.0392244 0.032811,0.0540906l0.0706929 -0.079878 -0.0704173 0.0795827 0.601008 0.531917z"/>
  <path class="fil1" d="M3.37887 3.17132c-0.0510827,-0.0292244 -0.116193,-0.0115 -0.145417,0.0395827 -0.0292244,0.0510827 -0.0115,0.116193 0.0395827,0.145417l0.599421 0.344161 -0.0367756 0.0485787 -0.000133858 -0.000102362c-0.0335748,0.0443425 -0.0271929,0.106457 0.0131535,0.143185l0.194425 0.204587 -0.0482087 0.195665 -0.000244094 -5.90551e-005c-0.0100787,0.0409094 0.00493307,0.082122 0.0352244,0.107433l0.624323 0.608012c0.0421102,0.0409567 0.109461,0.0400236 0.150417,-0.00208661 0.0409567,-0.0421102 0.0400236,-0.109461 -0.00208661,-0.150417l-0.586413 -0.571094 0.0457559 -0.18572c0.0115787,-0.0359567 0.00365748,-0.0769685 -0.0241969,-0.10628l-0.0773189 0.0734803 0.0770827 -0.0733346 -0.177441 -0.186713 0.0515827 -0.0681378c0.00418504,-0.00492126 0.00798031,-0.0102835 0.011311,-0.0160827 0.0293307,-0.0510866 0.0116929,-0.116283 -0.0393937,-0.145614l-0.0531102 0.0925039 0.0529173 -0.0925 -0.704457 -0.404465z"/>
  <path class="fil1" d="M3.49607 4.72516c-0.00644094,0.0584488 0.0357205,0.111059 0.0941693,0.1175 0.0584488,0.00644094 0.111059,-0.0357205 0.1175,-0.0941693l0.0490866 -0.442323 0.255846 -0.439484c0.0294528,-0.0508543 0.0121063,-0.115965 -0.038748,-0.145417 -0.0508543,-0.0294528 -0.115965,-0.0121063 -0.145417,0.038748l-0.263213 0.452138c-0.00951181,0.0139409 -0.0158543,0.0303465 -0.0178465,0.0482913l0.106016 0.0117638 -0.105835 -0.0116654 -0.0515591 0.464618z"/>
  <path class="fil1" d="M3.16673 3.29603c-0.0255433,-0.0529252 -0.0891614,-0.075126 -0.142087,-0.0495827 -0.0529252,0.0255433 -0.075126,0.0891614 -0.0495827,0.142087l0.208181 0.429811 -0.0333346 0.0033622 0.0104173 0.105835 -0.0106969 -0.10613c-0.0389843,0.00392913 -0.070937,0.0283898 -0.0862283,0.0615787l-0.0963268 0.178039 -0.000192913 -0.000102362c-0.00356693,0.00659449 -0.0063622,0.0133976 -0.00842913,0.020311l-0.278272 0.736776c-0.0207087,0.0549961 0.00708661,0.116374 0.0620827,0.137083 0.0549961,0.0207087 0.116374,-0.00708661 0.137083,-0.0620827l0.278256 -0.736736 0.0695709 -0.128591 0.120366 -0.0121339c0.0149094,-0.000299213 0.0299961,-0.00373622 0.0442953,-0.0106614 0.0530157,-0.0256772 0.0751811,-0.0894803 0.0495039,-0.142496l-0.000228346 0.000110236 -0.274378 -0.566476z"/>
  <path class="fil1" d="M2.76837 5.85042c-0.00897244,0.0579882 0.0307598,0.11228 0.088748,0.121252 0.0579882,0.00897244 0.11228,-0.0307598 0.121252,-0.088748l0.0957008 -0.611925 0.257969 -0.423213 -0.0908346 -0.0554173 0.0910787 0.0555197c0.00749213,-0.0122874 0.0121929,-0.0254961 0.0143031,-0.0388819l0.0879843 -0.359472 0.00034252 8.26772e-005c0.00538189,-0.0219843 0.00351575,-0.0440394 -0.00405906,-0.0636693l-0.169693 -0.492984c-0.0190984,-0.055689 -0.0797283,-0.0853504 -0.135417,-0.066252 -0.055689,0.0190984 -0.0853504,0.0797283 -0.066252,0.135417l0.160992 0.467709 -0.078563 0.320972 -0.25635 0.420563c-0.00935433,0.0130866 -0.0158819,0.0284961 -0.0185354,0.0454724l0.105386 0.0164803 -0.105 -0.016252 -0.0990512 0.633346z"/>
  <path class="fil1" d="M3.35987 5.43365c0.0216299,0.0547638 0.0835669,0.0816299 0.138331,0.06 0.0547638,-0.0216299 0.0816299,-0.0835669 0.06,-0.138331l-0.23028 -0.581701c-0.0216299,-0.0547638 -0.0835669,-0.0816299 -0.138331,-0.06 -0.0547638,0.0216299 -0.0816299,0.0835669 -0.06,0.138331l0.23028 0.581701z"/>
  <path class="fil1" d="M2.90855 3.37107c0.0421102,-0.0409567 0.0430433,-0.108307 0.00208661,-0.150417 -0.0409567,-0.0421102 -0.108307,-0.0430433 -0.150417,-0.00208661l-0.381807 0.370205c-0.0421102,0.0409567 -0.0430433,0.108307 -0.00208661,0.150417 0.0409567,0.0421102 0.108307,0.0430433 0.150417,0.00208661l0.381807 -0.370205z"/>
  <path class="fil1" d="M2.3815 4.61838c0.00920079,0.0579882 0.0636772,0.0975354 0.121665,0.0883346 0.0579882,-0.00920079 0.0975354,-0.0636772 0.0883346,-0.121665 -0.000366142,-0.00229528 -0.129067,-0.802012 -0.0843346,-0.828768 0.0503937,-0.0301417 0.066811,-0.0954409 0.0366693,-0.145835 -0.0301417,-0.0503937 -0.0954409,-0.066811 -0.145835,-0.0366693 -0.169461,0.10137 -0.0169331,1.0419 -0.0165,1.0446z"/>
  <path class="fil1" d="M0.902079 4.22572c-0.0492441,0.0319843 -0.0632323,0.0978386 -0.031248,0.147083 0.0319843,0.0492441 0.0978386,0.0632323 0.147083,0.031248l0.488185 -0.317705 -0.0579173 -0.0891654 0.0581811 0.0894016c0.00265354,-0.00172835 0.00519685,-0.00355906 0.00764173,-0.00547244l0.131878 -0.090252 0.117461 0.0119803 -3.14961e-005 0.000322835c0.0153661,0.00156693 0.0302992,-0.000216535 0.0440866,-0.00474803l0.143465 -0.0385236 -0.0275 -0.102917 0.0276614 0.10302c0.0165,-0.00442913 0.0310512,-0.0125 0.0430236,-0.0231102l0.238484 -0.182697 0.211713 0.0170906c0.0586811,0.00460236 0.109984,-0.0392362 0.114587,-0.0979173 0.00460236,-0.0586811 -0.0392362,-0.109984 -0.0979173,-0.114587l-0.247752 -0.02c-0.0266575,-0.00319291 -0.0545394,0.0036063 -0.0775354,0.0212244l0.000149606 0.00019685 -0.260157 0.199299 -0.110669 0.0297165 -0.128264 -0.0130866c-0.0266181,-0.00479134 -0.0550512,0.000468504 -0.0791299,0.0169488l0.000125984 0.000185039 -0.163972 0.112224c-0.00124409,0.000740157 -0.00248425,0.00150394 -0.00370866,0.00229921l0.000106299 0.000165354 -0.0019252 0.0013189 5.11811e-005 7.48031e-005 -0.486154 0.316382z"/>
  <path class="fil1" d="M2.618 2.73928c0.0515472,0.0283031 0.116283,0.00946457 0.144587,-0.0420827 0.0283031,-0.0515472 0.00946457,-0.116283 -0.0420827,-0.144587l-0.415047 -0.228291 0.0640354 -0.0532598 -0.0679173 -0.0816654 0.0682087 0.0820118c0.0452913,-0.0376693 0.0514724,-0.104929 0.0138031,-0.15022 -0.0073622,-0.00885039 -0.0158543,-0.0162008 -0.0250906,-0.0220276l-0.311358 -0.228606 -0.0682953 -0.243276 -0.1025 0.028752 0.102697 -0.0288307c-0.00581496,-0.0207126 -0.0173583,-0.0382677 -0.032437,-0.051437l-0.495437 -0.505039c-0.041189,-0.0418819 -0.108535,-0.0424409 -0.150417,-0.00125197 -0.0418819,0.041189 -0.0424409,0.108535 -0.00125197,0.150417l0.481681 0.49102 0.0690984 0.246138c0.00529134,0.0246142 0.019252,0.0474646 0.0411417,0.0635354l0.0631299 -0.0859803 -0.0629173 0.0858346 0.237406 0.174307 -0.0717795 0.0597008c-0.0133701,0.0091378 -0.0248583,0.0214646 -0.0331969,0.036622 -0.0283898,0.0516142 -0.00956299,0.11648 0.0420512,0.14487l0.0514094 -0.0934606 -0.051252 0.0933346 0.551732 0.303472z"/>
  <path class="fil1" d="M1.70609 3.17448c-0.0197874,0.0552283 0.00893701,0.116047 0.0641654,0.135835 0.0552283,0.0197874 0.116047,-0.00893701 0.135835,-0.0641654l0.311425 -0.867839c0.0197874,-0.0552283 -0.00893701,-0.116047 -0.0641654,-0.135835 -0.0552283,-0.0197874 -0.116047,0.00893701 -0.135835,0.0641654l-0.311425 0.867839z"/>
  <path class="fil1" d="M3.97937 1.00542c0.0250827,-0.0531575 0.00232283,-0.116587 -0.0508346,-0.141669 -0.0531575,-0.0250827 -0.116587,-0.00232283 -0.141669,0.0508346l-0.537791 1.1411 -0.139988 -0.0727402 -0.0491654 0.0945827 0.0491811 -0.0946535c-0.0522756,-0.0271614 -0.116673,-0.00680315 -0.143835,0.0454724 -0.00269685,0.00519291 -0.00491732,0.0105039 -0.00669291,0.0158898l-0.250043 0.65515c-0.0209409,0.0549961 0.00666929,0.116559 0.0616654,0.1375 0.0549961,0.0209409 0.116559,-0.00666929 0.1375,-0.0616654l0.209142 -0.547988 0.128638 0.0668425c0.0023189,0.00131496 0.00470472,0.00255118 0.00715748,0.00370472 0.0532874,0.0251102 0.11685,0.00227165 0.141961,-0.0510157l-0.000212598 -0.000102362 0.584988 -1.24124z"/>
  <path class="fil1" d="M3.16554 0.969583c-0.0112756,-0.0577559 -0.0672441,-0.0954409 -0.125,-0.0841654 -0.0577559,0.0112756 -0.0954409,0.0672441 -0.0841654,0.125l0.237157 1.21129c0.0112756,0.0577559 0.0672441,0.0954409 0.125,0.0841654 0.0577559,-0.0112756 0.0954409,-0.0672441 0.0841654,-0.125l-0.237157 -1.21129z"/>
  <path class="fil1" d="M3.35049 2.93117c0.0061378,0.0174764 0.0110236,0.0352559 0.0146929,0.0532008 0.018878,0.0924094 0.00338583,0.18215 -0.0394252,0.256917 -0.0426811,0.0745551 -0.112256,0.133669 -0.201661,0.165083 -0.017189,0.00603543 -0.0353504,0.0110551 -0.0544094,0.0149488 -0.109764,0.0224252 -0.223047,0.000877953 -0.317465,-0.0520945 -0.0947756,-0.0531693 -0.171917,-0.13876 -0.208945,-0.244146 -0.0061378,-0.0174764 -0.0110236,-0.0352638 -0.0146929,-0.0532008 -0.018878,-0.0924094 -0.00338189,-0.18215 0.0394252,-0.256917 0.0426811,-0.0745551 0.11226,-0.133669 0.201665,-0.165079 0.0171811,-0.00603937 0.0353386,-0.0110551 0.0544094,-0.0149528 0.10976,-0.0224291 0.223043,-0.000877953 0.317465,0.0520945 0.0947717,0.0531693 0.171913,0.13876 0.208941,0.244146zm-0.193638 0.0957047c-0.0016811,-0.00822835 -0.0040748,-0.016815 -0.00719685,-0.0257047 -0.0190551,-0.0542362 -0.0605669,-0.0993031 -0.112272,-0.128311 -0.052063,-0.0292087 -0.113114,-0.0413858 -0.170795,-0.0295984 -0.00915354,0.00187008 -0.0181457,0.00437402 -0.0269134,0.00745669 -0.0388307,0.0136417 -0.0687165,0.0387244 -0.0866654,0.0700787 -0.0178228,0.0311339 -0.0241732,0.0690394 -0.0160945,0.108579 0.0016811,0.00822835 0.0040748,0.016815 0.00719685,0.0257047 0.0190551,0.0542362 0.0605709,0.0993071 0.112276,0.128311 0.052063,0.0292087 0.113114,0.0413819 0.170795,0.0295984 0.00915748,-0.00187008 0.0181496,-0.00437402 0.0269134,-0.00745276 0.0388307,-0.0136417 0.0687126,-0.0387244 0.0866614,-0.0700827 0.0178268,-0.0311339 0.0241732,-0.0690394 0.0160945,-0.108579z"/>
 </g>
</svg>
