<?xml version="1.0" encoding="UTF-8"?>
<!DOCTYPE svg PUBLIC "-//W3C//DTD SVG 1.1//EN" "http://www.w3.org/Graphics/SVG/1.1/DTD/svg11.dtd">
<!-- Creator: CorelDRAW -->
<svg xmlns="http://www.w3.org/2000/svg" xml:space="preserve" width="2048px" height="2048px" style="shape-rendering:geometricPrecision; text-rendering:geometricPrecision; image-rendering:optimizeQuality; fill-rule:evenodd; clip-rule:evenodd"
viewBox="0 0 2048 2048"
 xmlns:xlink="http://www.w3.org/1999/xlink">
 <defs>
  <style type="text/css">
   <![CDATA[
    .fil0 {fill:none}
    .fil2 {fill:#455A64}
    .fil1 {fill:#455A64;fill-rule:nonzero}
   ]]>
  </style>
 </defs>
 <g id="Layer_x0020_1">
  <metadata id="CorelCorpID_0Corel-Layer"/>
  <g id="_316753792">
   <path id="_316757176" class="fil0" d="M1336.47 488.927c-4.8437,24.3095 -11.7402,49.3311 -18.9024,73.0205 -15.3543,50.7839 -34.9855,101.906 -60.45,148.493 -17.6433,32.2784 -39.0036,63.9437 -65.1886,89.9327"/>
   <path id="_316757128" class="fil1" d="M1253.73 776.265c-11.8158,16.6004 -24.8587,32.4024 -39.2977,46.7339l-45 -45.2504c11.7437,-11.6563 22.4776,-24.6851 32.2985,-38.4827 75.7075,-106.373 86.38,-229.356 159.015,-345.795 10.0736,144.267 -23.2795,265.131 -107.016,382.794z"/>
   <polyline id="_316757488" class="fil0" points="1559.06,604.043 1183.97,806.883 1018.14,928.472 "/>
   <polygon id="_316757704" class="fil1" points="1201.04,833.956 1037.02,954.223 999.269,902.722 1165.09,781.132 1168.84,778.757 1668.68,562.974 "/>
   <path id="_316757416" class="fil0" d="M1684.78 868.675l-350.246 71.5725c-10.4516,2.13543 -20.9315,1.93228 -30.828,-2.42599l-14.3114 -6.30237 0.0153543 -0.0354331 -28.0075 -12.3331 -249.823 51.0508"/>
   <path id="_316756720" class="fil1" d="M1340.91 971.498c-7.95473,1.6252 -15.9886,2.35748 -23.9977,1.84843 -8.8252,-0.562205 -17.563,-2.52284 -26.0811,-6.27402l-14.3114 -6.30237 -18.854 -8.30197 -239.711 48.9839 -12.7512 -62.4993 249.823 -51.0508 19.2508 1.99961 28.0075 12.3331 15.1819 6.68623c1.11024,0.386221 2.26417,0.6 3.4441,0.67441 2.31732,0.146457 4.75512,-0.0874016 7.24725,-0.596457l463.839 -65.2701 -451.088 127.769z"/>
   <path id="_316756624" class="fil0" d="M1740.41 1055.8l-269.954 -27.5421 -0.120473 0.0838583 -5.7567 -0.588189c-9.12402,-0.929528 -17.0669,-4.70315 -24.4465,-9.97205l-63.58 -45.391 -73.9737 -35.1555"/>
   <path id="_316756408" class="fil1" d="M1467.39 1060.01l-0.304725 0.0779528 -5.7567 -0.588189 0.0011811 -0.0129921c-7.98308,-0.825591 -15.3071,-2.82638 -22.128,-5.72126 -6.27993,-2.66575 -12.0839,-6.07323 -17.5689,-9.98859l-61.2355 -43.7174 -71.4438 -33.9532 27.2504 -57.7512 73.9737 35.1555 4.87441 2.87599 63.58 45.391c1.89213,1.35 3.75355,2.46732 5.5689,3.2374 1.23898,0.525591 2.41536,0.874016 3.50315,0.983859l0.125197 0 5.52048 0.564567 0.231496 -0.0602363 318.415 67.4752 -324.606 -3.96851z"/>
   <path id="_316756288" class="fil0" d="M1653.81 1288.38l-165.215 -146.223 -0.080315 0.0874016 -11.4307 -10.1173c-6.95552,-6.15355 -11.1992,-13.9524 -14.1177,-22.6512l-38.1071 -113.602"/>
   <path id="_316756864" class="fil1" d="M1490.94 1186.8l-0.0814961 0.0885827 -23.4685 -20.7721 -11.4307 -10.1173c-6.17953,-5.46851 -11.0091,-11.4201 -14.8228,-17.7461 -3.47953,-5.77087 -6.20079,-12.039 -8.42009,-18.6543l-38.1071 -113.602 60.5008 -20.2512 38.1071 113.602c0.698032,2.08229 1.56142,4.06654 2.67047,5.90552 0.465355,0.772442 0.93189,1.45276 1.39725,2.01969l12.4358 11.0067 202.623 215.25 -221.404 -146.73z"/>
   <path id="_316756816" class="fil0" d="M1393.45 1503.89l-183.501 -178.706c-12.4854,-12.1583 -18.8929,-29.2796 -14.6362,-46.5555l3.73347 -15.1559 0.0720473 0.0165354 -7.29213 -34.0229 -51.2363 -53.9138c-16.252,-17.1024 -19.5732,-43.0996 -5.00079,-62.3457l0.0614174 -0.0791339 -160.702 -92.269"/>
   <path id="_316756456" class="fil1" d="M1187.7 1348.06c-10.1847,-9.91654 -17.8689,-22.0666 -22.0618,-35.4012 -4.12087,-13.1114 -4.86142,-27.3047 -1.3252,-41.6552l2.00315 -8.13426 -3.8504 -17.9634 -45 -47.3528c-13.4091,-14.1095 -21.3898,-32.0847 -22.8673,-50.5288 -0.536221,-6.6815 -0.233858,-13.4162 0.955513,-20.054l-136.48 -78.3615 31.7504 -55.5 160.702 92.269 31.852 18.2882 -22.324 28.7634 0.0354331 0.0271654c-2.15315,2.8441 -3.00827,6.2256 -2.74016,9.56694 0.328347,4.09843 2.20158,8.19922 5.36575,11.5287l51.2363 53.9138 8.12481 15.3756 7.29213 34.0229 10.4941 48.9662 -6.60237 -1.51536 208.758 242.506 -255.318 -198.762z"/>
   <line id="_316755808" class="fil0" x1="1155.78" y1="1191.53" x2="1157.45" y2= "1418.18" />
   <polygon id="_316756000" class="fil1" points="1187.65,1191.41 1158.94,1495.91 1123.9,1191.66 "/>
   <path id="_316755976" class="fil0" d="M981.744 1016.01c39.2197,80.9729 131.555,189.823 -2.63504,203.349l-97.4032 245.111"/>
   <path id="_316755832" class="fil1" d="M1010.49 1002.13c6.61418,13.6571 14.9539,28.3807 23.3941,43.2839 21.3343,37.6713 43.2567,76.3772 46.8426,111.957 4.53189,44.967 -14.0835,79.2095 -78.8564,90.9957l-156.636 306.676 104.244 -347.437 7.17402 -18.0532 19.3264 -1.94764c32.641,-3.28937 42.4193,-12.339 41.2465,-23.9835 -2.22166,-22.0488 -20.7815,-54.8162 -38.8418,-86.7072 -9.08387,-16.0394 -18.0591,-31.8862 -25.3949,-47.0327l57.5008 -27.7512z"/>
   <path id="_316755880" class="fil0" d="M1013.31 1215.73l30.6544 89.054c3.06733,8.90788 3.8504,18.3449 1.59685,27.5421l-3.71457 15.1772 -0.100394 -0.0248032 -22.1445 90.4784c-1.38662,5.66103 -2.97992,10.8319 -6.04607,15.8622l-7.01693 11.5075 -0.0696851 -0.0295276 -67.1859 110.221 -27.6461 176.779"/>
   <path id="_316756264" class="fil1" d="M1043.56 1205.36l30.6544 89.054c2.44725,7.10906 3.97914,14.687 4.4374,22.5933 0.434646,7.50119 -0.212599,15.1571 -2.09055,22.8236l-3.71457 15.1772 -7.62638 31.1587 -0.100394 -0.0248032 -14.5181 59.3197c-0.966142,3.94488 -2.01851,7.75276 -3.39331,11.5429 -1.65118,4.54252 -3.68977,8.99528 -6.40276,13.4445l-7.01693 11.5075 -14.3138 23.4744 -0.0661418 -0.0283465 -49.6311 81.4217 -65.5217 205.177 3.52677 -221.354 4.24961 -11.7496 67.1859 -110.221 7.61812 -12.4973c0.132284,-0.295276 0.255118,-0.604725 0.372048,-0.925985 0.531496,-1.46457 0.972048,-3.07441 1.39252,-4.79174l22.1445 -90.4784 4.09134 -16.7138c0.100394,-0.881103 0.119291,-1.80591 0.0637796,-2.76142 -0.0885827,-1.54488 -0.500788,-3.35197 -1.18701,-5.34449l-30.6544 -89.054 60.5008 -20.7496z"/>
   <line id="_316754896" class="fil0" x1="1020.26" y1="1435.24" x2="1081.15" y2= "1589.04" />
   <polygon id="_316755304" class="fil1" points="1050.01,1423.5 1106.87,1650.43 990.512,1446.99 "/>
   <line id="_316755112" class="fil0" x1="886.537" y1="1022.85" x2="770.703" y2= "1134.82" />
   <polygon id="_316755376" class="fil1" points="908.663,1045.85 792.829,1157.82 748.577,1111.82 864.412,999.855 "/>
   <path id="_316755064" class="fil0" d="M770.704 1134.82c-0.26811,3.24213 -0.168898,7.43623 -0.131102,9.76418 0.146457,8.97048 0.794883,18.0236 1.5378,26.9634 2.04095,24.5823 5.05158,49.2118 8.23583,73.6713 5.24528,40.3063 11.1839,80.5867 17.5713,120.732"/>
   <path id="_316754848" class="fil1" d="M802.58 1137.44c-0.20315,2.45197 -0.164173,4.67126 -0.140551,6.06851l0.00944883 0.570473c0.0507874,3.12166 0.253937,7.3063 0.54567,12.1169 7.72442,127.818 31.1173,173.17 11.4012,305.831 -59.5382,-113.028 -67.2591,-171.619 -75.1524,-302.08 -0.253937,-4.18937 -0.451181,-9.02127 -0.54567,-14.8689l-0.00944883 -0.570473c-0.0578741,-3.39685 -0.151181,-8.78859 0.140551,-12.3189l63.7512 5.25119z"/>
   <path id="_316755328" class="fil0" d="M770.704 1134.82l-89.0268 5.49685 -65.3091 50.0327c-5.54764,4.24843 -11.3055,7.66064 -18.1134,9.48898l-6.64725 1.78347 -0.046063 -0.0295276 -35.5205 9.53859c-6.13701,1.64764 -12.2528,2.49921 -18.613,1.84961l-15.5268 -1.58268 0.00944883 -0.0944883 -13.2898 -1.35591 -34.0264 23.2866c-0.859843,0.588189 -1.65591,1.22835 -2.54292,1.80709l-10.0642 6.55512 -0.0826772 -0.0732284 -133.422 86.83"/>
   <path id="_316754584" class="fil1" d="M772.58 1166.69l-79.2237 4.89095 -57.613 44.1378c-4.01811,3.07796 -8.22284,5.91142 -12.8339,8.40237 -5.09174,2.75315 -10.4976,5.00079 -16.4043,6.58701l-6.64725 1.78347 -13.5768 3.64252 -0.0425197 -0.0271654 -21.9473 5.89371c-4.41969,1.18701 -9.06851,2.11417 -14.0976,2.66103 -5.13544,0.561024 -10.4445,0.63189 -16.0158,0.0637796l0.0011811 -0.0129921 -15.4028 -1.56969 -1.85315 -0.188977 -24.3284 16.65 -0.22441 0.162992c-1.09134,0.80315 -2.16851,1.59449 -2.81811,2.01851l-0.125197 0 -10.0642 6.55512 -20.315 13.2319 -0.0897638 -0.0791339 -202.958 93.3922 188.53 -160.117 10.9217 -7.10788c0.361418,-0.262205 0.735827,-0.527953 1.14331,-0.806694l34.0264 -23.2866 21.1252 -5.3752 13.2898 1.35591 16.8579 1.71969c0.48189,-0.00944883 0.999213,-0.0472441 1.54843,-0.106299 1.15039,-0.125197 2.63386,-0.45 4.34882,-0.910631l35.5205 -9.53859 7.58741 -2.03858c0.591733,-0.217323 1.17756,-0.487796 1.75984,-0.80315 1.35473,-0.731103 2.8063,-1.73032 4.33465,-2.90079l65.3091 -50.0327 17.4992 -6.50079 89.0268 -5.49685 3.75118 63.7512z"/>
   <path id="_316754296" class="fil0" d="M782.672 839.64l-152.993 -84.1512 -0.046063 0.0366142 -9.17127 -5.04449c-22.741,-12.5079 -31.05,-41.1307 -18.541,-63.8693 3.42638,-6.22914 8.0752,-10.7752 13.4681,-15.261l5.68347 -4.72559 -44.654 -32.7862 -0.0625985 0.0425197 -8.96339 -6.57993c-9.12757,-6.70276 -14.8784,-16.2874 -17.9067,-27.0732l-19.2225 -68.4745 -138.76 -141.45"/>
   <path id="_316754080" class="fil1" d="M767.297 867.641l-134.388 -73.9182 -0.046063 0.0366142 -18.6047 -10.2331 -9.17127 -5.04449 -0.0177165 -0.0106299c-19.0559,-10.4858 -32.0764,-27.7666 -37.7209,-47.2134 -5.60906,-19.3205 -3.91654,-40.7351 6.39213,-59.6894l-16.2591 -11.9362 -8.96339 -6.57993c-7.58505,-5.57008 -13.7717,-12.235 -18.6921,-19.6736 -5.01378,-7.57914 -8.65867,-15.8693 -11.0894,-24.5244l-17.0221 -60.6367 -144.832 -193.412 196.132 154.573 7.99961 13.7492 19.2225 68.4745c0.698032,2.4874 1.63937,4.70788 2.84055,6.52441 0.64252,0.972048 1.37244,1.84606 2.19095,2.59961l10.0264 7.36182 44.654 32.7862 32.8914 24.15 -31.3914 26.1 -5.68347 4.72559c-1.75276,1.45748 -3.27284,2.80394 -4.34646,3.97677 -0.484252,0.529134 -0.977954,1.21654 -1.49646,2.16024l-0.00708662 0.0129921c-2.03032,3.69803 -2.38465,7.82599 -1.31693,11.5075 0.95315,3.28701 3.05906,6.26339 6.13111,8.30079l10.3264 5.67993 152.993 84.1512 -30.7512 56.0008z"/>
   <line id="_316754656" class="fil0" x1="668.671" y1="776.937" x2="595.738" y2= "980.178" />
   <polygon id="_316754680" class="fil1" points="698.671,787.687 569.763,1064.48 638.671,766.186 "/>
   <path id="_316753984" class="fil0" d="M1204.54 322.973l-165.311 350.762 0.0614174 0.0307087 -6.62599 14.0599c-11.0516,23.4532 -39.1264,33.5374 -62.5808,22.4953 -0.907087,-0.426378 -1.76811,-0.901182 -2.65512,-1.36181l-22.2059 -11.5394 -55.2012 144.637"/>
   <path id="_316753384" class="fil1" d="M1081.38 659.187l0.0602363 0.0307087 -13.2768 28.1729 -6.62599 14.0599c-9.25394,19.6394 -25.6937,33.704 -44.7615,40.5567 -17.0941,6.1441 -36.2788,6.45119 -54.2587,-0.258662l-42.6237 111.683 -59.7497 -22.7504 55.2012 -144.637 12.8008 -33.5374 31.8236 16.5378 22.2059 11.5394 0 0.125197 0.733465 0.38504 0.125197 0c0.811418,0.42874 -0.474804,-0.12874 0.546851,0.350788l0.125197 0c3.79016,1.78347 7.93701,1.86732 11.5689,0.562205 3.1689,-1.13858 5.9752,-3.3815 7.82363,-6.51024l7.25197 -15.3874 222.526 -404.11 -151.497 403.187z"/>
   <line id="_316753648" class="fil0" x1="966.542" y1="302.745" x2="1036.25" y2= "658.765" />
   <polygon id="_316753768" class="fil1" points="1067.62,652.64 1004.87,664.89 952.603,255.999 "/>
   <path id="_316753888" class="fil2" d="M1025.92 897.734c2.17323,6.18662 3.92008,12.5209 5.23347,18.9461 6.49252,31.7646 1.85906,64.363 -14.2878,92.5654 -16.1421,28.1953 -41.928,48.7264 -72.4772,59.4579 -6.31063,2.21575 -12.7772,3.97559 -19.3288,5.31378 -37.9111,7.74449 -77.8595,0.664961 -111.495,-18.2032 -33.7548,-18.9378 -60.5103,-49.2567 -73.389,-85.9217 -2.17323,-6.18662 -3.92008,-12.5221 -5.23347,-18.9461 -6.49371,-31.7634 -1.85906,-64.3642 14.2878,-92.5666 16.141,-28.1941 41.9303,-48.7217 72.476,-59.4556 6.30945,-2.21693 12.7772,-3.97677 19.3299,-5.31615 37.9111,-7.74686 77.8607,-0.666142 111.496,18.2043 33.7536,18.9366 60.5091,49.2567 73.3879,85.9217z"/>
  </g>
 </g>
 <rect class="fil0" width="2048" height="2048"/>
</svg>
