<?xml version="1.0" encoding="UTF-8"?>
<!DOCTYPE svg PUBLIC "-//W3C//DTD SVG 1.1//EN" "http://www.w3.org/Graphics/SVG/1.1/DTD/svg11.dtd">
<!-- Creator: CorelDRAW -->
<svg xmlns="http://www.w3.org/2000/svg" xml:space="preserve" width="2048px" height="2048px" style="shape-rendering:geometricPrecision; text-rendering:geometricPrecision; image-rendering:optimizeQuality; fill-rule:evenodd; clip-rule:evenodd"
viewBox="0 0 2048 2048"
 xmlns:xlink="http://www.w3.org/1999/xlink">
 <defs>
  <style type="text/css">
   <![CDATA[
    .fil4 {fill:none}
    .fil0 {fill:#1565C0}
    .fil1 {fill:#1E88E5}
    .fil2 {fill:#FFD740}
    .fil3 {fill:#FFD740;fill-rule:nonzero}
   ]]>
  </style>
 </defs>
 <g id="Layer_x0020_1">
  <metadata id="CorelCorpID_0Corel-Layer"/>
  <g id="_326711456">
   <g>
    <rect id="_326712032" class="fil0" transform="matrix(1.66952 1.66952 -0.532593 0.532593 1024 205.936)" width="490.001" height="1536" rx="120.512" ry="120.512"/>
    <rect id="_326711816" class="fil1" transform="matrix(0.532593 0.532593 -0.532593 0.532593 1024 274.107)" width="1408" height="1408" rx="96.0001" ry="96.0001"/>
   </g>
   <g>
    <g>
     <path id="_326711264" class="fil2" d="M1067.61 479.691l0 0.879922c0,0.0767717 0.0153543,0.187795 0.046063,0.285827 36.6012,8.09056 69.2753,28.5886 92.6977,57.7843 23.4579,29.237 36.039,65.3292 36.039,102.803 0,43.7292 -17.2311,85.3288 -48.1477,116.245 -30.9166,30.9166 -72.5162,48.1477 -116.245,48.1477 -43.7292,0 -85.3288,-17.2311 -116.245,-48.1477 -30.9166,-30.9166 -48.1477,-72.5162 -48.1477,-116.245 0,-37.474 12.5799,-73.5662 36.0378,-102.803 23.1402,-28.8402 54.9886,-50.8063 91.7788,-57.5563 0.253937,-0.0472441 0.709843,-0.194882 0.966142,-0.394488l0 -0.754725c0,-0.0862205 0,-0.180709 -0.0011811,-0.230315 -57.0237,8.48032 -108.92,37.2898 -146.522,80.9481 -37.689,43.7611 -58.2426,99.0048 -58.2426,156.771 0,63.9886 25.1669,124.732 70.4067,169.97 45.2386,45.2386 105.98,70.4056 169.969,70.4056 63.9886,0 124.73,-25.1669 169.969,-70.4056 45.2398,-45.2386 70.4067,-105.982 70.4067,-169.97 0,-57.7666 -20.5524,-113.012 -58.2426,-156.771 -37.4988,-43.539 -89.7024,-70.6902 -145.957,-80.8678 -0.179528,-0.0330709 -0.376772,-0.0708662 -0.565748,-0.0944883z"/>
     <path id="_326711384" class="fil2" d="M560.247 1216.06l1.09488 -0.54567 0 -0.00472441c-11.2536,-35.602 -9.91536,-74.4308 3.61299,-109.204 11.0386,-28.3736 29.1095,-53.4662 53.3741,-71.4249l-0.472441 -0.818505 18.1028 -10.4386c37.702,-21.7429 82.7528,-27.6095 124.778,-16.3488 42.2221,11.3138 77.9894,38.6611 99.8576,76.5379 21.8209,37.7953 27.678,82.7068 16.3878,124.846 -11.3197,42.2469 -38.7331,77.9859 -76.617,99.8587 -32.3823,18.6945 -70.1871,25.7587 -107.136,20.0776 -36.4713,-5.6067 -71.478,-22.0453 -95.5961,-50.5748 -0.168898,-0.199606 -0.516142,-0.519685 -0.827953,-0.672048l-0.88819 0.446457 0.00354331 0.00354331c35.8736,45.1843 86.8205,75.7123 143.437,86.4485 56.589,10.7291 114.842,0.762993 164.718,-28.0323 55.4115,-31.9914 95.4957,-84.1146 112.056,-145.922 16.4528,-61.4056 5.51693,-125.839 -23.6504,-181.706 -0.262205,-0.501969 -0.571654,-0.992127 -0.881103,-1.46457 -34.4055,-52.6524 -83.9894,-94.7198 -145.439,-111.186 -61.356,-16.441 -125.471,-4.79882 -181.501,23.5677 -0.571654,0.28937 -1.12795,0.609449 -1.66536,0.961418 -47.5122,31.0122 -86.9375,74.1379 -105.852,128.258 -18.9532,54.241 -16.9358,113.332 2.99292,167.042 0.0354331,0.0933072 0.0720473,0.194882 0.111024,0.292914z"/>
     <path id="_326711048" class="fil2" d="M1451.67 1287.33l-0.938977 -0.622441 -0.011811 0.011811c-25.2874,27.6414 -59.367,45.6603 -96.3367,51.3426 -36.5859,5.62441 -74.7308,-0.159449 -106.499,-19.7291 -0.43937,-0.270473 -0.88819,-0.529134 -1.34291,-0.775985 -38.4496,-20.8299 -64.6961,-57.5741 -75.9119,-99.4312 -11.1933,-41.7756 -6.83386,-86.9635 16.0453,-124.136 0.26811,-0.437008 0.523229,-0.881103 0.767717,-1.3311 20.8099,-38.4674 57.5764,-64.702 99.4324,-75.9166 41.7744,-11.1921 86.954,-6.82087 124.132,16.0417 0.43937,0.269292 0.887009,0.526772 1.34055,0.772442 32.9303,17.8087 56.8394,47.5937 70.3099,82.2154 10.9996,28.2697 14.3469,59.3008 8.82166,89.0115l2.67166 1.05473c14.2961,-48.2079 13.0063,-99.8918 -3.68268,-147.647 -19.0536,-54.5221 -56.7036,-99.8623 -106.717,-128.738 -55.2154,-31.878 -120.712,-40.5496 -182.3,-24.0484 -61.7835,16.5543 -113.935,56.5725 -145.921,111.974 -31.8933,55.2402 -40.5579,120.768 -24.0496,182.381 16.5602,61.8071 56.6445,113.929 112.056,145.921 49.8768,28.7953 108.128,38.7638 164.718,28.0335 56.4815,-10.7102 105.882,-42.5882 143.025,-85.9194 0.126378,-0.145276 0.265748,-0.304725 0.392126,-0.464174z"/>
    </g>
    <path id="_326711720" class="fil3" d="M1025.93 678.266c47.6681,0 92.8772,10.5331 133.432,29.3929 -6.69922,12.8693 -15.3851,24.7701 -25.8803,35.2654 -5.42835,5.42835 -11.2323,10.3724 -17.3516,14.8087 -28.0276,-10.6571 -58.4315,-16.4941 -90.1997,-16.4941 -28.6925,0 -56.2725,4.76339 -81.9934,13.5378 -4.68426,-3.64607 -9.16654,-7.6004 -13.4173,-11.8524 -11.687,-11.6858 -21.1299,-25.1138 -28.0831,-39.6815 37.9512,-16.0819 79.6843,-24.9768 123.494,-24.9768zm252.65 125.662c18.1536,23.9575 32.9764,50.576 43.7847,79.1682 -23.504,-5.42481 -47.6941,-7.59213 -71.8418,-6.39922 -1.57323,-2.9811 -3.20906,-5.9256 -4.89685,-8.83465 13.9441,-19.761 25.0122,-41.2701 32.954,-63.9343zm61.9985 228.153c-8.46024,72.6827 -41.524,137.861 -90.6438,186.983 -12.7299,12.7287 -26.5394,24.3768 -41.2772,34.8012 -7.94646,-12.6059 -13.9453,-26.5311 -17.8618,-41.1449 -1.86732,-6.96969 -3.2374,-14.0776 -4.09252,-21.2421 6.5126,-5.33741 12.7595,-10.989 18.7075,-16.9382 35.302,-35.302 60.2504,-80.9587 69.9071,-132.024 5.52048,-2.18858 11.1862,-4.06063 16.9595,-5.60788 15.7134,-4.20945 32.1272,-5.89843 48.3012,-4.82717zm-273.848 277.165c-13.3571,1.71851 -26.9752,2.60669 -40.8,2.60669 -17.7602,0 -35.1803,-1.46221 -52.1445,-4.27205 16.6406,-17.5642 30.7595,-37.3713 41.9492,-58.9052 3.38268,0.134646 6.78071,0.20315 10.1953,0.20315 0.453544,0 0.904725,-0.00590552 1.35827,-0.00826772 10.3146,21.9378 23.5973,42.2327 39.4418,60.3756zm-230.951 -60.7937c-11.9705,-8.99764 -23.2855,-18.8197 -33.854,-29.3882 -51.2032,-51.2044 -84.9591,-119.858 -91.5875,-196.271 15.0496,-0.822048 30.2551,0.703938 44.9941,4.65237 6.8067,1.82362 13.4185,4.12441 19.7988,6.87048 8.44135,54.3756 34.1374,103.043 71.3174,140.224 4.40433,4.40315 8.9693,8.64331 13.6854,12.7146 -0.798426,5.37166 -1.90394,10.715 -3.32008,16.0028 -4.3878,16.3772 -11.5429,31.6264 -21.0343,45.1949zm-102.366 -375.207c12.1713,-29.191 28.5827,-56.1721 48.4654,-80.1709 6.95434,23.0362 17.0776,45.0095 30.1217,65.3268 -2.05158,3.20551 -4.03229,6.46063 -5.94213,9.763 -24.3614,-1.72914 -48.763,0.148819 -72.6449,5.08111z"/>
   </g>
  </g>
 </g>
 <rect class="fil4" width="2048" height="2048"/>
</svg>
