<?xml version="1.0" encoding="UTF-8"?>
<!DOCTYPE svg PUBLIC "-//W3C//DTD SVG 1.1//EN" "http://www.w3.org/Graphics/SVG/1.1/DTD/svg11.dtd">
<!-- Creator: CorelDRAW -->
<svg xmlns="http://www.w3.org/2000/svg" xml:space="preserve" width="2048px" height="2048px" style="shape-rendering:geometricPrecision; text-rendering:geometricPrecision; image-rendering:optimizeQuality; fill-rule:evenodd; clip-rule:evenodd"
viewBox="0 0 2048 2048"
 xmlns:xlink="http://www.w3.org/1999/xlink">
 <defs>
  <style type="text/css">
   <![CDATA[
    .fil4 {fill:none}
    .fil2 {fill:#37474F}
    .fil3 {fill:#B0BEC5}
    .fil1 {fill:#C62828}
    .fil0 {fill:#E53935}
   ]]>
  </style>
 </defs>
 <g id="Layer_x0020_1">
  <metadata id="CorelCorpID_0Corel-Layer"/>
  <g id="_326726456">
   <path id="_326728472" class="fil0" d="M916.521 1553.29c220.46,-223.962 412.804,-416.306 636.766,-636.766 -80.9717,-106.688 -169.365,-208.076 -265.927,-300.274 -163.682,-156.284 -364.239,-298.374 -593.693,-360.249 22.363,18.0768 44.1343,43.8461 59.1248,66.0048 35.067,51.8327 54.8977,113.6 50.9304,182.244l-3.39922 58.8048 -396.533 -159.389 0.0590552 0.186614 -0.185433 -0.0590552 159.388 396.533 -58.8036 3.39803c-68.6445,3.96733 -130.412,-15.8622 -182.245,-50.9304 -22.1587,-14.9894 -47.928,-36.7618 -66.0036,-59.1237 61.8756,229.453 203.965,430.011 360.249,593.692 92.1969,96.5623 193.585,184.955 300.273,265.928z"/>
   <path id="_326728520" class="fil1" d="M1096.55 974.075c23.7567,-159.522 -692.763,-570.409 -692.763,-570.409 0,0 410.888,716.52 570.409,692.762l122.354 -122.353z"/>
   <path id="_326728664" class="fil1" d="M1431.29 933.491l-181.019 -0.0011811c113.137,-248.902 -556.608,-677.489 -556.608,-677.489 0,0 443.471,157.058 737.627,677.49z"/>
   <path id="_326727752" class="fil1" d="M933.492 1431.3l-0.0011811 -181.019c-248.902,113.137 -677.489,-556.608 -677.489,-556.608 0,0 157.06,443.471 677.49,737.627z"/>
   <path id="_326727512" class="fil2" d="M977.387 1000.89c-131.433,141.064 -159.536,341.362 -87.6119,507.678 24.9992,57.8067 62.0823,111.507 111.112,157.188 17.7,16.4917 36.3331,31.3559 55.7138,44.6008 188.766,128.995 448.531,104.29 609.152,-68.1012 172.33,-184.958 167.023,-471.754 -8.48859,-650.255 -4.87323,-4.95591 -9.87639,-9.82678 -15.0095,-14.6102 -51.202,-47.7059 -110.209,-81.7997 -172.563,-102.437 -169.138,-55.9808 -362.899,-12.9532 -492.305,125.936z"/>
   <path id="_326727704" class="fil3" d="M1202.18 1031.02c23.0669,21.4914 24.3425,57.6107 2.85236,80.6753 -21.4902,23.0658 -57.6095,24.3425 -80.6764,2.85118 -23.0646,-21.489 -24.3414,-57.6095 -2.85118,-80.6753 21.4914,-23.0646 57.6107,-24.3414 80.6753,-2.85118z"/>
   <path id="_326727344" class="fil3" d="M1449.54 1056.81c18.7228,17.4461 19.7587,46.7658 2.31378,65.4886 -17.4449,18.724 -46.7646,19.7599 -65.4875,2.31496 -18.724,-17.4449 -19.7599,-46.7646 -2.31496,-65.4886 17.4449,-18.7228 46.7646,-19.7587 65.4886,-2.31496z"/>
   <path id="_326727224" class="fil3" d="M1293.59 1546.99c17.4437,-18.7228 46.7646,-19.7599 65.4886,-2.31378 18.7217,17.4437 19.7587,46.7646 2.31378,65.4875 -17.4449,18.724 -46.7646,19.7599 -65.4875,2.31496 -18.724,-17.4437 -19.761,-46.7658 -2.31496,-65.4886z"/>
   <path id="_326727152" class="fil3" d="M1011.42 1347.41c14.3268,-15.3768 38.4071,-16.2284 53.7851,-1.9004 15.3756,14.3256 16.2272,38.4071 1.9004,53.7827 -14.328,15.378 -38.4071,16.2284 -53.7851,1.90158 -15.3756,-14.3268 -16.2272,-38.4071 -1.9004,-53.7839z"/>
   <path id="_326727368" class="fil3" d="M1339.36 1318.24c18.7228,17.4449 19.7587,46.7658 2.31496,65.4886 -17.4461,18.724 -46.7658,19.7599 -65.4886,2.31496 -18.724,-17.4449 -19.7599,-46.7658 -2.31496,-65.4886 17.4449,-18.724 46.7646,-19.7599 65.4886,-2.31496z"/>
   <path id="_326727200" class="fil3" d="M1603.05 1326.5c15.378,14.3256 16.2284,38.4071 1.90158,53.7827 -14.3268,15.378 -38.4071,16.2295 -53.7839,1.90158 -15.3768,-14.3268 -16.2284,-38.4071 -1.9004,-53.7839 14.3256,-15.3768 38.4071,-16.2284 53.7827,-1.9004z"/>
  </g>
 </g>
 <rect class="fil4" width="2048" height="2048"/>
</svg>
