<?xml version="1.0" encoding="UTF-8"?>
<!DOCTYPE svg PUBLIC "-//W3C//DTD SVG 1.1//EN" "http://www.w3.org/Graphics/SVG/1.1/DTD/svg11.dtd">
<!-- Creator: CorelDRAW -->
<svg xmlns="http://www.w3.org/2000/svg" xml:space="preserve" width="2048px" height="2048px" style="shape-rendering:geometricPrecision; text-rendering:geometricPrecision; image-rendering:optimizeQuality; fill-rule:evenodd; clip-rule:evenodd"
viewBox="0 0 2048 2048"
 xmlns:xlink="http://www.w3.org/1999/xlink">
 <defs>
  <style type="text/css">
   <![CDATA[
    .fil5 {fill:none}
    .fil4 {fill:#607D8B}
    .fil3 {fill:#E53935}
    .fil1 {fill:#ECEFF1}
    .fil0 {fill:#607D8B;fill-rule:nonzero}
    .fil2 {fill:#E53935;fill-rule:nonzero}
   ]]>
  </style>
 </defs>
 <g id="Layer_x0020_1">
  <metadata id="CorelCorpID_0Corel-Layer"/>
  <g id="_317179032">
   <path id="_317197272" class="fil0" d="M823.237 256.001l0.00354331 0c52.2036,0 99.6402,21.3343 134.01,55.7032 34.3689,34.3689 55.7032,81.8068 55.7032,134.009l0 785.816c35.6894,27.3319 65.328,62.2229 86.53,102.293 23.0705,43.6028 36.137,93.2257 36.137,145.797 0,86.2572 -34.9666,164.353 -91.4977,220.884 -56.5311,56.5311 -134.628,91.4977 -220.885,91.4977 -86.2572,0 -164.353,-34.9666 -220.884,-91.4977 -56.5311,-56.5311 -91.4977,-134.627 -91.4977,-220.884 0,-52.5709 13.0665,-102.194 36.137,-145.797 21.202,-40.0701 50.8406,-74.9611 86.53,-102.293l0 -785.816c0,-52.2024 21.3343,-99.6402 55.7032,-134.009 34.3689,-34.3689 81.8068,-55.7032 134.01,-55.7032z"/>
   <path id="_317189640" class="fil1" d="M823.237 288.333c-41.8689,0 -81.5694,16.6547 -111.148,46.2331 -29.5784,29.5772 -46.2331,69.2788 -46.2331,111.147l0 801.781 -12.6744 9.70513c-32.1248,24.6024 -58.6796,55.9689 -77.6091,91.7446 -21.3567,40.363 -32.3835,85.0135 -32.3835,130.675 0,74.556 29.3173,145.31 82.0276,198.02 52.7103,52.7115 123.464,82.0288 198.021,82.0288 74.556,0 145.311,-29.3173 198.021,-82.0288 52.7115,-52.7103 82.0288,-123.463 82.0288,-198.02 0,-45.6615 -11.0268,-90.3119 -32.3835,-130.675 -18.9307,-35.7768 -45.4843,-67.1422 -77.6091,-91.7446l-12.6756 -9.70513 0 -801.781c0,-41.8677 -16.6536,-81.5694 -46.2307,-111.147 -29.5807,-29.5796 -69.2823,-46.2331 -111.152,-46.2331z"/>
   <path id="_317179848" class="fil2" d="M855.239 1310.4l0 -635.239c0,-17.6728 -14.328,-32.0008 -32.0008,-32.0008 -17.6728,0 -32.0008,14.328 -32.0008,32.0008l0 635.239c-34.7162,6.5256 -65.7603,23.4697 -89.7532,47.465 -31.1622,31.1599 -50.4367,74.2099 -50.4367,121.754 0,47.5453 19.2744,90.5942 50.4367,121.754 31.1599,31.1622 74.2087,50.4367 121.754,50.4367 47.5453,0 90.593,-19.2744 121.755,-50.4367 31.1622,-31.1599 50.4367,-74.2099 50.4367,-121.754 0,-47.5441 -19.2744,-90.5942 -50.4367,-121.754 -23.9953,-23.9953 -55.0382,-40.9394 -89.7544,-47.465z"/>
   <g>
    <path id="_317179224" class="fil3" d="M1138.67 431.239l350.476 0c26.504,0 48,21.4961 48,48 0,26.504 -21.4961,48 -48,48l-350.476 0c-26.504,0 -48,-21.4961 -48,-48 0,-26.504 21.4961,-48 48,-48z"/>
    <path id="_317179104" class="fil3" d="M1265.91 304.001l0 350.476c0,26.504 21.4961,48 48,48 26.504,0 48,-21.4961 48,-48l0 -350.476c0,-26.504 -21.4961,-48 -48,-48 -26.504,0 -48,21.4961 -48,48z"/>
   </g>
   <g>
    <rect id="_317179296" class="fil4" x="882.446" y="600.733" width="121.25" height="31.5751" rx="15.7878" ry="15.7878"/>
    <rect id="_317179680" class="fil4" x="882.446" y="702.801" width="121.25" height="31.5751" rx="15.7878" ry="15.7878"/>
    <rect id="_317178576" class="fil4" x="882.446" y="804.868" width="121.25" height="31.5751" rx="15.7878" ry="15.7878"/>
    <rect id="_317178720" class="fil4" x="882.446" y="906.935" width="121.25" height="31.5751" rx="15.7878" ry="15.7878"/>
    <rect id="_317178312" class="fil4" x="882.446" y="1009" width="121.25" height="31.5751" rx="15.7878" ry="15.7878"/>
    <rect id="_317178696" class="fil4" x="882.446" y="1111.07" width="121.25" height="31.5751" rx="15.7878" ry="15.7878"/>
    <rect id="_317178384" class="fil4" x="882.446" y="498.666" width="121.25" height="31.5751" rx="15.7878" ry="15.7878"/>
   </g>
  </g>
 </g>
 <rect class="fil5" width="2048" height="2048"/>
</svg>
