<?xml version="1.0" encoding="UTF-8"?>
<!DOCTYPE svg PUBLIC "-//W3C//DTD SVG 1.1//EN" "http://www.w3.org/Graphics/SVG/1.1/DTD/svg11.dtd">
<!-- Creator: CorelDRAW -->
<svg xmlns="http://www.w3.org/2000/svg" xml:space="preserve" width="2048px" height="2048px" style="shape-rendering:geometricPrecision; text-rendering:geometricPrecision; image-rendering:optimizeQuality; fill-rule:evenodd; clip-rule:evenodd"
viewBox="0 0 2048 2048"
 xmlns:xlink="http://www.w3.org/1999/xlink">
 <defs>
  <style type="text/css">
   <![CDATA[
    .fil3 {fill:none}
    .fil2 {fill:#B0BEC5}
    .fil1 {fill:#455A64;fill-rule:nonzero}
    .fil0 {fill:#78909C;fill-rule:nonzero}
   ]]>
  </style>
 </defs>
 <g id="Layer_x0020_1">
  <metadata id="CorelCorpID_0Corel-Layer"/>
  <g id="_317195136">
   <path id="_317195208" class="fil0" d="M994.341 1130.19c-528.155,-219.572 -518.807,-650.396 -517.192,-685.043 -0.102756,-5.67638 1.30276,-11.4508 4.37953,-16.7091 8.91379,-15.2351 28.4776,-20.3705 43.7233,-11.4921 11.2524,6.24922 18.065,18.978 16.1492,32.4815l-0.0720473 -0.0106299c-0.0413386,0.329528 -0.0933072,0.889371 -0.155906,1.71851 -0.0141732,0.201969 -0.0236221,0.681497 -0.0236221,1.47638 0,30.0047 48.4418,60.6827 126.76,86.0221 88.9619,28.7835 212.658,46.5874 349.995,46.5874 137.339,0 261.034,-17.804 349.996,-46.5874 78.3178,-25.3394 126.76,-56.0174 126.76,-86.0221 0,-2.71654 -0.461811,-5.38937 -1.35591,-8.00434 -0.980316,-2.86654 -2.55709,-5.90788 -4.68898,-9.09922 -9.88702,-13.2177 -8.11772,-32.0327 4.47874,-43.1398 13.2543,-11.6882 33.4772,-10.4197 45.1654,2.83465l-24 21.1654 24 -21.1252c18.9154,21.4477 28.2177,50.4685 31.461,82.0973 2.9067,28.3335 0.961418,58.9441 -3.01299,87.4312 -13.65,97.8178 -20.1969,105.132 -55.6489,144.736 -8.76733,9.79371 -19.8047,22.1244 -35.4213,41.9764 -109.512,139.215 -68.6611,232.11 -29.0032,322.286 40.3772,91.8107 79.7209,181.273 2.87953,305.85 -42.3827,68.7154 -71.0552,87.7253 -123.664,122.606 -10.1055,6.70158 -21.052,13.9595 -24.6166,16.3807 -197.113,133.873 -224.605,229.556 -227.784,244.284 -0.461811,5.14843 -2.1815,10.2579 -5.25,14.8618 -9.80316,14.7047 -29.6717,18.678 -44.3764,8.87481 -181.803,-121.202 -103.075,-237.13 -21.848,-356.731 65.8276,-96.9308 133.71,-196.941 -7.63347,-299.706z"/>
   <path id="_317195400" class="fil1" d="M1017.9 255.997c143.64,0 274.325,19.0465 369.495,49.839 105.814,34.2355 171.262,85.8662 171.262,146.772 0,60.906 -65.4485,112.537 -171.262,146.772 -95.1698,30.7925 -225.855,49.839 -369.495,49.839 -143.638,0 -274.325,-19.0453 -369.495,-49.8378 -105.813,-34.2355 -171.261,-85.8686 -171.261,-146.773 0,-60.9048 65.4485,-112.538 171.261,-146.773 95.1698,-30.7925 225.858,-49.8378 369.495,-49.8378z"/>
   <path id="_317194608" class="fil2" d="M1484.67 428.567c-17.9823,-21.9496 -59.3457,-43.3996 -116.771,-61.9796 -88.9619,-28.7835 -212.658,-46.5886 -349.995,-46.5886 -137.338,0 -261.033,17.804 -349.995,46.5874 -73.8544,23.8949 -121.141,52.5378 -126.291,80.8867 -0.0531496,0.648426 -0.125197,1.29921 -0.217323,1.95118l-0.0696851 -0.0106299c-0.120473,1.06536 -0.18189,2.13071 -0.18189,3.19488 0,30.0047 48.4418,60.6827 126.76,86.0221 88.9619,28.7835 212.658,46.5874 349.995,46.5874 137.338,0 261.033,-17.8051 349.995,-46.5886 78.3178,-25.3394 126.761,-56.0162 126.761,-86.0209 0,-8.00434 -3.44764,-16.0559 -9.98977,-24.0414z"/>
   <path id="_317194944" class="fil1" d="M1344 445.134c0,-17.6728 -14.328,-32.0008 -32.0008,-32.0008 -17.6728,0 -32.0008,14.328 -32.0008,32.0008 0,2.07166 -23.4614,8.5878 -61.389,17.4449 -50.9044,11.889 -121.83,19.2437 -200.706,19.2437 -78.8764,0 -149.802,-7.35473 -200.707,-19.2437 -37.9276,-8.85709 -61.389,-15.3732 -61.389,-17.4449 0,-17.6728 -14.328,-32.0008 -32.0008,-32.0008 -17.6728,0 -32.0008,14.328 -32.0008,32.0008 0,35.863 42.3792,63.6957 110.891,79.6961 55.5355,12.9697 131.66,20.9941 215.206,20.9941 83.5453,0 159.671,-8.02442 215.205,-20.9941 68.5123,-16.0004 110.891,-43.8331 110.891,-79.6961z"/>
  </g>
 </g>
 <rect class="fil3" width="2048" height="2048"/>
</svg>
