<?xml version="1.0" encoding="UTF-8"?>
<!DOCTYPE svg PUBLIC "-//W3C//DTD SVG 1.1//EN" "http://www.w3.org/Graphics/SVG/1.1/DTD/svg11.dtd">
<!-- Creator: CorelDRAW -->
<svg xmlns="http://www.w3.org/2000/svg" xml:space="preserve" width="6.82666in" height="6.82666in" style="shape-rendering:geometricPrecision; text-rendering:geometricPrecision; image-rendering:optimizeQuality; fill-rule:evenodd; clip-rule:evenodd"
viewBox="0 0 6.82666 6.82666"
 xmlns:xlink="http://www.w3.org/1999/xlink">
 <defs>
  <style type="text/css">
   <![CDATA[
    .fil0 {fill:#424242}
    .fil1 {fill:#FFFFFE;fill-rule:nonzero}
   ]]>
  </style>
 </defs>
 <rect class="fil0" width="6.82666" height="6.82666"/>
 <g id="Layer_x0020_1">
  <metadata id="CorelCorpID_0Corel-Layer"/>
  <path class="fil1" d="M1.83629 1.85319c0.090748,0.460059 0.417583,1.24761 1.57164,1.72281l-0.0404173 0.0983346 0.0406142 -0.0986339c0.0107953,0.00444488 0.0204646,0.0104606 0.0288661,0.0176693 0.641488,0.463307 0.355776,0.884213 0.0787559,1.29212 -0.189071,0.278398 -0.372827,0.549079 -0.0920197,0.808902 0.0846181,-0.171031 0.292087,-0.466945 0.794547,-0.808201 0.0476339,-0.0323543 0.066126,-0.0446063 0.0837165,-0.0562717 0.150476,-0.0997677 0.232488,-0.154146 0.348882,-0.34285 0.197161,-0.319642 0.0881299,-0.567567 -0.0237638,-0.821996 -0.157559,-0.358264 -0.319858,-0.727323 0.124173,-1.29179 0.0504528,-0.0641378 0.0932441,-0.111941 0.127244,-0.149921 0.0813661,-0.0908937 0.0963937,-0.107689 0.132992,-0.369949 0.00215748,-0.0154528 0.0041063,-0.0310669 0.00579921,-0.0467362 -0.097122,0.0742362 -0.230689,0.138878 -0.392654,0.19128 -0.317232,0.102642 -0.752854,0.166126 -1.23165,0.166126 -0.478799,0 -0.914421,-0.0634843 -1.23165,-0.166126 -0.12715,-0.0411378 -0.236807,-0.0898189 -0.325071,-0.14476zm1.47818 1.91411c-1.76052,-0.731906 -1.72935,-2.16798 -1.72397,-2.28348 -0.00034252,-0.0189213 0.00434252,-0.0381693 0.0145984,-0.0556969 0.0297126,-0.0507835 0.0949252,-0.0679016 0.145744,-0.0383071 0.0375079,0.0208307 0.0602165,0.0632598 0.0538307,0.108272l-0.000240157 -3.54331e-005c-0.000137795,0.00109843 -0.000311024,0.00296457 -0.000519685,0.00572835 -4.72441e-005,0.000673228 -7.87402e-005,0.00227165 -7.87402e-005,0.00492126 0,0.100016 0.161472,0.202276 0.422531,0.28674 0.296539,0.0959449 0.708858,0.155291 1.16665,0.155291 0.457795,0 0.870114,-0.0593465 1.16665,-0.155291 0.261059,-0.0844646 0.422531,-0.186724 0.422531,-0.28674 0,-0.00905512 -0.00153937,-0.0179646 -0.00451969,-0.0266811 -0.00326772,-0.00955512 -0.00852362,-0.0196929 -0.0156299,-0.0303307 -0.0329567,-0.0440591 -0.0270591,-0.106776 0.0149291,-0.143799 0.0441811,-0.0389606 0.111591,-0.0347323 0.150551,0.00944882l-0.08 0.0705512 0.08 -0.0704173c0.0630512,0.0714921 0.0940591,0.168228 0.10487,0.273657 0.00968898,0.0944449 0.00320472,0.19648 -0.0100433,0.291437 -0.0455,0.326059 -0.0673228,0.350441 -0.185496,0.482453 -0.0292244,0.0326457 -0.0660157,0.073748 -0.118071,0.139921 -0.365039,0.464051 -0.22887,0.773701 -0.0966772,1.07429 0.134591,0.306035 0.265736,0.604244 0.00959843,1.0195 -0.141276,0.229051 -0.23685,0.292417 -0.412213,0.408685 -0.033685,0.0223386 -0.0701732,0.0465315 -0.0820551,0.0546024 -0.657043,0.446244 -0.748681,0.765185 -0.75928,0.81428 -0.00153937,0.0171614 -0.00727165,0.0341929 -0.0175,0.0495394 -0.0326772,0.0490157 -0.0989055,0.0622598 -0.147921,0.0295827 -0.606008,-0.404008 -0.343583,-0.790433 -0.0728268,-1.1891 0.219425,-0.323102 0.445701,-0.656469 -0.0254449,-0.99902z"/>
  <path class="fil1" d="M3.39301 0.853331c0.478799,0 0.914417,0.0634882 1.23165,0.16613 0.352713,0.114118 0.570874,0.28622 0.570874,0.48924 0,0.20302 -0.218161,0.375122 -0.570874,0.48924 -0.317232,0.102642 -0.75285,0.16613 -1.23165,0.16613 -0.478791,0 -0.914417,-0.0634843 -1.23165,-0.166126 -0.352709,-0.114118 -0.57087,-0.286228 -0.57087,-0.489244 0,-0.203016 0.218161,-0.375126 0.57087,-0.489244 0.317232,-0.102642 0.752858,-0.166126 1.23165,-0.166126zm1.16665 0.368634c-0.296539,-0.0959449 -0.708858,-0.155295 -1.16665,-0.155295 -0.457791,0 -0.87011,0.0593465 -1.16665,0.155291 -0.261059,0.0844646 -0.422531,0.186724 -0.422531,0.28674 0,0.100016 0.161472,0.202276 0.422531,0.28674 0.296539,0.0959449 0.708858,0.155291 1.16665,0.155291 0.457791,0 0.87011,-0.0593504 1.16665,-0.155295 0.261059,-0.0844646 0.422535,-0.18672 0.422535,-0.286736 0,-0.100012 -0.161476,-0.202272 -0.422535,-0.286736z"/>
  <path class="fil1" d="M4.48 1.48379c0,-0.0589094 -0.0477598,-0.106669 -0.106669,-0.106669 -0.0589094,0 -0.106669,0.0477598 -0.106669,0.106669 0,0.00690551 -0.0782047,0.028626 -0.20463,0.0581496 -0.169681,0.0396299 -0.406098,0.0641457 -0.66902,0.0641457 -0.262921,0 -0.499339,-0.0245157 -0.669024,-0.0641457 -0.126425,-0.0295236 -0.20463,-0.0512441 -0.20463,-0.0581496 0,-0.0589094 -0.0477598,-0.106669 -0.106669,-0.106669 -0.0589094,0 -0.106669,0.0477598 -0.106669,0.106669 0,0.119543 0.141264,0.212319 0.369638,0.265654 0.185118,0.0432323 0.438866,0.0699803 0.717354,0.0699803 0.278484,0 0.532236,-0.026748 0.71735,-0.0699803 0.228374,-0.0533346 0.369638,-0.14611 0.369638,-0.265654z"/>
 </g>
</svg>
