<?xml version="1.0" encoding="UTF-8"?>
<!DOCTYPE svg PUBLIC "-//W3C//DTD SVG 1.1//EN" "http://www.w3.org/Graphics/SVG/1.1/DTD/svg11.dtd">
<!-- Creator: CorelDRAW -->
<svg xmlns="http://www.w3.org/2000/svg" xml:space="preserve" width="2048px" height="2048px" style="shape-rendering:geometricPrecision; text-rendering:geometricPrecision; image-rendering:optimizeQuality; fill-rule:evenodd; clip-rule:evenodd"
viewBox="0 0 2048 2048"
 xmlns:xlink="http://www.w3.org/1999/xlink">
 <defs>
  <style type="text/css">
   <![CDATA[
    .fil3 {fill:none}
    .fil0 {fill:#E9C34A}
    .fil2 {fill:#FF6F00}
    .fil1 {fill:#FFD54F}
   ]]>
  </style>
 </defs>
 <g id="Layer_x0020_1">
  <metadata id="CorelCorpID_0Corel-Layer"/>
  <g id="_326701832">
   <path id="_326703848" class="fil0" d="M255.999 1024c0,-204.352 80.4615,-398.586 224.938,-543.063 144.477,-144.476 338.711,-224.938 543.063,-224.938 204.352,0 398.586,80.4615 543.063,224.938 144.476,144.477 224.938,338.711 224.938,543.063 0,204.352 -80.4615,398.586 -224.938,543.063 -144.477,144.476 -338.711,224.938 -543.063,224.938 -204.352,0 -398.586,-80.4615 -543.063,-224.938 -144.476,-144.477 -224.938,-338.711 -224.938,-543.063z"/>
   <path id="_326703128" class="fil1" d="M319.999 1024c0,-187.323 73.7564,-365.371 206.193,-497.808 132.437,-132.437 310.485,-206.193 497.808,-206.193 187.323,0 365.371,73.7564 497.808,206.193 132.437,132.437 206.193,310.485 206.193,497.808 0,187.323 -73.7564,365.371 -206.193,497.808 -132.437,132.437 -310.485,206.193 -497.808,206.193 -187.323,0 -365.371,-73.7564 -497.808,-206.193 -132.437,-132.437 -206.193,-310.485 -206.193,-497.808z"/>
   <g>
    <path id="_326702864" class="fil2" d="M1132.83 760.464l106.677 -341.612c-32.6185,-13.7634 -66.5245,-24.3473 -101.18,-31.6229 -37.5898,-7.88741 -75.9119,-11.876 -114.321,-11.876 -38.4083,0 -76.7327,3.98859 -114.321,11.876 -34.6807,7.28032 -68.2619,18.6815 -101.126,31.7988l106.622 341.435c34.3689,-14.1921 71.3067,-21.5351 108.824,-21.5351 37.5177,0 74.4568,7.3441 108.826,21.5362z"/>
    <path id="_326702720" class="fil2" d="M1157.47 1157.47c35.537,-35.5347 55.2874,-83.204 55.2874,-133.466 0,-50.2618 -19.7504,-97.9312 -55.2874,-133.466 -35.5347,-35.537 -83.204,-55.2874 -133.466,-55.2874 -50.2618,0 -97.9312,19.7504 -133.466,55.2874 -35.537,35.5347 -55.2874,83.204 -55.2874,133.466 0,50.2618 19.7504,97.9312 55.2874,133.466 35.5347,35.537 83.204,55.2874 133.466,55.2874 50.2618,0 97.9312,-19.7504 133.466,-55.2874z"/>
    <path id="_326702744" class="fil2" d="M1632.62 1243.38c11.0362,-33.6744 17.9563,-68.4567 23.028,-103.479l-349.036 -78.3863c-8.16024,61.8178 -36.3685,119.394 -81.0367,164.059 -8.73426,8.73544 -18.0165,16.8898 -27.7843,24.4122l242.53 263.219c28.2307,-21.3685 54.3508,-45.4394 77.98,-71.817 25.6252,-28.6087 48.241,-59.8016 67.4457,-93.065 19.2036,-33.2622 34.9122,-68.4461 46.8733,-104.943z"/>
    <path id="_326703008" class="fil2" d="M850.21 1249.99c-9.76772,-7.52245 -19.05,-15.6768 -27.7831,-24.411 -44.6681,-44.6646 -72.8776,-102.241 -81.0379,-164.06l-349.212 78.4276c4.38662,35.1307 12.176,69.7867 23.2051,103.439 11.961,36.4973 27.6697,71.6788 46.8733,104.942 19.2036,33.2622 41.8181,64.4563 67.4457,93.0639 23.6457,26.3941 50.3056,49.7811 78.1016,71.6823l242.407 -263.084z"/>
   </g>
  </g>
 </g>
 <rect class="fil3" width="2048" height="2048"/>
</svg>
